<?xml version="1.0" encoding="UTF-8" standalone="no"?>
<svg width="24px" height="24px" viewBox="0 0 24 24" version="1.1" xmlns="http://www.w3.org/2000/svg" xmlns:xlink="http://www.w3.org/1999/xlink">
    <!-- Generator: Sketch 47.1 (45422) - http://www.bohemiancoding.com/sketch -->
    <title>icon/line/ factory</title>
    <desc>Created with Sketch.</desc>
    <defs></defs>
    <g id="PERSONKORT" stroke="none" stroke-width="1" fill="none" fill-rule="evenodd">
        <g id="Personkort_åpen_nærmeste-leder" transform="translate(-52.000000, -267.000000)" fill="#3E3832">
            <g id="icon/line/-factory" transform="translate(52.000000, 267.000000)">
                <g id="factory">
                    <path d="M10.887,4.797 C9.539,4.797 8.318,4.295 7.136,3.81 C5.514,3.144 4.007,2.647 2.765,3.424 C2.561,3.552 2.295,3.515 2.132,3.339 C1.969,3.161 1.956,2.893 2.1,2.7 C3.373,1.002 4.808,0.178 6.485,0.178 C7.663,0.178 8.816,0.572 9.931,0.953 C11.016,1.324 12.041,1.674 13.053,1.674 C14.032,1.674 14.863,1.341 15.668,0.626 C15.858,0.456 16.148,0.457 16.336,0.63 C16.525,0.802 16.554,1.089 16.403,1.296 C14.676,3.651 12.871,4.797 10.887,4.797 Z M4.246,1.996 C5.35,1.996 6.451,2.448 7.516,2.885 C8.608,3.333 9.737,3.797 10.887,3.797 C11.929,3.797 12.905,3.412 13.869,2.608 C12.488,2.842 10.987,2.371 9.607,1.9 C8.522,1.529 7.497,1.179 6.485,1.179 C5.632,1.179 4.867,1.444 4.147,1.998 C4.18,1.996 4.213,1.996 4.246,1.996 Z" id="Shape" fill-rule="nonzero"></path>
                    <path d="M9,18 L7.5,18 C7.224,18 7,17.776 7,17.5 C7,17.224 7.224,17 7.5,17 L9,17 C9.276,17 9.5,17.224 9.5,17.5 C9.5,17.776 9.276,18 9,18 Z" id="Shape" fill-rule="nonzero"></path>
                    <path d="M9,21 L7.5,21 C7.224,21 7,20.776 7,20.5 C7,20.224 7.224,20 7.5,20 L9,20 C9.276,20 9.5,20.224 9.5,20.5 C9.5,20.776 9.276,21 9,21 Z" id="Shape" fill-rule="nonzero"></path>
                    <path d="M15,18 L13.5,18 C13.224,18 13,17.776 13,17.5 C13,17.224 13.224,17 13.5,17 L15,17 C15.276,17 15.5,17.224 15.5,17.5 C15.5,17.776 15.276,18 15,18 Z" id="Shape" fill-rule="nonzero"></path>
                    <path d="M15,21 L13.5,21 C13.224,21 13,20.776 13,20.5 C13,20.224 13.224,20 13.5,20 L15,20 C15.276,20 15.5,20.224 15.5,20.5 C15.5,20.776 15.276,21 15,21 Z" id="Shape" fill-rule="nonzero"></path>
                    <path d="M21,18 L19.5,18 C19.224,18 19,17.776 19,17.5 C19,17.224 19.224,17 19.5,17 L21,17 C21.276,17 21.5,17.224 21.5,17.5 C21.5,17.776 21.276,18 21,18 Z" id="Shape" fill-rule="nonzero"></path>
                    <path d="M21,21 L19.5,21 C19.224,21 19,20.776 19,20.5 C19,20.224 19.224,20 19.5,20 L21,20 C21.276,20 21.5,20.224 21.5,20.5 C21.5,20.776 21.276,21 21,21 Z" id="Shape" fill-rule="nonzero"></path>
                    <path d="M23.5,24 L0.5,24 C0.224,24 0,23.776 0,23.5 L0,15.704 L1.442,5.43 C1.477,5.184 1.688,5 1.938,5 L4.334,5 C4.571,5 4.775,5.167 4.824,5.398 L6.592,13.912 L11.229,10.9 C11.383,10.8 11.579,10.792 11.74,10.88 C11.9,10.967 12,11.136 12,11.319 L12,13.875 L17.272,10.907 C17.426,10.819 17.615,10.821 17.77,10.911 C17.923,11.001 18.018,11.165 18.018,11.343 L18.018,13.89 L23.251,10.886 C23.405,10.797 23.595,10.797 23.751,10.887 C23.905,10.976 24.001,11.141 24.001,11.32 L24.001,23.5 C24,23.776 23.776,24 23.5,24 Z M1,23 L23,23 L23,12.183 L17.767,15.187 C17.612,15.275 17.422,15.275 17.267,15.186 C17.113,15.097 17.017,14.932 17.017,14.753 L17.017,12.197 L11.745,15.165 C11.59,15.252 11.401,15.25 11.247,15.161 C11.094,15.072 11,14.908 11,14.73 L11,12.24 L6.522,15.149 C6.382,15.238 6.209,15.254 6.057,15.191 C5.905,15.128 5.793,14.993 5.76,14.831 L3.926,6 L2.372,6 L0.995,15.774 L1,23 Z" id="Shape" fill-rule="nonzero"></path>
                </g>
            </g>
        </g>
    </g>
</svg>