<?xml version="1.0" encoding="UTF-8" standalone="no"?>
<svg width="100px" height="98px" viewBox="0 0 100 98" version="1.1" xmlns="http://www.w3.org/2000/svg">
    <!-- Generator: Sketch 39.1 (31720) - http://www.bohemiancoding.com/sketch -->
    <title>NAV ansatt illustrasjon</title>
    <desc>Created with Sketch.</desc>
    <defs></defs>
    <g id="Page-1" stroke="none" stroke-width="1" fill="none" fill-rule="evenodd">
        <g id="Release-29.-sep---intro-på-sykmeldingen" transform="translate(-231.000000, -391.000000)">
            <text id="•-Vi-viser-deg-sykme" font-family="ArialMT, Arial" font-size="16" font-weight="normal" line-spacing="23" fill="#3E3832">
                <tspan x="301" y="500">• Vi viser deg sykmeldingen din, og du sjekker om opplysningene er </tspan>
                <tspan x="301" y="523">riktige. </tspan>
                <tspan x="301" y="546">• Du starter sykmeldingen og sender den eventuelt til arbeidsgiveren </tspan>
                <tspan x="301" y="569">din. </tspan>
            </text>
            <g id="NAV-ansatt-illustrasjon" transform="translate(233.000000, 393.000000)">
                <g id="Page-1-Copy">
                    <path d="M95.5058497,47.055233 C95.5058497,72.8721992 74.2404624,93.8006974 48.0091561,93.8006974 C21.7772948,93.8006974 0.511907514,72.8721992 0.511907514,47.055233 C0.511907514,21.2382668 21.7772948,0.309768642 48.0091561,0.309768642 C74.2404624,0.309768642 95.5058497,21.2382668 95.5058497,47.055233 L95.5058497,47.055233 Z" id="Fill-1" fill="#FFFFFF"></path>
                    <path d="M95.5058497,47.055233 C95.5058497,72.8721992 74.2404624,93.8006974 48.0091561,93.8006974 C21.7772948,93.8006974 0.511907514,72.8721992 0.511907514,47.055233 C0.511907514,21.2382668 21.7772948,0.309768642 48.0091561,0.309768642 C74.2404624,0.309768642 95.5058497,21.2382668 95.5058497,47.055233 L95.5058497,47.055233 Z" id="Stroke-3" stroke="#BCCFCF" stroke-width="3.134"></path>
                    <path d="M73.0376324,36.6844825 L72.9893549,36.6844825 C72.9893549,21.7285335 62.0325919,9.6032102 48.5176786,9.6032102 C35.0022104,9.6032102 24.0454474,21.7285335 24.0454474,36.6844825 C24.0454474,36.6888516 24.0460023,36.6932207 24.0460023,36.6975898 C24.0410081,49.4706311 17.3520832,56.7735688 17.3520832,56.7735688 C17.3520832,56.7735688 23.9577711,64.7526236 48.5182335,64.7526236 L48.5420948,64.7520774 L48.5659561,64.7526236 C73.1258636,64.7526236 79.7315514,56.7735688 79.7315514,56.7735688 C79.7315514,56.7735688 73.0376324,49.4657158 73.0376324,36.6844825" id="Fill-5" fill="#E57D61"></path>
                    <path d="M50.3245873,53.2406662 C63.5409572,53.2406662 73.9605642,62.907829 73.9605642,74.4750008 L73.9605642,84.3791868 C73.9605642,84.8210113 63.0676162,92.1419715 48.7286566,92.1419715 C35.3713387,92.1419715 27.9482636,87.9345356 23.2875468,85.139955 C22.595015,82.3065986 22.057304,77.8659625 22.057304,74.4750008 C22.057304,62.907829 37.1093272,53.2406662 50.3245873,53.2406662" id="Fill-7" fill="#5F224E"></path>
                    <path d="M70.1076347,33.5286326 C69.9766751,32.7804255 69.3191029,32.210259 68.5228023,32.210259 C68.3169295,32.210259 68.1216,32.2517653 67.9412532,32.3205785 C67.9179468,32.3233092 67.8963052,32.3244015 67.8729988,32.3271322 C61.8938081,24.3136708 50.2339699,31.7061749 41.3348254,24.0548021 C40.1944786,22.858217 39.6001665,22.0242665 39.4442358,22.0242665 C39.4442358,22.0242665 30.8131145,29.3889176 29.375889,32.210259 C29.375889,32.210259 29.2748948,32.4117833 29.1439353,32.3205785 C28.9641434,32.2517653 28.7688139,32.210259 28.563496,32.210259 C27.7649757,32.210259 27.1068486,32.7809716 26.9764439,33.5286326 C26.9431491,33.6553362 26.9203977,33.7858629 26.9203977,33.922397 L26.9203977,40.342232 C26.9203977,41.2198734 27.6434497,41.9320354 28.5357503,41.9320354 C28.8936694,41.9320354 29.2210682,41.8140699 29.4885364,41.6201914 C30.8064555,47.5523265 34.1675653,52.5330917 38.6512647,55.5428501 C37.4998197,55.9693827 35.4954728,56.9491517 35.4954728,56.9491517 C36.5092994,58.4138899 40.0019237,66.1094998 48.5370451,66.1094998 C57.0721665,66.1094998 61.5924902,58.2511412 62.4409526,56.2369896 C62.4409526,56.2369896 61.1835191,55.3877473 59.3378775,54.898409 C63.3671029,51.8476903 66.3669642,47.146547 67.5949873,41.6201914 C67.8630104,41.8140699 68.1904092,41.9320354 68.5477734,41.9320354 C69.440074,41.9320354 70.1636809,41.2198734 70.1636809,40.342232 L70.1636809,33.922397 C70.1636809,33.7858629 70.1409295,33.6553362 70.1076347,33.5286326" id="Fill-9" fill="#F2EFEE"></path>
                    <path d="M60.8715468,75.6930491 L59.4670613,75.6930491 C59.2739514,75.6930491 59.1174659,75.5390386 59.1174659,75.348983 L59.1174659,75.324953 C59.1174659,75.1348975 59.2739514,74.980887 59.4670613,74.980887 L60.8715468,74.980887 C61.0646566,74.980887 61.2211422,75.1348975 61.2211422,75.324953 L61.2211422,75.348983 C61.2211422,75.5390386 61.0646566,75.6930491 60.8715468,75.6930491" id="Fill-11" fill="#5F224E"></path>
                    <path d="M41.0513757,38.7270878 C39.6041618,38.8363151 39.1996301,36.7031058 39.635237,35.3104576 C39.7173642,35.0461275 40.1962543,33.8446272 41.0441618,33.8446272 C41.8915145,33.8446272 42.265526,34.5010833 42.3171329,34.6141335 C42.9403006,35.9723751 42.6350983,38.6074839 41.0513757,38.7270878" id="Fill-13" fill="#78ACCD"></path>
                    <path d="M57.2007954,38.7270878 C58.6480092,38.8363151 59.052541,36.7031058 58.6169341,35.3104576 C58.5348069,35.0461275 58.0559168,33.8446272 57.2080092,33.8446272 C56.3606566,33.8446272 55.9866451,34.5010833 55.9350382,34.6141335 C55.3118705,35.9723751 55.6170728,38.6074839 57.2007954,38.7270878" id="Fill-15" fill="#78ACCD"></path>
                    <path d="M45.3969572,50.6831088 C45.3969572,50.6831088 46.3064601,51.6574164 49.9461364,50.9774764 C53.5852578,50.2975364 55.305489,47.9742716 55.305489,47.9742716" id="Stroke-17" stroke="#D19E9D" stroke-width="1.013" stroke-linecap="round"></path>
                    <g id="Group-22" transform="translate(47.722543, 39.869059)">
                        <path d="M1.78615491,0.459792348 C2.65070983,0.326535034 3.49473295,0.358757089 3.89038613,0.844818605 C4.85538035,2.03048102 4.5779237,3.39964531 2.95369249,4.41054404 C2.14129942,4.91572033 0.990964162,5.12270608 0.286224277,4.81086212" id="Fill-19" fill="#F2EFEE"></path>
                        <path d="M1.78615491,0.459792348 C2.65070983,0.326535034 3.49473295,0.358757089 3.89038613,0.844818605 C4.85538035,2.03048102 4.5779237,3.39964531 2.95369249,4.41054404 C2.14129942,4.91572033 0.990964162,5.12270608 0.286224277,4.81086212" id="Stroke-21" stroke="#D2C1A4" stroke-width="0.506" stroke-linecap="round"></path>
                    </g>
                    <polygon id="Fill-23" fill="#F2EFEE" points="46.8336832 71.0066515 51.0837642 71.0066515 58.7831861 61.5158908 38.675348 61.5158908"></polygon>
                    <path d="M69.5640971,82.904782 L54.0953341,82.904782 C53.6813688,82.904782 53.3462012,82.5743694 53.3462012,82.1674977 L53.3462012,73.5909695 C53.3462012,73.1835517 53.6813688,72.8536852 54.0953341,72.8536852 L69.5640971,72.8536852 C69.9780624,72.8536852 70.3132301,73.1835517 70.3132301,73.5909695 L70.3132301,82.1674977 C70.3132301,82.5743694 69.9780624,82.904782 69.5640971,82.904782" id="Fill-25" fill="#CD1719"></path>
                    <path d="M65.676985,78.0511028 C65.676985,80.0739925 64.0116902,81.7156789 61.9562913,81.7156789 C59.897563,81.7156789 58.2306035,80.0739925 58.2306035,78.0511028 C58.2306035,76.0282131 59.897563,74.3865266 61.9562913,74.3865266 C64.0116902,74.3865266 65.676985,76.0282131 65.676985,78.0511028" id="Fill-27" fill="#FFFFFF"></path>
                    <polygon id="Fill-29" fill="#FFFFFF" points="57.1331514 79.666247 56.4067699 79.666247 57.1830936 77.7935448 57.910585 77.7935448"></polygon>
                    <polygon id="Fill-31" fill="#FFFFFF" points="66.284948 79.666247 65.8343584 79.666247 66.6106821 77.7935448 67.0607168 77.7935448"></polygon>
                    <polygon id="Fill-33" fill="#FFFFFF" points="67.5267329 79.666247 67.3363977 79.666247 68.1105017 77.7935448 68.3013919 77.7935448"></polygon>
                    <path d="M59.1279538,79.6572357 L59.6995145,79.6572357 C59.7300347,79.6572357 59.7522312,79.6353902 59.7522312,79.6069911 L59.7522312,77.8549851 C59.7522312,77.826586 59.7300347,77.8041944 59.6995145,77.8041944 L59.1224046,77.8041944 C59.0841156,77.8041944 59.055815,77.8336858 59.055815,77.8697308 L58.8283006,78.4218749 C58.8144277,78.450274 58.8377341,78.4841344 58.8682543,78.4841344 L59.0313988,78.4841344 C59.055815,78.4841344 59.0769017,78.5021569 59.0769017,78.5289176 L59.0769017,79.6069911 C59.0769017,79.6353902 59.0990983,79.6572357 59.1279538,79.6572357" id="Fill-35" fill="#C42229"></path>
                    <path d="M60.3697387,79.6572357 L60.9429642,79.6572357 C60.9734844,79.6572357 60.9979006,79.6353902 60.9979006,79.6069911 L60.9979006,77.8549851 C60.9979006,77.826586 60.9734844,77.8041944 60.9429642,77.8041944 L60.0523283,77.8041944 C60.0145942,77.8041944 59.984074,77.8336858 59.984074,77.8697308 L59.7571145,78.4218749 L59.6783168,78.4841344 L60.1339006,78.4841344 C60.2354497,78.4841344 60.3186867,78.5633242 60.3186867,78.6649056 L60.3186867,79.6069911 C60.3186867,79.6353902 60.3408832,79.6572357 60.3697387,79.6572357" id="Fill-37" fill="#C42229"></path>
                    <path d="M62.9334382,77.8040306 L62.3602127,77.8040306 C62.3313572,77.8040306 62.307496,77.8258761 62.307496,77.8542752 L62.307496,79.6062812 C62.307496,79.6346803 62.3313572,79.6570719 62.3602127,79.6570719 L62.9389873,79.6570719 C62.9772763,79.6570719 63.0061318,79.6275805 63.0061318,79.5915355 L63.2330913,79.0393914 C63.2469642,79.0099001 63.2253225,78.9771319 63.190363,78.9771319 L63.0316578,78.9771319 C63.0061318,78.9771319 62.9878197,78.9563787 62.9878197,78.933441 L62.9878197,77.8542752 C62.9878197,77.8258761 62.9606289,77.8040306 62.9334382,77.8040306" id="Fill-39" fill="#C42229"></path>
                    <path d="M60.5753896,79.6572357 L60.9521757,79.6572357 C60.9882451,79.6572357 61.0187653,79.6271982 61.0187653,79.5916993 L61.2451699,79.0390092 C61.2590428,79.0100639 61.2368462,78.9767496 61.2035514,78.9767496 L61.0448462,78.9767496 L60.5753896,79.6572357 Z" id="Fill-41" fill="#C42229"></path>
                    <path d="M64.4669965,77.8040306 L65.148985,77.8040306 C65.1822798,77.8040306 65.2055861,77.8351604 65.1917133,77.8651979 L64.4697711,79.6292189 C64.464222,79.6466953 64.4475746,79.6570719 64.4270428,79.6570719 L63.8105341,79.6570719 L64.4231584,77.8340681 C64.4292624,77.8160456 64.4475746,77.8040306 64.4669965,77.8040306" id="Fill-43" fill="#C42229"></path>
                    <path d="M63.612541,77.8040306 L62.6486566,77.8040306 C62.5809572,77.8040306 62.9261133,77.869567 62.9499746,77.9307343 L63.631963,79.5991814 C63.6458358,79.6363187 63.6802405,79.6570719 63.7185295,79.6570719 L64.3034081,79.6570719 L63.7018821,77.8662902 C63.689674,77.8275145 63.6530497,77.8040306 63.612541,77.8040306" id="Fill-45" fill="#C42229"></path>
                    <path d="M61.7626266,77.8040306 C62.0817017,77.8040306 62.3536092,78.0197545 62.3536092,78.3982272 C62.3536092,78.7717845 62.3053318,78.79363 62.3053318,78.79363 C62.3053318,78.79363 62.2515052,78.4364567 61.971274,78.4364567 C61.696037,78.4364567 61.6327769,78.5948363 61.6327769,78.7122557 C61.6327769,78.8493359 61.7737249,78.9771319 61.8519676,78.9771319 L62.3536092,78.9771319 L62.0578405,79.6226653 C62.0472971,79.6439646 62.0262104,79.6570719 62.002904,79.6570719 L61.7748347,79.6570719 C61.5356671,79.6570719 60.9130543,79.3490509 60.9130543,78.753762 C60.9130543,78.1562887 61.375852,77.8040306 61.7626266,77.8040306" id="Fill-47" fill="#C42229"></path>
                    <path d="M62.867459,73.9005197 L61.1322451,73.9005197 C61.0578867,73.9005197 60.9979561,73.841537 60.9979561,73.7683547 L60.9979561,73.3543832 C60.9979561,73.2812009 61.0578867,73.2222182 61.1322451,73.2222182 L62.867459,73.2222182 C62.9418173,73.2222182 63.001748,73.2812009 63.001748,73.3543832 L63.001748,73.7683547 C63.001748,73.841537 62.9418173,73.9005197 62.867459,73.9005197" id="Fill-49" fill="#5B1F52"></path>
                    <polygon id="Fill-51" fill="#86497E" points="61.542104 73.6268507 62.457711 73.6268507 62.457711 70.9294824 61.542104 70.9294824"></polygon>
                    <path d="M41.7257064,43.7903196 C41.7257064,45.4483901 40.3600647,46.7924321 38.675348,46.7924321 C36.9906312,46.7924321 35.6249896,45.4483901 35.6249896,43.7903196 C35.6249896,42.1322491 36.9906312,40.7882071 38.675348,40.7882071 C40.3600647,40.7882071 41.7257064,42.1322491 41.7257064,43.7903196" id="Fill-53" fill-opacity="0.2" fill="#E57D61"></path>
                    <path d="M61.9539052,43.7903196 C61.9539052,45.4483901 60.5882636,46.7924321 58.9035468,46.7924321 C57.2188301,46.7924321 55.8531884,45.4483901 55.8531884,43.7903196 C55.8531884,42.1322491 57.2188301,40.7882071 58.9035468,40.7882071 C60.5882636,40.7882071 61.9539052,42.1322491 61.9539052,43.7903196" id="Fill-54" fill-opacity="0.2" fill="#E57D61"></path>
                </g>
            </g>
        </g>
    </g>
</svg>