<?xml version="1.0" encoding="UTF-8" standalone="no"?>
<svg width="152px" height="152px" viewBox="0 0 152 152" version="1.1" xmlns="http://www.w3.org/2000/svg" xmlns:xlink="http://www.w3.org/1999/xlink">
    <!-- Generator: Sketch 43.2 (39069) - http://www.bohemiancoding.com/sketch -->
    <title>Feilmelding_leder</title>
    <desc>Created with Sketch.</desc>
    <defs>
        <ellipse id="path-1" cx="75.9894895" cy="76.0290043" rx="75.9894895" ry="75.8376623"></ellipse>
        <polygon id="path-3" points="0.440851431 0.156946067 71.4380325 0.156946067 71.4380325 77.3723763 0.440851431 77.3723763 0.440851431 0.156946067"></polygon>
        <polygon id="path-5" points="78.5706267 0.365335566 78.5706267 58.1281728 0.000729966059 58.1281728 0.000729966059 0.365335566 78.5706267 0.365335566"></polygon>
        <polygon id="path-7" points="1.12564852 1.001141 7.88307032 1.001141 7.88307032 5.27457803 1.12564852 5.27457803 1.12564852 1.001141"></polygon>
        <polygon id="path-9" points="0.000324177601 1.001141 6.75788312 1.001141 6.75788312 5.27457803 0.000324177601 5.27457803 0.000324177601 1.001141"></polygon>
    </defs>
    <g id="Feilmeldinger" stroke="none" stroke-width="1" fill="none" fill-rule="evenodd">
        <g id="Leder-feilmelding" transform="translate(-456.000000, -387.000000)">
            <g id="Feilmelding_leder" transform="translate(456.000000, 387.000000)">
                <g id="Group-11" transform="translate(0.000000, 0.191342)"></g>
                <mask id="mask-2" fill="white">
                    <use xlink:href="#path-1"></use>
                </mask>
                <use id="Mask" fill="#C2EAF7" xlink:href="#path-1"></use>
                <g id="Page-1" mask="url(#mask-2)">
                    <g transform="translate(36.581833, 18.978232)">
                        <g id="Group-3" stroke-width="1" fill="none" transform="translate(2.919864, 0.170606)">
                            <mask id="mask-4" fill="white">
                                <use xlink:href="#path-3"></use>
                            </mask>
                            <g id="Clip-2"></g>
                            <path d="M70.4741352,33.0874279 C72.9443403,43.1174441 70.6011493,63.9622069 64.197887,77.3723763 C54.3112267,70.5539417 19.5225043,72.071087 8.8737594,76.9887304 C8.8737594,76.9887304 -0.437687649,61.6603312 0.508348364,38.5732742 C0.508348364,38.5732742 3.85743264,-0.220015134 35.7408902,0.159271194 C67.6214278,0.538557521 70.4741352,33.0874279 70.4741352,33.0874279" id="Fill-1" fill="#38383A" mask="url(#mask-4)"></path>
                        </g>
                        <g id="Group-6" stroke-width="1" fill="none" transform="translate(0.000000, 74.610997)">
                            <mask id="mask-6" fill="white">
                                <use xlink:href="#path-5"></use>
                            </mask>
                            <g id="Clip-5"></g>
                            <path d="M51.1450719,0.365335566 L39.2831235,0.365335566 L27.4240949,0.365335566 C21.0266723,0.365335566 0.000729966059,13.5502584 0.000729966059,25.8269285 L0.000729966059,58.1287541 L78.5713567,58.1287541 L78.5713567,25.8269285 C78.5713567,13.5502584 57.5395746,0.365335566 51.1450719,0.365335566" id="Fill-4" fill="#105573" mask="url(#mask-6)"></path>
                        </g>
                        <path d="M9.50021627,54.8273645 L6.87379839,54.8273645 C6.21098921,54.8273645 5.67519412,54.2925853 5.67519412,53.6371902 L5.67519412,40.9274652 C5.67519412,40.27207 6.21098921,39.7372909 6.87379839,39.7372909 L9.50021627,39.7372909 C10.1615655,39.7372909 10.6959007,40.27207 10.6959007,40.9274652 L10.6959007,53.6371902 C10.6959007,54.2925853 10.1615655,54.8273645 9.50021627,54.8273645" id="Fill-7" fill="#E7E5E2"></path>
                        <path d="M49.8032483,73.1022808 C48.5520865,73.1022808 39.6100023,76.5027789 39.6100023,76.5027789 C39.6100023,76.5027789 29.0853516,73.8376022 28.2736294,73.6980945 C27.4604472,73.5542273 21.6017396,76.3153155 21.6017396,76.3153155 C23.0718912,78.2291856 38.2843839,102.374175 38.2843839,102.374175 L40.9356206,102.374175 C40.9356206,102.374175 56.1670924,78.4602451 57.6328643,76.5434686 C57.6328643,76.5434686 51.0544101,73.1022808 49.8032483,73.1022808" id="Fill-9" fill="#E7E5E2"></path>
                        <path d="M27.6201638,73.8902081 C24.2550202,74.9510473 19.2897911,77.8240322 19.2897911,77.8240322 C19.0357629,87.1158207 28.5764193,96.4933481 28.5764193,96.4933481 L30.5137492,90.5497425 L37.8017303,103.018236 L41.6851498,103.128679 L48.3920779,91.8605328 L51.1250709,98.1877844 C60.3299429,83.7414802 58.9196484,77.6627266 58.9196484,77.6627266 C55.2449993,74.8129929 50.6082549,73.3089264 50.6082549,73.3089264 L39.6178859,99.7034765 L27.6201638,73.8902081 Z" id="Fill-11" fill="#9ABDCD"></path>
                        <path d="M69.85527,45.4925612 C69.85527,65.1471497 56.1684064,81.0800818 39.2842914,81.0800818 C22.4001765,81.0800818 8.71623272,65.1471497 8.71623272,45.4925612 C8.71623272,25.8379728 22.4001765,9.90358744 39.2842914,9.90358744 C56.1684064,9.90358744 69.85527,25.8379728 69.85527,45.4925612" id="Fill-13" fill="#E7E5E2"></path>
                        <path d="M67.8720982,43.6100804 C70.3773417,44.2698351 69.5991979,42.4417041 69.5991979,39.7358377 C69.5991979,20.0841556 55.9123343,4.15122346 39.0296793,4.15122346 C22.1470242,4.15122346 8.46162056,20.0841556 8.46162056,39.7358377 C8.46162056,42.326901 8.69666963,44.8482105 9.14924859,47.2823277 C9.14924859,47.2823277 17.6635727,39.6370198 19.7235369,36.5271625 C22.4696692,32.3782642 25.1238258,23.6982748 25.1238258,23.6982748 C26.0713218,23.6982748 51.531078,15.8451586 67.8720982,43.6100804" id="Fill-15" fill="#38383A"></path>
                        <path d="M24.3423242,16.9834536 C24.9131576,22.6582164 26.0489848,36.6685593 50.5787643,35.7196169 C72.4427077,34.8709455 66.6701361,62.8480351 66.6701361,62.8480351 L72.4427077,44.8021439 L68.391396,29.8167009 L30.9966948,10.5486648" id="Fill-17" fill="#38383A"></path>
                    </g>
                </g>
                <g id="Page-1" mask="url(#mask-2)">
                    <g transform="translate(61.358966, 58.396399)">
                        <g id="Group-3" stroke="none" stroke-width="1" fill-rule="evenodd" transform="translate(21.939892, 0.527319)">
                            <mask id="mask-8" fill="white">
                                <use xlink:href="#path-7"></use>
                            </mask>
                            <g id="Clip-2"></g>
                            <path d="M7.31548986,4.85698589 C8.90859025,3.75802348 6.85416736,1.90858743 4.80128221,1.26969134 C4.41223356,1.14741458 2.53772644,0.679705959 1.67812884,1.36904121 C0.818531237,2.05837647 1.19835343,2.83024854 1.27677826,2.9525253 C2.21480069,4.42748876 5.57169079,6.05988355 7.31548986,4.85698589" id="Fill-1" fill="#635E59" mask="url(#mask-8)"></path>
                        </g>
                        <g id="Group-6" stroke="none" stroke-width="1" fill-rule="evenodd" transform="translate(0.000000, 0.527319)">
                            <mask id="mask-10" fill="white">
                                <use xlink:href="#path-9"></use>
                            </mask>
                            <g id="Clip-5"></g>
                            <path d="M0.568041779,4.85698589 C2.31184085,6.05988355 5.66873095,4.42748876 6.60675338,2.9525253 C6.68517821,2.83024854 7.06500041,2.05837647 6.2054028,1.36904121 C5.3458052,0.679705959 3.47129808,1.14741458 3.08224944,1.26969134 C1.03090203,1.90858743 -1.02505861,3.75802348 0.568041779,4.85698589" id="Fill-4" fill="#635E59" mask="url(#mask-10)"></path>
                        </g>
                        <path d="M6.92537346,27.2654256 C6.92537346,27.2654256 8.83371089,24.000636 14.1435329,24.1229128 C19.453355,24.2451895 21.4447305,27.2654256 21.4447305,27.2654256" id="Stroke-7" stroke="#D19E9C" stroke-width="1.013" stroke-linecap="round"></path>
                        <path d="M14.6031639,10.386494 C15.9333105,10.1832089 17.2311645,10.2321196 17.8385724,10.9749509 C19.3224932,12.7877039 18.8965387,14.880165 16.3992462,16.4254376 C15.1490622,17.1973097 13.3806593,17.5137008 12.2965514,17.0368215" id="Stroke-9" stroke="#D1BFA3" stroke-width="0.506" stroke-linecap="round"></path>
                    </g>
                </g>
            </g>
        </g>
    </g>
</svg>