<svg id="Outline_Icons" data-name="Outline Icons" xmlns="http://www.w3.org/2000/svg" viewBox="0 0 24.03 24.05"><defs><style>.cls-1{fill:none;stroke:#fff;stroke-linejoin:round;}</style></defs><title>person-highcontrast</title><rect y="0.03" width="24" height="24"/><path class="cls-1" d="M10,15s-2.6-.9-2.6-5.5c0-1.8,1.2-4.9,4.6-4.9s4.6,3.2,4.6,4.9C16.6,14,14,15,14,15v2.5a32.06,32.06,0,0,1,6.2,2.6,11.53,11.53,0,1,0-16.4,0c1.3-.9,4-1.7,6.2-2.6V15h0Z" transform="translate(0 0.03)"/><path class="cls-1" d="M3.8,20.1a11.53,11.53,0,0,0,16.3.1l0.1-.1" transform="translate(0 0.03)"/></svg>