<?xml version="1.0" encoding="UTF-8" standalone="no"?>
<svg width="32px" height="32px" viewBox="0 0 32 32" version="1.1" xmlns="http://www.w3.org/2000/svg" xmlns:xlink="http://www.w3.org/1999/xlink">
    <!-- Generator: Sketch 41.2 (35397) - http://www.bohemiancoding.com/sketch -->
    <title>Group 8</title>
    <desc>Created with Sketch.</desc>
    <defs></defs>
    <g id="Landingside" stroke="none" stroke-width="1" fill="none" fill-rule="evenodd">
        <g id="Group-8" fill="#0067C5">
            <g id="Group-Copy-4">
                <polygon id="Fill-1885" points="22.5609518 20.7358687 17.96608 25.3294277 22.1762954 29.5396431 27.1085621 24.6073764 28.4712697 23.2446687 24.2610544 19.0344533"></polygon>
                <path d="M15.340439,0.656410256 L21.9045415,7.22051282 L15.340439,7.22051282 L15.340439,0.656410256 Z M16.3329313,25.1063795 L22.5609518,18.878359 L22.5609518,7.22051282 C22.5609518,7.04590769 22.4913723,6.87917949 22.36928,6.75577436 L15.8051774,0.191671795 C15.6817723,0.0695794872 15.5137313,0 15.340439,0 L0.899413333,0 C0.537074872,0 0.243003077,0.294071795 0.243003077,0.656410256 L0.243003077,28.225641 C0.243003077,28.5879795 0.537074872,28.8820513 0.899413333,28.8820513 L15.1684595,28.8820513 L16.1662031,25.3899487 C16.1963979,25.2822974 16.2541621,25.1851487 16.3329313,25.1063795 L16.3329313,25.1063795 Z" id="Fill-1886"></path>
                <path d="M31.5615179,19.2282256 L28.2794667,15.9461744 C28.0234667,15.6901744 27.6073026,15.6901744 27.3513026,15.9461744 L25.1904,18.1070769 L29.4006154,22.3159795 L31.5615179,20.1563897 C31.6849231,20.0342974 31.7545026,19.8662564 31.7545026,19.6929641 C31.7545026,19.518359 31.6849231,19.3516308 31.5615179,19.2282256" id="Fill-1887"></path>
                <path d="M16.5332677,28.8820513 L16.5345805,28.8820513 L16.0212677,30.6740513 C15.9569395,30.9011692 16.0199549,31.1492923 16.1893087,31.3160205 C16.3140267,31.4433641 16.4820677,31.5090051 16.6527344,31.5090051 C16.7131241,31.5090051 16.772201,31.5011282 16.8312779,31.4840615 L21.0572472,30.2762667 L17.2290626,26.4480821 L16.5332677,28.8820513 Z" id="Fill-1888"></path>
            </g>
        </g>
    </g>
</svg>