<?xml version="1.0" encoding="utf-8"?>
<!-- Generator: Adobe Illustrator 20.0.0, SVG Export Plug-In . SVG Version: 6.00 Build 0)  -->
<svg version="1.1" id="Layer_1" xmlns="http://www.w3.org/2000/svg" xmlns:xlink="http://www.w3.org/1999/xlink" x="0px" y="0px"
	 viewBox="0 0 28 28" style="enable-background:new 0 0 28 28;" xml:space="preserve">
<style type="text/css">
	.st0{clip-path:url(#SVGID_2_);fill:#06893A;}
</style>
<g>
	<defs>
		<path id="SVGID_1_" d="M14,0C6.3,0,0,6.3,0,14s6.3,14,14,14c7.7,0,14-6.3,14-14S21.7,0,14,0 M20.2,10.3l-8.7,8.2
			c-0.1,0.1-0.3,0.2-0.4,0.2c-0.1,0-0.3-0.1-0.4-0.2l-2.9-2.9c-0.2-0.2-0.2-0.6,0-0.8c0.2-0.2,0.6-0.2,0.8,0l2.5,2.5l8.3-7.8
			c0.2-0.2,0.6-0.2,0.8,0C20.5,9.8,20.5,10.1,20.2,10.3"/>
	</defs>
	<clipPath id="SVGID_2_">
		<use xlink:href="#SVGID_1_"  style="overflow:visible;"/>
	</clipPath>
	<rect x="-4.9" y="-4.9" class="st0" width="37.8" height="37.8"/>
</g>
</svg>
