<?xml version="1.0" encoding="UTF-8"?>
<svg width="31px" height="31px" viewBox="0 0 31 31" version="1.1" xmlns="http://www.w3.org/2000/svg">
    <!-- Generator: Sketch 41.2 (35397) - http://www.bohemiancoding.com/sketch -->
    <title>Sykmeldinger hover</title>
    <desc>Created with Sketch.</desc>
    <defs></defs>
    <g id="Page-1" stroke="none" stroke-width="1" fill="none" fill-rule="evenodd">
        <g id="Sykmeldinger-hover" fill="#3E3832">
            <g id="Filled_Version">
                <g id="Group">
                    <path d="M13.2992,2.4448 C10.4078789,-0.658598466 5.54819847,-0.830521122 2.4448,2.0608 C-0.658598466,4.95212112 -0.830521122,9.81180153 2.0608,12.9152 L2.4448,13.2992 L6.5024,17.3568 L17.3568,6.5024 L13.2992,2.4448 Z M4.6976,7.4112 C4.94807328,7.16277225 5.35234402,7.16387727 5.60145548,7.41367057 C5.85056694,7.66346387 5.85056694,8.06773613 5.60145548,8.31752943 C5.35234402,8.56732273 4.94807328,8.56842775 4.6976,8.32 C4.5764399,8.19982938 4.50828907,8.03624802 4.50828907,7.8656 C4.50828907,7.69495198 4.5764399,7.53137062 4.6976,7.4112 L4.6976,7.4112 Z M6.0416,11.4816 C5.93342925,11.6224327 5.77062842,11.7108103 5.5936,11.7248 C5.27782062,11.7578806 4.98264044,11.5633132 4.88854968,11.2600677 C4.79445893,10.9568221 4.9276574,10.6293378 5.20669986,10.4778576 C5.48574232,10.3263774 5.83292869,10.3930814 6.03596916,10.6371828 C6.23900962,10.8812843 6.24136706,11.2348125 6.0416,11.4816 Z M7.3984,4.6976 C7.51857062,4.5764399 7.68215198,4.50828907 7.8528,4.50828907 C8.02344802,4.50828907 8.18702938,4.5764399 8.3072,4.6976 L8.3072,4.6976 C8.4283601,4.81777062 8.49651093,4.98135198 8.49651093,5.152 C8.49651093,5.32264802 8.4283601,5.48622938 8.3072,5.6064 L8.3072,5.6064 C8.18702938,5.7275601 8.02344802,5.79571093 7.8528,5.79571093 C7.68215198,5.79571093 7.51857062,5.7275601 7.3984,5.6064 L7.3984,5.6064 C7.2772399,5.48622938 7.20908907,5.32264802 7.20908907,5.152 C7.20908907,4.98135198 7.2772399,4.81777062 7.3984,4.6976 L7.3984,4.6976 Z M7.872,7.8848 C8.12295819,7.63384181 8.52984181,7.63384181 8.7808,7.8848 C9.03175819,8.13575819 9.03175819,8.54264181 8.7808,8.7936 C8.66345844,8.91538059 8.50191115,8.98461514 8.3328,8.9856 C8.06875078,8.99257 7.82754482,8.8366059 7.72554984,8.59295123 C7.62355486,8.34929656 7.68172636,8.06801167 7.872,7.8848 L7.872,7.8848 Z M9.216,11.9296 C9.00272788,12.1508072 8.66234567,12.189226 8.40513222,12.0211222 C8.14791878,11.8530185 8.04647472,11.5258409 8.16346943,11.2417109 C8.28046414,10.9575809 8.58287489,10.7966965 8.88388055,10.8584477 C9.18488621,10.9201989 9.39952546,11.1871559 9.3952,11.4944 C9.39291141,11.6569619 9.32884164,11.8125599 9.216,11.9296 Z M10.5728,5.1456 C10.8232733,4.89717225 11.227544,4.89827727 11.4766555,5.14807057 C11.7257669,5.39786387 11.7257669,5.80213613 11.4766555,6.05192943 C11.227544,6.30172273 10.8232733,6.30282775 10.5728,6.0544 C10.4516399,5.93422938 10.3834891,5.77064802 10.3834891,5.6 C10.3834891,5.42935198 10.4516399,5.26577062 10.5728,5.1456 L10.5728,5.1456 Z M11.9296,9.1648 C11.8094294,9.2859601 11.645848,9.35411093 11.4752,9.35411093 C11.304552,9.35411093 11.1409706,9.2859601 11.0208,9.1648 L11.0208,9.1648 C10.7723722,8.91432672 10.7734773,8.51005598 11.0232706,8.26094452 C11.2730639,8.01183306 11.6773361,8.01183306 11.9271294,8.26094452 C12.1769227,8.51005598 12.1780278,8.91432672 11.9296,9.1648 L11.9296,9.1648 Z" id="Shape"></path>
                    <path d="M28.6592,17.8048 L24.6016,13.7472 L13.7472,24.6016 L17.8048,28.6592 C19.2415991,30.1045868 21.1939843,30.9196156 23.232,30.9248 L23.232,30.9248 C26.3417994,30.9272533 29.1461376,29.0540933 30.3348452,26.1804488 C31.5235528,23.3068042 30.8619762,19.999939 28.6592,17.8048 L28.6592,17.8048 Z M19.1744,21.9648 C19.3876721,21.7435928 19.7280543,21.705174 19.9852678,21.8732778 C20.2424812,22.0413815 20.3439253,22.3685591 20.2269306,22.6526891 C20.1099359,22.9368191 19.8075251,23.0977035 19.5065195,23.0359523 C19.2055138,22.9742011 18.9908745,22.7072441 18.9952,22.4 C18.9974886,22.2374381 19.0615584,22.0818401 19.1744,21.9648 L19.1744,21.9648 Z M20.5312,26.0352 C20.4110294,26.1563601 20.247448,26.2245109 20.0768,26.2245109 C19.906152,26.2245109 19.7425706,26.1563601 19.6224,26.0352 L19.6224,26.0352 C19.357885,25.8024094 19.3312984,25.3995942 19.5629229,25.1340574 C19.7945473,24.8685207 20.1972416,24.8401619 20.463795,25.0706158 C20.7303484,25.3010696 20.7604787,25.7036352 20.5312,25.9712 L20.5312,26.0352 Z M21.888,19.2512 C22.1384733,19.0027722 22.542744,19.0038773 22.7918555,19.2536706 C23.0409669,19.5034639 23.0409669,19.9077361 22.7918555,20.1575294 C22.542744,20.4073227 22.1384733,20.4084278 21.888,20.16 C21.7668399,20.0398294 21.6986891,19.876248 21.6986891,19.7056 C21.6986891,19.534952 21.7668399,19.3713706 21.888,19.2512 L21.888,19.2512 Z M22.336,22.3488 C22.5864733,22.1003722 22.990744,22.1014773 23.2398555,22.3512706 C23.4889669,22.6010639 23.4889669,23.0053361 23.2398555,23.2551294 C22.990744,23.5049227 22.5864733,23.5060278 22.336,23.2576 C22.2148399,23.1374294 22.1466891,22.973848 22.1466891,22.8032 C22.1466891,22.632552 22.2148399,22.4689706 22.336,22.3488 L22.336,22.3488 Z M23.6928,26.4192 C23.4423267,26.6676278 23.038056,26.6665227 22.7889445,26.4167294 C22.5398331,26.1669361 22.5398331,25.7626639 22.7889445,25.5128706 C23.038056,25.2630773 23.4423267,25.2619722 23.6928,25.5104 L23.6928,25.5104 C23.9352178,25.7548965 23.9352178,26.1491035 23.6928,26.3936 L23.6928,26.3936 L23.6928,26.4192 Z M25.0496,19.6352 C25.2384365,19.3832667 25.5801895,19.302016 25.8622045,19.4420057 C26.1442195,19.5819954 26.2861313,19.903333 26.1996357,20.2060674 C26.1131402,20.5088017 25.8228858,20.7066633 25.5094823,20.6765334 C25.1960788,20.6464035 24.948836,20.3968683 24.9216,20.0832 C24.9064622,19.9230884 24.9521599,19.7631465 25.0496,19.6352 L25.0496,19.6352 L25.0496,19.6352 Z M26.4064,23.7056 C26.1923107,23.9118349 25.8628525,23.9394548 25.6174138,23.771744 C25.3719751,23.6040333 25.277979,23.2870627 25.3923121,23.0126634 C25.5066452,22.738264 25.7978996,22.5818145 26.0898079,22.6379983 C26.3817161,22.6941821 26.5940898,22.9475653 26.5984,23.2448 C26.5959955,23.4136123 26.5269851,23.5746365 26.4064,23.6928 L26.4064,23.6928 L26.4064,23.7056 Z" id="Shape"></path>
                    <rect id="Rectangle-path" transform="translate(15.411920, 15.699921) rotate(-45.000000) translate(-15.411920, -15.699921) " x="7.73192032" y="11.8599213" width="15.36" height="7.68"></rect>
                </g>
            </g>
        </g>
    </g>
</svg>