<svg width="100" height="100" viewBox="0 0 100 100" fill="none" xmlns="http://www.w3.org/2000/svg">
    <circle cx="50" cy="50" r="50" fill="#E0F5FB"/>
    <mask id="mask0" mask-type="alpha" maskUnits="userSpaceOnUse" x="0" y="0" width="100" height="100">
        <circle cx="50" cy="50" r="50" fill="#CDE7D8"/>
    </mask>
    <g mask="url(#mask0)">
        <path fill-rule="evenodd" clip-rule="evenodd" d="M69.1554 55.4684C67.44 61.0355 64.0816 65.6565 59.7776 68.4845L59.998 70.9637L59.9968 71.0645L57.6702 91.5H42.9144L42.8531 91.0707L40.0004 71.0293L40.1061 68.5227C35.7804 65.7022 32.403 61.0735 30.6777 55.4917C30.6192 55.4972 30.56 55.5 30.5 55.5C29.3841 55.5 28.5 54.5247 28.5 53.3433V46.6577C28.5 45.8657 28.8972 45.166 29.4952 44.7907C30.4282 32.3095 39.193 22.5 49.9126 22.5C60.6032 22.5 69.3504 32.2566 70.3231 44.6895C71.0214 45.029 71.5 45.7873 71.5 46.6577V53.3433C71.5 54.5253 70.6172 55.5 69.5 55.5C69.3823 55.5 69.2672 55.4892 69.1554 55.4684Z" fill="#F1F1F1"/>
        <path fill-rule="evenodd" clip-rule="evenodd" d="M59.2579 69.1763C59.174 73.639 55.0612 78.2174 50 78.2174C44.9167 78.2174 40.7902 73.599 40.7412 69.118C38.1074 69.7856 34.0869 71.799 30.7686 75.1637C27.5551 78.422 25 83.3197 25 87.1191V110H75V87.1191C75 83.312 72.3898 78.406 69.1169 75.1439C65.8441 71.8819 61.9086 69.8957 59.2579 69.1763Z" fill="#669DB4"/>
        <path fill-rule="evenodd" clip-rule="evenodd" d="M40.5749 69.273C38.1489 70.1538 34.0789 72.079 31 75.0027C22 73 18 68.241 18 68.241C18 68.241 26.2919 60.153 26.2969 46.007V45.992C26.2969 29.428 35.2393 18 49.972 18C64.7067 18 73.6491 29.428 73.6491 45.992H73.7021C73.7021 60.148 82 68.241 82 68.241C82 68.241 78 73 69 75L68.9864 75.0027C66.0126 72.2974 61.6995 70.2108 59.353 69.3287L59.3557 69.3278L59.2625 68.2792L59.3129 68.1923C63.7404 65.3602 67.1759 60.589 68.8322 54.8238C69.035 54.9365 69.264 55 69.5063 55C70.3355 55 71.0065 54.2599 71.0065 53.3433V46.6577C71.0065 45.8734 70.5153 45.2176 69.854 45.0446C69.8534 45.0356 69.8528 45.0265 69.8522 45.0175C48.9189 47.3534 41.3783 33.0009 40.7594 33C40.7594 33 33.8075 38 30.4849 43.9447C30.4849 43.9447 29.9785 45.0669 29.9761 45.1047C29.4073 45.3399 29.0015 45.9458 29.0015 46.6577V53.3433C29.0015 54.2599 29.6743 55 30.5017 55C30.6851 55 30.8607 54.9638 31.0231 54.8975C32.6976 60.6655 36.1549 65.4315 40.6032 68.245L40.6197 68.2792L40.5778 69.273H40.5749Z" fill="#8B5C1E"/>
        <path fill-rule="evenodd" clip-rule="evenodd" d="M42.8504 49.8711C41.5582 49.9757 41.1966 47.9298 41.5859 46.5936C41.6591 46.3404 42.0869 45.1875 42.8441 45.1875C43.6005 45.1875 43.9345 45.8177 43.9809 45.9261C44.5373 47.2286 44.264 49.756 42.8504 49.8711Z" fill="#262626"/>
        <path fill-rule="evenodd" clip-rule="evenodd" d="M57.8371 49.8711C59.1293 49.9757 59.4909 47.9298 59.1016 46.5936C59.0284 46.3404 58.6006 45.1875 57.8434 45.1875C57.087 45.1875 56.753 45.8177 56.7066 45.9261C56.1502 47.2286 56.4235 49.756 57.8371 49.8711Z" fill="#262626"/>
        <path d="M50.8227 51.8874C51.5955 51.755 52.1232 51.8381 52.3122 52.0962C53.0255 53.0717 52.7974 54.1038 51.5735 54.951C50.93 55.3963 50.0443 55.553 49.5754 55.3221C49.3461 55.2092 49.0779 55.3245 48.9765 55.5796C48.875 55.8348 48.9786 56.1331 49.2079 56.246C49.9829 56.6277 51.1747 56.4168 52.0531 55.8089C53.7163 54.6576 54.0969 52.936 53.0163 51.4583C52.559 50.8338 51.7496 50.7064 50.6846 50.8888C50.4368 50.9313 50.2668 51.1892 50.3049 51.465C50.3431 51.7407 50.5749 51.9298 50.8227 51.8874Z" fill="#262626"/>
        <path d="M56.4107 58.5918C56.3653 58.688 56.2612 58.8721 56.094 59.1147C55.8108 59.5252 55.4553 59.9368 55.0235 60.3206C53.7367 61.4644 52.0618 62.1258 49.9302 62.0653C47.8517 62.0063 46.1843 61.3551 44.877 60.3051C44.397 59.9195 44.0008 59.5067 43.684 59.0951C43.4973 58.8524 43.3806 58.6684 43.3296 58.5725C43.2069 58.3419 42.9054 58.2469 42.6561 58.3604C42.4068 58.474 42.3041 58.7529 42.4268 58.9836C42.5007 59.1225 42.6445 59.3494 42.8644 59.6351C43.2253 60.104 43.6741 60.5717 44.2173 61.008C45.693 62.1934 47.579 62.9299 49.8993 62.9957C52.3156 63.0643 54.2473 62.3015 55.7206 60.9919C56.2133 60.554 56.6182 60.0852 56.9422 59.6153C57.1393 59.3296 57.2674 59.1029 57.3328 58.9643C57.444 58.7287 57.3277 58.4544 57.0731 58.3515C56.8184 58.2486 56.5219 58.3562 56.4107 58.5918Z" fill="#262626"/>
        <path d="M77 37.6667V43H23V37.6667H26.1022C26.5711 26.4246 34.4164 17.1422 44.8 14.7813V11H55.2V14.7813C65.5836 17.1422 73.4289 26.4246 73.8978 37.6667H77Z" fill="#FFBD66"/>
        <path d="M55.2 15.2667C56.8376 15.6708 58.2243 16.1039 59.36 16.566C59.36 21.3033 59.36 24.7122 59.36 26.7927C59.36 29.9135 55.2 29.9135 55.2 26.7927C55.2 24.1607 55.2 18.0332 55.2 15.2667Z" fill="#D87F0A"/>
        <path d="M44.7999 15.2667C44.7999 18.0332 44.7999 24.1607 44.7999 26.7927C44.7999 29.9135 40.6399 29.9135 40.6399 26.7927C40.6399 23.6719 40.6399 16.566 40.6399 16.566C40.6399 16.566 42.3434 15.8728 44.7999 15.2667Z" fill="#D87F0A"/>
        <path d="M37 37.1333H63" stroke="#D87F0A" stroke-linecap="round"/>
    </g>
</svg>
