<svg width="48" height="64" viewBox="0 0 48 64" fill="none" xmlns="http://www.w3.org/2000/svg">
    <path fill-rule="evenodd" clip-rule="evenodd" d="M47.608 16.3893C47.7307 16.512 47.8293 16.6587 47.896 16.8213C47.9627 16.9813 48 17.1547 48 17.3333V62.6667C48 63.4027 47.4027 64 46.6667 64H1.33333C0.597333 64 0 63.4027 0 62.6667V1.33333C0 0.597333 0.597333 0 1.33333 0H30.6667C30.8453 0 31.0187 0.0373333 31.1787 0.104C31.3413 0.170667 31.488 0.269333 31.6107 0.392L47.608 16.3893ZM43.448 16L32 4.552V16H43.448ZM2.66667 61.3333V2.66667H29.3333V17.3333C29.3333 18.0693 29.9307 18.6667 30.6667 18.6667H45.3333V61.3333H2.66667ZM24 21.3333H12C11.264 21.3333 10.6667 20.736 10.6667 20C10.6667 19.264 11.264 18.6667 12 18.6667H24C24.736 18.6667 25.3333 19.264 25.3333 20C25.3333 20.736 24.736 21.3333 24 21.3333ZM12 26.6667C11.264 26.6667 10.6667 27.264 10.6667 28C10.6667 28.736 11.264 29.3333 12 29.3333H36C36.736 29.3333 37.3333 28.736 37.3333 28C37.3333 27.264 36.736 26.6667 36 26.6667H12ZM10.6667 36C10.6667 35.264 11.264 34.6667 12 34.6667H36C36.736 34.6667 37.3333 35.264 37.3333 36C37.3333 36.736 36.736 37.3333 36 37.3333H12C11.264 37.3333 10.6667 36.736 10.6667 36ZM12 42.6667C11.264 42.6667 10.6667 43.264 10.6667 44C10.6667 44.736 11.264 45.3333 12 45.3333H36C36.736 45.3333 37.3333 44.736 37.3333 44C37.3333 43.264 36.736 42.6667 36 42.6667H12ZM10.6667 52C10.6667 51.264 11.264 50.6667 12 50.6667H36C36.736 50.6667 37.3333 51.264 37.3333 52C37.3333 52.736 36.736 53.3333 36 53.3333H12C11.264 53.3333 10.6667 52.736 10.6667 52Z" fill="#B7B1A9"/>
</svg>
