<svg width="32" height="32" viewBox="0 0 32 32" fill="none" xmlns="http://www.w3.org/2000/svg">
<path fill-rule="evenodd" clip-rule="evenodd" d="M27 21.012C27 22.115 26.103 23.012 25 23.012H7C5.897 23.012 5 22.115 5 21.012V10.012C5 8.90899 5.897 8.01199 7 8.01199H25C26.103 8.01199 27 8.90899 27 10.012V21.012ZM6.05159 9.69467C6.01813 9.79443 6 9.90115 6 10.012V21.012C6 21.563 6.448 22.012 7 22.012H25C25.552 22.012 26 21.563 26 21.012V10.012C26 9.90115 25.9819 9.79443 25.9484 9.69467L16.313 17.403C16.221 17.475 16.11 17.512 16 17.512C15.89 17.512 15.779 17.475 15.687 17.403L6.05159 9.69467ZM6.82157 9.02792C6.87947 9.01746 6.9391 9.01199 7 9.01199H25C25.0615 9.01199 25.1217 9.01757 25.1802 9.02824L16 16.372L6.82157 9.02792Z" fill="#3E3832"/>
</svg>
