<svg width="48" height="48" viewBox="0 0 48 48" fill="none" xmlns="http://www.w3.org/2000/svg">
    <circle cx="24" cy="24" r="24" fill="#FFD399"/>
    <path fill-rule="evenodd" clip-rule="evenodd"
          d="M15 16.0627V12H13V20H21V18H15.9991C17.8247 15.5696 20.7295 14 24 14C29.5229 14 34 18.4772 34 24C34 26.4111 33.148 28.6204 31.7277 30.3474L33.2723 31.6178C34.9762 29.5461 36 26.8913 36 24C36 17.3726 30.6274 12 24 12C20.415 12 17.198 13.5724 15 16.0627ZM28.3753 28.7809L23 24.4806L23 18L25 18L25 23.5194L29.6247 27.2191L28.3753 28.7809ZM12 23V25H14V23H12ZM13 30V28H15V30H13ZM17 34H19V32H17V34ZM25 36H23V34H25V36ZM29 34H31V32H29V34Z"
          fill="#262626"/>
</svg>