<?xml version="1.0" encoding="UTF-8"?>
<svg width="32px" height="32px" viewBox="0 0 32 32" version="1.1" xmlns="http://www.w3.org/2000/svg" xmlns:xlink="http://www.w3.org/1999/xlink">
    <!-- Generator: Sketch 51 (57462) - http://www.bohemiancoding.com/sketch -->
    <title>globe 1</title>
    <desc>Created with Sketch.</desc>
    <defs></defs>
    <g id="Page-1" stroke="none" stroke-width="1" fill="none" fill-rule="evenodd" stroke-linecap="round" stroke-linejoin="round">
        <g id="globe-1" stroke="#3E3832">
            <circle id="Oval" cx="16" cy="16" r="15.3333333"></circle>
            <path d="M27.3333333,5.67466667 C27.3333333,5.67466667 26.6666667,9.33333333 24,10.6666667 C21.3333333,10 18.6666667,12 19.3333333,12 L20.6666667,14.6666667 C21.3333333,15.3333333 22.6666667,14.6666667 22.6666667,14.6666667 C24.3333333,16.3333333 20,19.3333333 20,20 C20,20.6666667 21.6666667,21 20.6666667,22 L18.6666667,23.3333333 C18.6666667,26.6666667 15.3333333,26.6666667 14.6666667,26.6666667 C14,26.6666667 12.6666667,24 12.6666667,23.3333333 C12.6666667,22.6666667 13.3333333,22 13.3333333,21.3333333 L12,19.3333333 C12,16.6666667 10,17.3333333 8,17.3333333 L6,14.6666667 C6,14.6666667 6,10 9.33333333,9.33333333 L12.6666667,10 C14,11.3333333 16.6666667,10 18,10 C18,10 18.6666667,5.33333333 17.3333333,6 C16,6.66666667 14.8053333,6.15066667 14.6666667,4.66666667 C14.472,2.584 20.484,1.33333333 20.484,1.33333333" id="Shape"></path>
        </g>
    </g>
</svg>