<?xml version="1.0" encoding="UTF-8" standalone="no"?>
<svg width="32px" height="32px" viewBox="0 0 32 32" version="1.1" xmlns="http://www.w3.org/2000/svg" xmlns:xlink="http://www.w3.org/1999/xlink">
    <!-- Generator: Sketch 42 (36781) - http://www.bohemiancoding.com/sketch -->
    <title>calendar 2 copy</title>
    <desc>Created with Sketch.</desc>
    <defs></defs>
    <g id="Funksjonell-reise-legge-til-etter-bekreftet" stroke="none" stroke-width="1" fill="none" fill-rule="evenodd">
        <g id="calendar-2-copy" stroke="#000000">
            <g id="Group">
                <polyline id="Shape" points="6 3.33333333 0.666666667 3.33333333 0.666666667 31.3333333 31.3333333 31.3333333 31.3333333 3.33333333 26 3.33333333"></polyline>
                <path d="M6,0.666666667 L10,0.666666667 L10,6 L6,6 L6,0.666666667 Z M22,0.666666667 L26,0.666666667 L26,6 L22,6 L22,0.666666667 Z M10,3.33333333 L22,3.33333333 L10,3.33333333 Z M0.666666667,10 L31.3333333,10 L0.666666667,10 Z M8.66666667,12.6666667 L8.66666667,28.6666667 L8.66666667,12.6666667 Z M15.3333333,12.6666667 L15.3333333,28.6666667 L15.3333333,12.6666667 Z M22,12.6666667 L22,28.6666667 L22,12.6666667 Z M3.33333333,15.3333333 L28.6666667,15.3333333 L3.33333333,15.3333333 Z M3.33333333,20.6666667 L28.6666667,20.6666667 L3.33333333,20.6666667 Z M3.33333333,26 L28.6666667,26 L3.33333333,26 Z" id="Shape"></path>
            </g>
        </g>
    </g>
</svg>