<svg width="62" height="62" viewBox="0 0 62 62" fill="none" xmlns="http://www.w3.org/2000/svg">
    <path fill-rule="evenodd" clip-rule="evenodd" d="M24.32 43.7998H9.52832C9.96864 43.0446 10.24 42.1767 10.24 41.2398V13.0798H51.2V24.5998C51.2 25.3063 51.7734 25.8798 52.48 25.8798C53.1866 25.8798 53.76 25.3063 53.76 24.5998V11.7998C53.76 11.0932 53.1866 10.5198 52.48 10.5198H48.64V6.67979C48.64 5.97323 48.0666 5.39979 47.36 5.39979H15.36V1.55979C15.36 0.853225 14.7866 0.279785 14.08 0.279785H1.28C0.57344 0.279785 0 0.853225 0 1.55979V41.2398C0 44.0635 2.29632 46.3598 5.12 46.3598H24.32C25.0266 46.3598 25.6 45.7863 25.6 45.0798C25.6 44.3732 25.0266 43.7998 24.32 43.7998ZM2.56 41.2398V2.83979H12.8V6.67979C12.8 7.38635 13.3734 7.95979 14.08 7.95979H46.08V10.5198H8.96C8.25344 10.5198 7.68 11.0932 7.68 11.7998V41.2398C7.68 42.6529 6.53056 43.7998 5.12 43.7998C3.70944 43.7998 2.56 42.6529 2.56 41.2398ZM61.1635 59.5847L45.9443 29.1463C45.5091 28.2785 44.0883 28.2785 43.6531 29.1463L28.2931 59.8663C28.0934 60.2631 28.1165 60.7342 28.3494 61.1105C28.5824 61.4868 28.9971 61.7198 29.44 61.7198H60.16H60.2112C60.9178 61.7198 61.4912 61.1463 61.4912 60.4398C61.4912 60.1095 61.3683 59.81 61.1635 59.5847ZM31.511 59.1598L44.8 32.5819L58.089 59.1598H31.511ZM43.52 42.2894V50.6631C43.52 51.3697 44.0934 51.9431 44.8 51.9431C45.5066 51.9431 46.08 51.3697 46.08 50.6631V42.2894C46.08 41.5828 45.5066 41.0094 44.8 41.0094C44.0934 41.0094 43.52 41.5828 43.52 42.2894ZM46.1952 54.8539C46.1952 55.6244 45.5705 56.2491 44.8 56.2491C44.0295 56.2491 43.4048 55.6244 43.4048 54.8539C43.4048 54.0833 44.0295 53.4587 44.8 53.4587C45.5705 53.4587 46.1952 54.0833 46.1952 54.8539Z" fill="#B7B1A9"/>
</svg>
