<svg width="64" height="64" viewBox="0 0 64 64" fill="none" xmlns="http://www.w3.org/2000/svg">
    <path fill-rule="evenodd" clip-rule="evenodd" d="M24 45.3333H9.92533C10.3867 44.5467 10.6667 43.6427 10.6667 42.6667V13.3333H53.3333V24C53.3333 24.736 53.9307 25.3333 54.6667 25.3333C55.4027 25.3333 56 24.736 56 24V12C56 11.264 55.4027 10.6667 54.6667 10.6667H50.6667V6.66667C50.6667 5.93067 50.0693 5.33333 49.3333 5.33333H16V1.33333C16 0.597333 15.4027 0 14.6667 0H1.33333C0.597333 0 0 0.597333 0 1.33333V42.6667C0 45.608 2.392 48 5.33333 48H24C24.736 48 25.3333 47.4027 25.3333 46.6667C25.3333 45.9307 24.736 45.3333 24 45.3333ZM2.66667 42.6667V2.66667H13.3333V6.66667C13.3333 7.40267 13.9307 8 14.6667 8H48V10.6667H9.33333C8.59733 10.6667 8 11.264 8 12V42.6667C8 44.136 6.80533 45.3333 5.33333 45.3333C3.86133 45.3333 2.66667 44.136 2.66667 42.6667ZM29.3333 46.6667C29.3333 37.1093 37.1093 29.3333 46.6667 29.3333C56.224 29.3333 64 37.1093 64 46.6667C64 56.224 56.224 64 46.6667 64C37.1093 64 29.3333 56.224 29.3333 46.6667ZM46.6667 32C38.5813 32 32 38.5787 32 46.6667C32 50.232 33.28 53.5013 35.4053 56.0453L56.0453 35.4027C53.5013 33.28 50.2293 32 46.6667 32ZM46.6667 61.3333C43.1013 61.3333 39.832 60.0533 37.288 57.9307L57.928 37.288C60.0533 39.832 61.3333 43.1013 61.3333 46.6667C61.3333 54.7547 54.752 61.3333 46.6667 61.3333Z" fill="#B7B1A9"/>
</svg>
