<?xml version="1.0" encoding="UTF-8" standalone="no"?>
<svg width="24px" height="20px" viewBox="0 0 24 20" version="1.1" xmlns="http://www.w3.org/2000/svg" xmlns:xlink="http://www.w3.org/1999/xlink">
    <!-- Generator: Sketch 47.1 (45422) - http://www.bohemiancoding.com/sketch -->
    <title>icon/line/ medical box</title>
    <desc>Created with Sketch.</desc>
    <defs></defs>
    <g id="PERSONKORT" stroke="none" stroke-width="1" fill="none" fill-rule="evenodd">
        <g id="Personkort-åpen-fastlege" transform="translate(-56.000000, -270.000000)" fill="#3E3832">
            <g id="icon/line/-medical-box" transform="translate(56.000000, 270.000000)">
                <g id="medical-box">
                    <path d="M16.5,10 L14,10 L14,7.5 C14,7.224 13.776,7 13.5,7 L10.5,7 C10.224,7 10,7.224 10,7.5 L10,10 L7.5,10 C7.224,10 7,10.224 7,10.5 L7,13.5 C7,13.776 7.224,14 7.5,14 L10,14 L10,16.5 C10,16.776 10.224,17 10.5,17 L13.5,17 C13.776,17 14,16.776 14,16.5 L14,14 L16.5,14 C16.776,14 17,13.776 17,13.5 L17,10.5 C17,10.224 16.776,10 16.5,10 Z M16,13 L13.5,13 C13.224,13 13,13.224 13,13.5 L13,16 L11,16 L11,13.5 C11,13.224 10.776,13 10.5,13 L8,13 L8,11 L10.5,11 C10.776,11 11,10.776 11,10.5 L11,8 L13,8 L13,10.5 C13,10.776 13.224,11 13.5,11 L16,11 L16,13 Z" id="Shape" fill-rule="nonzero"></path>
                    <path d="M21.5,3 L16,3 L16,2 C16,0.897 15.103,0 14,0 L10,0 C8.897,0 8,0.897 8,2 L8,3 L2.5,3 C1.121,3 0,4.122 0,5.5 L0,17.5 C0,18.878 1.121,20 2.5,20 L21.5,20 C22.879,20 24,18.878 24,17.5 L24,5.5 C24,4.122 22.879,3 21.5,3 Z M9,2 C9,1.449 9.448,1 10,1 L14,1 C14.552,1 15,1.449 15,2 L15,3 L9,3 L9,2 Z M23,17.5 C23,18.327 22.327,19 21.5,19 L2.5,19 C1.673,19 1,18.327 1,17.5 L1,5.5 C1,4.673 1.673,4 2.5,4 L21.5,4 C22.327,4 23,4.673 23,5.5 L23,17.5 Z" id="Shape" fill-rule="nonzero"></path>
                </g>
            </g>
        </g>
    </g>
</svg>