<?xml version="1.0" encoding="UTF-8" standalone="no"?>
<svg width="24px" height="20px" viewBox="0 0 24 20" version="1.1" xmlns="http://www.w3.org/2000/svg" xmlns:xlink="http://www.w3.org/1999/xlink">
<!-- Generator: Sketch 47.1 (45422) - http://www.bohemiancoding.com/sketch -->
<title>icon/line/ medical box copy</title>
<desc>Created with Sketch.</desc>
<defs></defs>
<g id="PERSONKORT" stroke="none" stroke-width="1" fill="none" fill-rule="evenodd">
    <g id="Personkort-åpen-fastlege" transform="translate(-496.000000, -270.000000)" fill="#3E3832">
        <g id="icon/line/-calendar-1" transform="translate(496.000000, 270.000000)">
            <g id="calendar-1">
                <path d="M23.5,1.66666667 L20,1.66666667 L20,0.416666667 C20,0.186666667 19.776,0 19.5,0 L16.5,0 C16.224,0 16,0.186666667 16,0.416666667 L16,1.66666667 L8,1.66666667 L8,0.416666667 C8,0.186666667 7.776,0 7.5,0 L4.5,0 C4.224,0 4,0.186666667 4,0.416666667 L4,1.66666667 L0.5,1.66666667 C0.224,1.66666667 0,1.85333333 0,2.08333333 L0,19.5833333 C0,19.8133333 0.224,20 0.5,20 L23.5,20 C23.776,20 24,19.8133333 24,19.5833333 L24,2.08333333 C24,1.85333333 23.776,1.66666667 23.5,1.66666667 Z M17,0.833333333 L19,0.833333333 L19,3.33333333 L17,3.33333333 L17,0.833333333 Z M5,0.833333333 L7,0.833333333 L7,3.33333333 L5,3.33333333 L5,0.833333333 Z M4,2.5 L4,3.75 C4,3.98 4.224,4.16666667 4.5,4.16666667 L7.5,4.16666667 C7.776,4.16666667 8,3.98 8,3.75 L8,2.5 L16,2.5 L16,3.75 C16,3.98 16.224,4.16666667 16.5,4.16666667 L19.5,4.16666667 C19.776,4.16666667 20,3.98 20,3.75 L20,2.5 L23,2.5 L23,5.83333333 L1,5.83333333 L1,2.5 L4,2.5 Z M1,19.1666667 L1,6.66666667 L23,6.66666667 L23,19.1666667 L1,19.1666667 Z" id="Shape" fill-rule="nonzero"></path>
            </g>
        </g>
    </g>
</g>
</svg>