<svg width="48" height="48" viewBox="0 0 48 48" fill="none" xmlns="http://www.w3.org/2000/svg">
    <circle cx="24" cy="24" r="24" fill="#C2EAF7"/>
    <path fill-rule="evenodd" clip-rule="evenodd" d="M18 19V17H14L14 22H34V17H30V19C30 19.5523 29.5523 20 29 20C28.4477 20 28 19.5523 28 19V17H20V19C20 19.5523 19.5523 20 19 20C18.4477 20 18 19.5523 18 19ZM28 15H20V13C20 12.4477 19.5523 12 19 12C18.4477 12 18 12.4477 18 13V15H14C12.8954 15 12 15.8954 12 17V34C12 35.1046 12.8954 36 14 36H34C35.1046 36 36 35.1046 36 34V17C36 15.8954 35.1046 15 34 15H30V13C30 12.4477 29.5523 12 29 12C28.4477 12 28 12.4477 28 13V15ZM14 24L14 34H34V24H14ZM20 27C20 26.4477 19.5523 26 19 26L17 26C16.4477 26 16 26.4477 16 27C16 27.5523 16.4477 28 17 28L19 28C19.5523 28 20 27.5523 20 27ZM19 30C19.5523 30 20 30.4477 20 31C20 31.5523 19.5523 32 19 32H17C16.4477 32 16 31.5523 16 31C16 30.4477 16.4477 30 17 30H19ZM25 26L23 26C22.4477 26 22 26.4477 22 27C22 27.5523 22.4477 28 23 28L25 28C25.5523 28 26 27.5523 26 27C26 26.4477 25.5523 26 25 26ZM23 30H25C25.5523 30 26 30.4477 26 31C26 31.5523 25.5523 32 25 32H23C22.4477 32 22 31.5523 22 31C22 30.4477 22.4477 30 23 30ZM32 27C32 26.4477 31.5523 26 31 26L29 26C28.4477 26 28 26.4477 28 27C28 27.5523 28.4477 28 29 28L31 28C31.5523 28 32 27.5523 32 27ZM28 31C28 30.4477 28.4477 30 29 30H31C31.5523 30 32 30.4477 32 31C32 31.5523 31.5523 32 31 32H29C28.4477 32 28 31.5523 28 31Z" fill="#262626"/>
</svg>
