<svg width="32" height="32" fill="none" xmlns="http://www.w3.org/2000/svg"><path fill-rule="evenodd" clip-rule="evenodd" d="M16 32c8.837 0 16-7.163 16-16S24.837 0 16 0 0 7.163 0 16s7.163 16 16 16Z" fill="#C9C9C9"/><path fill-rule="evenodd" clip-rule="evenodd" d="M18.303 4.304a2.304 2.304 0 1 1-4.605.001 2.304 2.304 0 0 1 4.605-.001ZM22 17.687c0 .518-.461.936-1.03.936-.57 0-1.033-.418-1.033-.936v-5.322a.438.438 0 0 0-.437-.439.46.46 0 0 0-.444.439v16.927a1.31 1.31 0 1 1-2.622 0V18.561a.434.434 0 0 0-.867 0v10.73a1.312 1.312 0 1 1-2.622 0V12.365a.46.46 0 0 0-.444-.438.438.438 0 0 0-.437.437v5.323c0 .518-.462.936-1.032.936-.57 0-1.031-.418-1.031-.936V10.85c0-2.014 2.145-3.482 4.131-3.593 1.246-.013 2.492-.008 3.738 0C19.854 7.367 22 8.836 22 10.85c-.03 2.278-.001 4.558-.001 6.837Z" fill="#7D4C00"/><path fill-rule="evenodd" clip-rule="evenodd" d="M16 10a1 1 0 1 0 0-2 1 1 0 0 0 0 2Zm0 3a1 1 0 1 0 0-2 1 1 0 0 0 0 2Zm1 2a1 1 0 1 1-2 0 1 1 0 0 1 2 0Z" fill="#fff"/></svg>