<svg width="32" height="32" fill="none" xmlns="http://www.w3.org/2000/svg"><path fill-rule="evenodd" clip-rule="evenodd" d="M0 16c0 8.836 7.164 16 16 16 8.837 0 16-7.163 16-16 0-8.836-7.164-16-16-16S0 7.164 0 16Z" fill="#C9C9C9"/><path fill-rule="evenodd" clip-rule="evenodd" d="M15.999 2a2.34 2.34 0 0 0 0 4.683 2.342 2.342 0 1 0 0-4.683Zm-5.274 7.476c-.028.053-2.48 7.553-2.48 7.553-.18.575.143 1.18.723 1.35a1.122 1.122 0 0 0 1.313-.577l1.767-5.552a.537.537 0 0 1 .666-.343.509.509 0 0 1 .364.563c.006.009-1.878 5.963-2.694 8.544l-.32 1.009h2.874v6.804c0 .701.588 1.27 1.313 1.27.727 0 1.315-.568 1.315-1.27V22.023h.868v6.803c0 .702.59 1.271 1.315 1.271.726 0 1.314-.569 1.314-1.271v-6.803h2.873c-.4-1.267-3.02-9.544-3.013-9.553a.51.51 0 0 1 .364-.564c.282-.083.58.07.666.343l1.767 5.552c.235.476.79.73 1.313.577.58-.17.903-.775.721-1.35 0 0-2.451-7.498-2.48-7.552-.663-2.006-2.332-2.01-3.875-2.013H14.6c-1.541.004-3.211.007-3.875 2.013Z" fill="#7D4C00"/><path fill-rule="evenodd" clip-rule="evenodd" d="M16 11a1 1 0 1 0 0-2 1 1 0 0 0 0 2ZM13.373 12.255a.5.5 0 0 0-.488.873l1.25.698a.5.5 0 0 0 .442.023l1.425-.614 1.465.616a.5.5 0 0 0 .45-.032l1.171-.698a.5.5 0 0 0-.512-.859l-.954.569-1.428-.6a.5.5 0 0 0-.392.001l-1.394.601-1.035-.578Zm5.101 2.587a.5.5 0 1 0-.948.316l2 6a.5.5 0 1 0 .948-.316l-2-6Zm-4.316-.316a.5.5 0 0 1 .316.632l-2 6a.5.5 0 1 1-.948-.316l2-6a.5.5 0 0 1 .632-.316ZM16.5 15a.5.5 0 1 0-1 0v6a.5.5 0 0 0 1 0v-6Z" fill="#fff"/></svg>