<?xml version="1.0" encoding="UTF-8"?>
<svg width="30px" height="30px" viewBox="0 0 30 30" version="1.1" xmlns="http://www.w3.org/2000/svg" xmlns:xlink="http://www.w3.org/1999/xlink">
    <!-- Generator: Sketch 41.2 (35397) - http://www.bohemiancoding.com/sketch -->
    <title>PLASTER</title>
    <desc>Created with Sketch.</desc>
    <defs></defs>
    <g id="Symbols" stroke="none" stroke-width="1" fill="none" fill-rule="evenodd">
        <g id="Informasjon-om-sykmeldingen" transform="translate(-16.000000, -13.000000)">
            <g id="Group-2">
                <g id="PLASTER" transform="translate(16.000000, 13.000000)">
                    <path d="M12.362,2.639125 C9.67825,-0.044625 5.3245,-0.044625 2.6395,2.639125 C-0.048,5.326625 -0.0455,9.680375 2.6395,12.362875 L17.6395,27.362875 C20.32325,30.047875 24.677,30.045375 27.362,27.361625 C30.047,24.680375 30.047,20.322875 27.362,17.640375 L12.362,2.639125 L12.362,2.639125 Z" id="Stroke-7122" stroke="#3E3832" stroke-linecap="round" stroke-linejoin="round"></path>
                    <polygon id="Stroke-7123" stroke="#3E3832" stroke-linecap="round" stroke-linejoin="round" points="22.955375 13.233625 13.234125 22.957375 7.045375 16.768625 16.770375 7.044875"></polygon>
                    <path d="M5.278375,9.95725 C5.118375,9.95725 4.958375,10.0185 4.835875,10.13975 C4.592125,10.38475 4.592125,10.77975 4.835875,11.02475 C4.958375,11.146 5.118375,11.20725 5.278375,11.20725 C5.438375,11.20725 5.598375,11.146 5.720875,11.02475 C5.965875,10.77975 5.965875,10.38475 5.720875,10.13975 C5.598375,10.0185 5.438375,9.95725 5.278375,9.95725" id="Fill-7124" fill="#000000"></path>
                    <path d="M7.92975,7.304625 C7.76975,7.304625 7.60975,7.365875 7.48725,7.488375 C7.2435,7.730875 7.2435,8.128375 7.48725,8.372125 C7.60975,8.494625 7.76975,8.555875 7.92975,8.555875 C8.08975,8.555875 8.24975,8.494625 8.371,8.372125 C8.616,8.128375 8.616,7.730875 8.371,7.488375 C8.24975,7.365875 8.08975,7.304625 7.92975,7.304625" id="Fill-7125" fill="#000000"></path>
                    <path d="M4.836375,6.86275 C4.676375,6.86275 4.516375,6.92275 4.393875,7.04525 C4.150125,7.289 4.150125,7.684 4.393875,7.93025 C4.516375,8.05275 4.676375,8.114 4.836375,8.114 C4.996375,8.114 5.156375,8.05275 5.278875,7.93025 C5.523875,7.684 5.523875,7.289 5.278875,7.04525 C5.156375,6.92275 4.996375,6.86275 4.836375,6.86275" id="Fill-7126" fill="#000000"></path>
                    <path d="M7.48775,4.212625 C7.32775,4.212625 7.16775,4.273875 7.04525,4.395125 C6.8015,4.638875 6.8015,5.033875 7.04525,5.277625 C7.16775,5.401375 7.32775,5.462625 7.48775,5.462625 C7.64775,5.462625 7.80775,5.401375 7.93025,5.277625 C8.174,5.033875 8.174,4.638875 7.93025,4.395125 C7.80775,4.273875 7.64775,4.212625 7.48775,4.212625" id="Fill-7127" fill="#000000"></path>
                    <path d="M8.371625,10.39675 C8.211625,10.39675 8.051625,10.4605 7.930375,10.58175 C7.685375,10.82675 7.685375,11.22175 7.930375,11.4655 C8.051625,11.588 8.211625,11.64925 8.371625,11.64925 C8.531625,11.64925 8.691625,11.588 8.814125,11.4655 C9.057875,11.22175 9.057875,10.82675 8.814125,10.58175 C8.691625,10.4605 8.531625,10.39675 8.371625,10.39675" id="Fill-7128" fill="#000000"></path>
                    <path d="M11.023,7.74775 C10.863,7.74775 10.703,7.809 10.5805,7.93025 C10.33675,8.17525 10.33675,8.569 10.5805,8.81275 C10.703,8.9365 10.863,8.99775 11.023,8.99775 C11.183,8.99775 11.343,8.9365 11.4655,8.81275 C11.7105,8.569 11.7105,8.17525 11.4655,7.93025 C11.343,7.809 11.183,7.74775 11.023,7.74775" id="Fill-7129" fill="#000000"></path>
                    <path d="M10.581,4.652125 C10.421,4.652125 10.261,4.713375 10.1385,4.834625 C9.89475,5.082125 9.89475,5.477125 10.1385,5.720875 C10.261,5.843375 10.421,5.904625 10.581,5.904625 C10.741,5.904625 10.901,5.843375 11.0235,5.720875 C11.26725,5.477125 11.26725,5.082125 11.0235,4.834625 C10.901,4.713375 10.741,4.652125 10.581,4.652125" id="Fill-7130" fill="#000000"></path>
                    <path d="M19.420125,24.100375 C19.260125,24.100375 19.100125,24.160375 18.977625,24.282875 C18.733875,24.525375 18.733875,24.920375 18.977625,25.167875 C19.100125,25.289125 19.260125,25.347875 19.420125,25.347875 C19.580125,25.347875 19.740125,25.289125 19.862625,25.167875 C20.106375,24.920375 20.106375,24.525375 19.862625,24.282875 C19.740125,24.160375 19.580125,24.100375 19.420125,24.100375" id="Fill-7131" fill="#000000"></path>
                    <path d="M22.0715,21.4465 C21.9115,21.4465 21.7515,21.509 21.63025,21.629 C21.384,21.874 21.384,22.269 21.63025,22.514 C21.7515,22.6365 21.9115,22.69775 22.0715,22.69775 C22.2315,22.69775 22.3915,22.6365 22.514,22.514 C22.75775,22.269 22.75775,21.874 22.514,21.629 C22.3915,21.509 22.2315,21.4465 22.0715,21.4465" id="Fill-7132" fill="#000000"></path>
                    <path d="M22.513375,24.53975 C22.353375,24.53975 22.193375,24.601 22.070875,24.72225 C21.827125,24.96975 21.827125,25.36475 22.070875,25.60725 C22.193375,25.7285 22.353375,25.78975 22.513375,25.78975 C22.673375,25.78975 22.833375,25.7285 22.955875,25.60725 C23.200875,25.36475 23.200875,24.96975 22.955875,24.72225 C22.833375,24.601 22.673375,24.53975 22.513375,24.53975" id="Fill-7133" fill="#3E3832"></path>
                    <path d="M25.166,21.889625 C25.006,21.889625 24.846,21.950875 24.72475,22.072125 C24.47975,22.315875 24.47975,22.710875 24.72475,22.957125 C24.846,23.078375 25.006,23.139625 25.166,23.139625 C25.326,23.139625 25.486,23.078375 25.6085,22.957125 C25.85225,22.710875 25.85225,22.315875 25.6085,22.072125 C25.486,21.950875 25.326,21.889625 25.166,21.889625" id="Fill-7134" fill="#3E3832"></path>
                    <path d="M18.97825,21.004625 C18.81825,21.004625 18.65825,21.065875 18.537,21.187125 C18.292,21.432125 18.292,21.828375 18.537,22.072125 C18.65825,22.193375 18.81825,22.254625 18.97825,22.254625 C19.13825,22.254625 19.29825,22.193375 19.42075,22.072125 C19.6645,21.828375 19.6645,21.432125 19.42075,21.187125 C19.29825,21.065875 19.13825,21.004625 18.97825,21.004625" id="Fill-7135" fill="#3E3832"></path>
                    <path d="M21.629625,18.35325 C21.469625,18.35325 21.309625,18.4145 21.187125,18.53575 C20.943375,18.782 20.943375,19.17575 21.187125,19.42075 C21.309625,19.542 21.469625,19.60325 21.629625,19.60325 C21.789625,19.60325 21.949625,19.542 22.070875,19.42075 C22.317125,19.17575 22.317125,18.782 22.070875,18.53575 C21.949625,18.4145 21.789625,18.35325 21.629625,18.35325" id="Fill-7136" fill="#3E3832"></path>
                    <path d="M24.724125,18.795125 C24.564125,18.795125 24.404125,18.856375 24.281625,18.977625 C24.037875,19.222625 24.037875,19.617625 24.281625,19.862625 C24.404125,19.983875 24.564125,20.045125 24.724125,20.045125 C24.884125,20.045125 25.042875,19.983875 25.164125,19.862625 C25.410375,19.617625 25.410375,19.222625 25.164125,18.977625 C25.042875,18.856375 24.884125,18.795125 24.724125,18.795125" id="Fill-7137" fill="#3E3832"></path>
                </g>
            </g>
        </g>
    </g>
</svg>