<?xml version="1.0" encoding="UTF-8"?>
<svg width="32px" height="32px" viewBox="0 0 32 32" version="1.1" xmlns="http://www.w3.org/2000/svg">
    <!-- Generator: Sketch 41.2 (35397) - http://www.bohemiancoding.com/sketch -->
    <title>Sykmeldinger hover</title>
    <desc>Created with Sketch.</desc>
    <defs></defs>
    <g id="Page-1" stroke="none" stroke-width="1" fill="none" fill-rule="evenodd">
        <g id="Sykmeldinger-hover" fill="#0067C5">
            <g id="Filled_Version">
                <g id="Group">
                    <path d="M13.7282065,2.52366452 C10.7436169,-0.679843578 5.72717261,-0.857312126 2.52366452,2.12727742 C-0.679843578,5.11186696 -0.857312126,10.1283113 2.12727742,13.3318194 L2.52366452,13.7282065 L6.71215484,17.9166968 L17.9166968,6.71215484 L13.7282065,2.52366452 Z M4.84913548,7.65027097 C5.10768855,7.39382942 5.52500028,7.39497009 5.78214759,7.65282124 C6.0392949,7.91067239 6.0392949,8.32798568 5.78214759,8.58583683 C5.52500028,8.84368798 5.10768855,8.84482865 4.84913548,8.5883871 C4.724067,8.46434 4.65371775,8.29548183 4.65371775,8.11932903 C4.65371775,7.94317623 4.724067,7.77431806 4.84913548,7.65027097 L4.84913548,7.65027097 Z M6.23649032,11.8519742 C6.1248302,11.9973499 5.95677773,12.0885784 5.77403871,12.1030194 C5.4480729,12.1371671 5.14337078,11.9363233 5.04624483,11.6232957 C4.94911889,11.310268 5.08661409,10.9722197 5.37465792,10.815853 C5.66270174,10.6594864 6.02108768,10.7283421 6.23067784,10.9803177 C6.440268,11.2322934 6.44270149,11.5972258 6.23649032,11.8519742 Z M7.63705806,4.84913548 C7.76110516,4.724067 7.92996333,4.65371775 8.10611613,4.65371775 C8.28226893,4.65371775 8.4511271,4.724067 8.57517419,4.84913548 L8.57517419,4.84913548 C8.70024268,4.97318258 8.77059193,5.14204075 8.77059193,5.31819355 C8.77059193,5.49434635 8.70024268,5.66320452 8.57517419,5.78725161 L8.57517419,5.78725161 C8.4511271,5.9123201 8.28226893,5.98266934 8.10611613,5.98266934 C7.92996333,5.98266934 7.76110516,5.9123201 7.63705806,5.78725161 L7.63705806,5.78725161 C7.51198958,5.66320452 7.44164033,5.49434635 7.44164033,5.31819355 C7.44164033,5.14204075 7.51198958,4.97318258 7.63705806,4.84913548 L7.63705806,4.84913548 Z M8.12593548,8.13914839 C8.3849891,7.88009477 8.804998,7.88009477 9.06405161,8.13914839 C9.32310523,8.398202 9.32310523,8.8182109 9.06405161,9.07726452 C8.94292485,9.20297351 8.77616635,9.27444144 8.6016,9.27545806 C8.32903306,9.2826529 8.08004626,9.1216577 7.97476113,8.8701432 C7.86947599,8.61862871 7.92952398,8.32827011 8.12593548,8.13914839 L8.12593548,8.13914839 Z M9.51329032,12.3144258 C9.29313846,12.5427687 8.94177617,12.5824268 8.67626552,12.4089004 C8.41075487,12.2353739 8.30603843,11.8976423 8.42680715,11.6043468 C8.54757588,11.3110513 8.85974182,11.1449771 9.17045734,11.2087202 C9.48117286,11.2724634 9.70273595,11.5480319 9.69827097,11.8651871 C9.69590856,12.0329929 9.62977202,12.1936103 9.51329032,12.3144258 Z M10.9138581,5.3115871 C11.1724111,5.05514555 11.5897229,5.05628621 11.8468702,5.31413736 C12.1040175,5.57198852 12.1040175,5.98930181 11.8468702,6.24715296 C11.5897229,6.50500411 11.1724111,6.50614478 10.9138581,6.24970323 C10.7887896,6.12565613 10.7184403,5.95679796 10.7184403,5.78064516 C10.7184403,5.60449236 10.7887896,5.43563419 10.9138581,5.3115871 L10.9138581,5.3115871 Z M12.3144258,9.46043871 C12.1903787,9.5855072 12.0215205,9.65585644 11.8453677,9.65585644 C11.6692149,9.65585644 11.5003568,9.5855072 11.3763097,9.46043871 L11.3763097,9.46043871 C11.1198681,9.20188565 11.1210088,8.78457391 11.3788599,8.5274266 C11.6367111,8.27027929 12.0540244,8.27027929 12.3118755,8.5274266 C12.5697267,8.78457391 12.5708674,9.20188565 12.3144258,9.46043871 L12.3144258,9.46043871 Z" id="Shape"></path>
                    <path d="M29.5836903,18.3791484 L25.3952,14.1906581 L14.1906581,25.3952 L18.3791484,29.5836903 C19.8622958,31.0757025 21.8776613,31.9170225 23.9814194,31.9223742 L23.9814194,31.9223742 C27.1915349,31.9249066 30.0863356,29.9913221 31.3133886,27.0249794 C32.5404416,24.0586366 31.8575239,20.6450983 29.5836903,18.3791484 L29.5836903,18.3791484 Z M19.792929,22.6733419 C20.0130809,22.444999 20.3644432,22.4053409 20.6299538,22.5788674 C20.8954645,22.7523938 21.0001809,23.0901255 20.8794122,23.383421 C20.7586435,23.6767164 20.4464775,23.8427907 20.135762,23.7790475 C19.8250465,23.7153043 19.6034834,23.4397358 19.6079484,23.1225806 C19.6103108,22.9547748 19.6764473,22.7941575 19.792929,22.6733419 L19.792929,22.6733419 Z M21.1934968,26.8750452 C21.0694497,27.0001136 20.9005915,27.0704629 20.7244387,27.0704629 C20.5482859,27.0704629 20.3794277,27.0001136 20.2553806,26.8750452 L20.2553806,26.8750452 C19.9823329,26.6347452 19.9548887,26.218936 20.1939849,25.9448335 C20.4330811,25.670731 20.8487655,25.6414575 21.1239174,25.8793453 C21.3990693,26.1172331 21.4301716,26.5327847 21.1934968,26.8089806 L21.1934968,26.8750452 Z M22.5940645,19.8722065 C22.8526176,19.6157649 23.2699293,19.6169056 23.5270766,19.8747567 C23.7842239,20.1326079 23.7842239,20.5499212 23.5270766,20.8077723 C23.2699293,21.0656235 22.8526176,21.0667641 22.5940645,20.8103226 C22.468996,20.6862755 22.3986468,20.5174173 22.3986468,20.3412645 C22.3986468,20.1651117 22.468996,19.9962535 22.5940645,19.8722065 L22.5940645,19.8722065 Z M23.0565161,23.069729 C23.3150692,22.8132875 23.7323809,22.8144281 23.9895282,23.0722793 C24.2466755,23.3301305 24.2466755,23.7474437 23.9895282,24.0052949 C23.7323809,24.263146 23.3150692,24.2642867 23.0565161,24.0078452 C22.9314476,23.8837981 22.8610984,23.7149399 22.8610984,23.5387871 C22.8610984,23.3626343 22.9314476,23.1937761 23.0565161,23.069729 L23.0565161,23.069729 Z M24.4570839,27.2714323 C24.1985308,27.5278738 23.7812191,27.5267331 23.5240718,27.268882 C23.2669245,27.0110308 23.2669245,26.5937175 23.5240718,26.3358664 C23.7812191,26.0780152 24.1985308,26.0768746 24.4570839,26.3333161 L24.4570839,26.3333161 C24.7073216,26.5856996 24.7073216,26.992623 24.4570839,27.2450065 L24.4570839,27.2450065 L24.4570839,27.2714323 Z M25.8576516,20.2685935 C26.0525796,20.0085334 26.4053569,19.9246616 26.6964692,20.0691671 C26.9875814,20.2136726 27.134071,20.545376 27.0447853,20.857876 C26.9554996,21.170376 26.6558821,21.3746202 26.3323688,21.3435184 C26.0088555,21.3124166 25.7536372,21.0548318 25.7255226,20.7310452 C25.7098965,20.5657687 25.7570683,20.4006673 25.8576516,20.2685935 L25.8576516,20.2685935 L25.8576516,20.2685935 Z M27.2582194,24.4702968 C27.037224,24.6831844 26.6971381,24.7116953 26.443782,24.5385745 C26.1904259,24.3654537 26.0933977,24.0382583 26.2114189,23.7550073 C26.3294402,23.4717564 26.6300899,23.3102602 26.9314146,23.3682563 C27.2327392,23.4262525 27.4519636,23.6878093 27.4564129,23.9946323 C27.4539308,24.1688901 27.3826943,24.3351087 27.2582194,24.4570839 L27.2582194,24.4570839 L27.2582194,24.4702968 Z" id="Shape"></path>
                    <rect id="Rectangle-path" transform="translate(15.909079, 16.206370) rotate(-45.000000) translate(-15.909079, -16.206370) " x="7.9813371" y="12.2424994" width="15.8554839" height="7.92774194"></rect>
                </g>
            </g>
        </g>
    </g>
</svg>