<svg width="48" height="48" viewBox="0 0 48 48" fill="none" xmlns="http://www.w3.org/2000/svg">
    <circle cx="24" cy="24" r="24" fill="#C2EAF7"/>
    <path fill-rule="evenodd" clip-rule="evenodd" d="M12 16C12 13.7909 13.7909 12 16 12H32C34.2091 12 36 13.7909 36 16V27C36 29.2091 34.2091 31 32 31H19L12 36V16ZM33.9945 15.8507C33.9182 14.8159 33.0544 14 32 14L15.8507 14.0055C14.8159 14.0818 14 14.9456 14 16V32L18 29H32C33.0349 28.9237 34 28.0544 34 27L33.9945 15.8507ZM22.5 25.5C22.5 24.6716 23.1716 24 24 24C24.8284 24 25.5 24.6716 25.5 25.5C25.5 26.3284 24.8284 27 24 27C23.1716 27 22.5 26.3284 22.5 25.5ZM23 16H25V22H23V16Z" fill="#262626"/>
</svg>
