<?xml version="1.0" encoding="UTF-8"?>
<svg width="32px" height="32px" viewBox="0 0 32 32" version="1.1" xmlns="http://www.w3.org/2000/svg" xmlns:xlink="http://www.w3.org/1999/xlink">
    <!-- Generator: Sketch 44.1 (41455) - http://www.bohemiancoding.com/sketch -->
    <title>report problem circle</title>
    <desc>Created with Sketch.</desc>
    <defs></defs>
    <g id="Oversiktsside-søknader" stroke="none" stroke-width="1" fill="none" fill-rule="evenodd">
        <g id="Sendt-+-korrigering-sendt" transform="translate(-221.000000, -377.000000)" fill-rule="nonzero" fill="#FF9100">
            <g id="report-problem-circle" transform="translate(221.000000, 377.000000)">
                <path d="M16.2726957,0.338580645 L15.9874783,0.341333333 C11.7022609,0.415655914 7.66886957,2.1292043 4.63165217,5.1667957 C1.57217391,8.2264086 -0.0709565217,12.2315699 0.0027826087,16.4459355 C0.155826087,25.167828 7.06365217,32 15.7286957,32 L16.0111304,31.9972473 C24.9794783,31.8444731 32.1516522,24.6186667 31.9972174,15.8940215 C31.8441739,7.17212903 24.9363478,0.338580645 16.2726957,0.338580645 Z M15.3043478,8.59664516 C15.3043478,8.21677419 15.616,7.90847312 16,7.90847312 C16.3826087,7.90847312 16.6956522,8.21677419 16.6956522,8.59664516 L16.6956522,18.2310538 C16.6956522,18.6109247 16.3826087,18.9192258 16,18.9192258 C15.616,18.9192258 15.3043478,18.6109247 15.3043478,18.2310538 L15.3043478,8.59664516 Z M16.0250435,24.4246022 C16.0166957,24.4246022 16.0083478,24.4246022 16,24.4246022 C15.2417391,24.4246022 14.6212174,23.8245161 14.6086957,23.0730323 C14.5947826,22.3132903 15.2069565,21.6856774 15.9749565,21.6732903 C15.9833043,21.6732903 15.9916522,21.671914 16,21.671914 C16.7582609,21.671914 17.3773913,22.2733763 17.3913043,23.0248602 C17.4052174,23.7846022 16.7916522,24.4108387 16.0250435,24.4246022 Z" id="Shape"></path>
            </g>
        </g>
    </g>
</svg>