<?xml version="1.0" encoding="utf-8"?>
<!-- Generator: Adobe Illustrator 19.1.0, SVG Export Plug-In . SVG Version: 6.00 Build 0)  -->
<svg version="1.1" id="Layer_1" xmlns="http://www.w3.org/2000/svg" xmlns:xlink="http://www.w3.org/1999/xlink" x="0px" y="0px"
	 width="244.3px" height="115.6px" viewBox="0 0 244.3 115.6" style="enable-background:new 0 0 244.3 115.6;" xml:space="preserve"
	>
<style type="text/css">
	.st0{fill:#505557;}
	.st1{fill:#E57E65;}
	.st2{fill:#581F56;}
	.st3{fill:#EDEAE8;}
	.st4{fill:#6EA9C8;}
	.st5{fill:none;stroke:#C3B09B;stroke-width:0.8336;stroke-miterlimit:10;}
	.st6{fill:none;stroke:#E57E65;stroke-width:0.4168;stroke-linecap:round;stroke-miterlimit:10;}
	.st7{fill:#CD1719;}
	.st8{fill:#FFFFFF;}
	.st9{fill:#C42229;}
	.st10{fill:#5B2052;}
	.st11{fill:#86497E;}
	.st12{fill:#AAB1B9;}
	.st13{fill:#4F6573;}
	.st14{fill:#959BA5;}
	.st15{fill:#E6E5E2;}
	.st16{fill:none;}
	.st17{fill:#818586;}
	.st18{fill:#BABBBB;}
	.st19{fill:#BFBFBD;}
	.st20{fill:#4C4F50;}
	.st21{fill:#83C455;}
	.st22{fill:#9EAB37;}
	.st23{fill:#CBBBA0;}
	.st24{fill:none;stroke:#CBBBA0;stroke-width:0.4412;stroke-linecap:round;stroke-miterlimit:10;}
	.st25{fill:none;stroke:#FFFFFF;stroke-width:0.8823;stroke-miterlimit:10;}
</style>
<rect y="85.8" class="st0" width="244.3" height="4.5"/>
<g>
	<g>
		<path class="st1" d="M215.9,25.9c0,14.3-10.3,25.9-23.1,25.9c-12.7,0-23.1-11.6-23.1-25.9S180.1,0,192.8,0
			C205.5,0,215.9,11.6,215.9,25.9"/>
		<path class="st1" d="M169.7,25.9c0,12.2-6.3,19.2-6.3,19.2s6.2,7.6,29.4,7.6s-0.7-26.9-0.7-26.9H169.7z"/>
		<path class="st1" d="M215.9,25.9c0,12.2,6.3,19.2,6.3,19.2s-6.2,7.6-29.4,7.6s0.7-26.9,0.7-26.9H215.9z"/>
		<path class="st2" d="M179.6,45.7c-4.9,3.7-10.6,10.4-10.6,16.7v24.3c0,0,32.1,0,42.6,0c10.5,0,7.5-24.3,7.5-24.3
			c0-6.3-5.8-12.9-10.9-16.6c-2.4-1.8-9.1-4.7-15.1-4.7C188.3,41,184.6,41.9,179.6,45.7z"/>
		<path class="st3" d="M199.6,42.4c-0.8,0-6.8,2.5-6.8,2.5s-7-2-7.5-2.1c-0.5-0.1-5,2.4-5,2.4c1,1.4,11.6,19,11.6,19h1.8
			c0,0,10.9-17.8,11.8-19.2C205.6,45,200.4,42.4,199.6,42.4"/>
		<path class="st3" d="M199.7,42.3c-0.8,0-6.8,2.6-6.8,2.6s-7-2-7.6-2.1c-0.5-0.1-5,2.4-5,2.4c1,1.4,11.7,19.1,11.7,19.1h1.8
			c0,0,10.9-17.9,11.9-19.3C205.6,44.9,200.5,42.3,199.7,42.3"/>
		<path class="st3" d="M211.7,29.1C211.7,29.1,211.7,29.1,211.7,29.1C211.7,29.1,211.7,29.1,211.7,29.1c-1.2-0.9-3-0.3-3-0.3l0,0
			c-0.1-0.2-3.5-7.7-6.1-15.3c-8.2,6.5-24.8,3.7-28.2,7.2c0,0.3,0,0.7,0,1.2c0,0.9,0,4.3,0,4.3s-0.9,0.3-1,1.2
			c-0.3,1.4,0.1,2.4,1.5,3.3c0.1,0.3,0.1,0.7,0.2,1.1c0.5,3.6,1.6,7.3,5,9.9c1.4,1.1,3.3,1.6,3.2,2.1c-0.9,0.3-3,1.5-3,1.5
			s4.1,8.1,13,8.1c0,0,0,0,0,0l0,0c8.9,0,12.3-8.3,12.3-8.3s-2.3-1.5-2.1-2.5c0.2-1,3.9-5.9,3.9-5.9s2.8-1.1,4.3-2.4
			C213.2,32.8,212.9,29.9,211.7,29.1z"/>
		<path class="st4" d="M193.2,22.4c1.4,0.1,1.4,2.2,0.8,3.4c-0.6,1.2-1.9,1.8-2.5,0.6S191.6,22.2,193.2,22.4z"/>
		<path class="st5" d="M184.4,35.2c0,0-1.8,1.6-3.6,0.9c-1.6-0.6-1.4-2.2-1.4-2.2"/>
		<path class="st4" d="M176.6,22c1.1-0.2,1.1,1.1,1.1,2c0,0.2-0.1,1-0.2,1.3c0,0-1.8,0.2-1.8,0.2c0-0.1-0.1-0.7-0.1-0.7
			C175.6,23.6,175.8,22.1,176.6,22z"/>
		<path class="st6" d="M174.5,25.9c1.7-0.6,3.7-0.5,3.7-0.5"/>
		<path class="st7" d="M214.5,75.2h-14.3c-0.7,0-1.4-0.6-1.4-1.4v-7.5c0-0.7,0.6-1.4,1.4-1.4h14.3c0.7,0,1.4,0.6,1.4,1.4v7.5
			C215.9,74.6,215.3,75.2,214.5,75.2z"/>
		<g>
			<g>
				<path class="st8" d="M211.2,70.3c0,2.1-1.7,3.7-3.7,3.7c-2.1,0-3.7-1.7-3.7-3.7c0-2.1,1.7-3.7,3.7-3.7
					C209.6,66.6,211.2,68.2,211.2,70.3"/>
			</g>
			<polygon class="st8" points="202.7,71.9 201.9,71.9 202.7,70 203.4,70 			"/>
			<polygon class="st8" points="211.8,71.9 211.4,71.9 212.2,70 212.6,70 			"/>
			<polygon class="st8" points="213.1,71.9 212.9,71.9 213.7,70 213.9,70 			"/>
			<path class="st9" d="M204.7,71.9h0.6c0,0,0.1,0,0.1-0.1v-1.8c0,0,0-0.1-0.1-0.1h-0.6c0,0-0.1,0-0.1,0.1l-0.2,0.6c0,0,0,0.1,0,0.1
				h0.2c0,0,0,0,0,0L204.7,71.9C204.6,71.9,204.6,71.9,204.7,71.9"/>
			<path class="st9" d="M205.9,71.9h0.6c0,0,0.1,0,0.1-0.1v-1.8c0,0,0-0.1-0.1-0.1h-0.9c0,0-0.1,0-0.1,0.1l-0.2,0.6l-0.1,0.1h0.5
				c0.1,0,0.2,0.1,0.2,0.2L205.9,71.9C205.9,71.9,205.9,71.9,205.9,71.9"/>
			<path class="st9" d="M208.5,70.1h-0.6c0,0-0.1,0-0.1,0.1v1.8c0,0,0,0.1,0.1,0.1h0.6c0,0,0.1,0,0.1-0.1l0.2-0.6c0,0,0-0.1,0-0.1
				h-0.2c0,0,0,0,0,0L208.5,70.1C208.5,70.1,208.5,70.1,208.5,70.1"/>
			<path class="st9" d="M206.1,71.9h0.4c0,0,0.1,0,0.1-0.1l0.2-0.6c0,0,0-0.1,0-0.1h-0.2L206.1,71.9z"/>
			<path class="st9" d="M210,70.1h0.7c0,0,0.1,0,0,0.1l-0.7,1.8c0,0,0,0,0,0h-0.6L210,70.1C210,70.1,210,70.1,210,70.1"/>
			<path class="st9" d="M209.2,70.1h-1c-0.1,0,0.3,0.1,0.3,0.1l0.7,1.7c0,0,0,0.1,0.1,0.1h0.6L209.2,70.1
				C209.2,70.1,209.2,70.1,209.2,70.1"/>
			<path class="st9" d="M207.3,70.1c0.3,0,0.6,0.2,0.6,0.6c0,0.4,0,0.4,0,0.4s-0.1-0.4-0.3-0.4c-0.3,0-0.3,0.2-0.3,0.3
				c0,0.1,0.1,0.3,0.2,0.3h0.5l-0.3,0.7c0,0,0,0-0.1,0h-0.2c-0.2,0-0.9-0.3-0.9-0.9C206.5,70.4,206.9,70.1,207.3,70.1"/>
		</g>
		<path class="st10" d="M208.3,66.1h-1.5c-0.1,0-0.2-0.1-0.2-0.2v-0.2c0-0.1,0.1-0.2,0.2-0.2h1.5c0.1,0,0.2,0.1,0.2,0.2v0.2
			C208.5,66,208.4,66.1,208.3,66.1z"/>
		<rect x="207.1" y="63" class="st11" width="0.9" height="2.7"/>
	</g>
	<g>
		<path class="st12" d="M154,70.3v6c0,1.3-1,2.3-2.3,2.3H84.9c-1.3,0-2.3-1-2.3-2.3v-6H154z"/>
		<path class="st13" d="M82.6,70.3V32.9c0-1.3,1-2.3,2.3-2.3h66.8c1.3,0,2.3,1,2.3,2.3v37.4H82.6z"/>
		<rect x="109.9" y="78.6" class="st12" width="16.7" height="6.2"/>
		<rect x="103.4" y="83.9" class="st12" width="29.6" height="2"/>
		<circle class="st14" cx="118.3" cy="75" r="0.5"/>
		<path class="st15" d="M84.9,68V34c0-0.6,0.5-1.2,1.2-1.2h64.4c0.6,0,1.2,0.5,1.2,1.2V68H84.9z"/>
		<g>
			<path class="st16" d="M118.3,40.4c-0.2,0-0.5,0.1-0.6,0.4h1.1C118.7,40.5,118.5,40.4,118.3,40.4z"/>
			<path class="st17" d="M117.6,41c0,0.4,0.3,0.6,0.6,0.6c0.4,0,0.6-0.3,0.6-0.6c0-0.1,0-0.2-0.1-0.3h-1.1
				C117.7,40.8,117.6,40.9,117.6,41z"/>
			<path class="st17" d="M124.4,42.6h5.1c0.9,0,1.7,0.7,1.7,1.7v23.8h2.5V42.7c0-1.1-0.9-2-2-2h-7.3c0,0.1,0,0.3,0,0.4V42.6z"/>
			<path class="st17" d="M105.4,68.1v-20l5.8-5.5h0.9v-1.4c0-0.2,0-0.3,0-0.4h-7.3c-1.1,0-2,0.9-2,2v25.3H105.4z"/>
			<path class="st8" d="M131.1,44.3c0-0.9-0.7-1.7-1.7-1.7h-5.1v1.2h-12.3v-1.2h-0.9v3.8c0,0.9-0.7,1.7-1.7,1.7h-4.1v20h25.7V44.3z
				 M112,66.2h-1.5v-1.4h1.5V66.2z M112,63h-1.5v-1.4h1.5V63z M112,59.9h-1.5v-1.4h1.5V59.9z M110.5,55.4h0.1l-0.3-0.4l0.3,0.4h1.2
				l0.8-1l-0.8,1h0.2 M110.5,56.8 M126.4,66.2h-12.4v-1.4h12.4V66.2z M126.4,63h-12.4v-1.4h12.4V63z M126.4,59.9h-12.4v-1.4h12.4
				V59.9z M126.4,56.8h-12.4v-1.4h12.4V56.8z"/>
			<path class="st18" d="M111.2,46.4v-3.8l-5.8,5.5h4.1C110.5,48.1,111.2,47.4,111.2,46.4z"/>
			<rect x="113.9" y="55.4" class="st19" width="12.4" height="1.4"/>
			<rect x="113.9" y="58.5" class="st19" width="12.4" height="1.4"/>
			<rect x="113.9" y="61.7" class="st19" width="12.4" height="1.4"/>
			<rect x="113.9" y="64.8" class="st19" width="12.4" height="1.4"/>
			<polygon class="st19" points="111.3,56.1 111.9,55.4 110.7,55.4 			"/>
			<rect x="110.5" y="58.5" class="st19" width="1.5" height="1.4"/>
			<rect x="110.5" y="61.7" class="st19" width="1.5" height="1.4"/>
			<rect x="110.5" y="64.8" class="st19" width="1.5" height="1.4"/>
			<path class="st20" d="M118.3,40.4c0.2,0,0.5,0.1,0.6,0.4h5.5c-0.2-1-1.1-1.7-2.1-1.7h-2.4v-0.4c0-0.9-0.7-1.6-1.6-1.6
				c-0.9,0-1.6,0.7-1.6,1.6V39h-2.4c-1,0-1.9,0.7-2.1,1.7h5.5C117.8,40.5,118,40.4,118.3,40.4z"/>
			<path class="st20" d="M112.1,42.6h12.3v-1.4c0-0.2,0-0.3,0-0.4h-5.5c0,0.1,0.1,0.2,0.1,0.3c0,0.4-0.3,0.6-0.6,0.6
				c-0.4,0-0.6-0.3-0.6-0.6c0-0.1,0-0.2,0.1-0.3h-5.5c0,0.1,0,0.3,0,0.4V42.6z"/>
			<rect x="112.1" y="42.6" class="st20" width="12.3" height="1.2"/>
			<polygon class="st21" points="111.3,57 109.9,55.4 110.7,54.8 111.2,55.4 112.2,54.1 113,54.8 			"/>
		</g>
	</g>
	<g>
		<path class="st22" d="M55.9,72.1h-8.2h-8.2c-4.4,0-17,10.1-17,19.3c0,0-3,24.2,7.5,24.2s42.4,0,42.4,0V91.4
			C72.4,82.2,60.3,72.1,55.9,72.1"/>
		<g>
			<path class="st23" d="M69.7,55.4C69.7,69.2,59.5,80,47.3,80C35,80,25.1,68.9,25.1,55.1c0-13.8,9.9-24.9,22.2-24.9
				C59.5,30.1,69.7,41.6,69.7,55.4"/>
			<line class="st24" x1="66.2" y1="54.2" x2="62.5" y2="54.5"/>
			<path class="st8" d="M38.7,80c6.9,4.3,16.8,5.5,20.3,2.3c4.1-3.7,5.3-9,5.3-9s-0.4,11.8-10.8,12.8c-9.3,0.9-17.9-3.9-17.9-3.9
				L38.7,80z"/>
			<path class="st23" d="M25.1,55.4v34.9c0,0-0.1-9.1,22.2-9.1c22.3,0,15.2-25.7,15.2-25.7H25.1z"/>
			<g>
				<path class="st25" d="M52.9,84.5C43.4,80,51.5,73.7,52.9,84.5"/>
				<path class="st25" d="M52.9,84.5C62.4,80,54.2,73.7,52.9,84.5"/>
				<path class="st25" d="M52.9,84.3c-0.2,2.1-1.5,5.4-2.3,6.5"/>
				<path class="st25" d="M53.2,84.5c0.2,2.1,1.5,5.4,2.3,6.5"/>
			</g>
		</g>
	</g>
</g>
</svg>
