<?xml version="1.0" encoding="utf-8"?>
<!-- Generator: Adobe Illustrator 19.1.0, SVG Export Plug-In . SVG Version: 6.00 Build 0)  -->
<svg version="1.1" id="Layer_1" xmlns="http://www.w3.org/2000/svg" xmlns:xlink="http://www.w3.org/1999/xlink" x="0px" y="0px"
	 viewBox="-284 376.7 41.3 41.3" style="enable-background:new -284 376.7 41.3 41.3;" xml:space="preserve" preserveAspectRatio="xMinYMid">
<style type="text/css">
	.st0{display:none;}
	.st1{display:inline;}
	.st2{fill:#0067C5;}
</style>
<g id="bkdg" class="st0">
	<g id="input_x5F_text" class="st1">
	</g>
</g>
<g id="Layer_1_1_">
	<g id="input_x5F_text_x5F_hover">
		<g id="input_x5F_text_x5F_hover_1_">
		</g>
	</g>
	<g id="link_x5F_løpende_x5F_tekst">
	</g>
	<g id="input_x5F_text_1_">
	</g>
	<g id="XMLID_10_">
		<g id="XMLID_191_">
			<path class="st2" d="M-263.4,418.1c-11.4,0-20.7-9.3-20.7-20.7s9.3-20.7,20.7-20.7s20.7,9.3,20.7,20.7S-252,418.1-263.4,418.1z
				 M-263.4,378.1c-10.7,0-19.3,8.7-19.3,19.3s8.7,19.3,19.3,19.3s19.3-8.7,19.3-19.3S-252.7,378.1-263.4,378.1z"/>
		</g>
		<g id="XMLID_190_">
			<path class="st2" d="M-253.5,400.4c-0.6-1-2.7-1.6-4.8-2.4c-2.1-0.9-2.6-1.1-2.6-1.1v-2c0,0,0.8-0.6,1-2.4c0.5,0.1,1-0.7,1-1.2
				c0-0.4-0.1-1.6-0.7-1.5c0.1-0.9,0.2-1.7,0.2-2.1c-0.2-1.6-1.7-3.2-4.2-3.2s-4,1.7-4.2,3.2c0,0.4,0,1.2,0.2,2.1
				c-0.6-0.1-0.7,1.1-0.7,1.5s0.5,1.3,1,1.2c0.2,1.8,1,2.4,1,2.4v2c0,0-0.5,0.3-2.6,1.1c-2.1,0.9-4.2,1.4-4.8,2.4
				c-0.6,0.9-0.4,5-0.4,5h10.5h10.5C-253.1,405.4-252.9,401.3-253.5,400.4z"/>
		</g>
	</g>
</g>
<g id="grå">
</g>
<g id="grid" class="st0">
</g>
</svg>
