<?xml version="1.0" encoding="utf-8"?>
<!-- Generator: Adobe Illustrator 19.2.0, SVG Export Plug-In . SVG Version: 6.00 Build 0)  -->
<!DOCTYPE svg PUBLIC "-//W3C//DTD SVG 1.1//EN" "http://www.w3.org/Graphics/SVG/1.1/DTD/svg11.dtd">
<svg version="1.1" id="Filled_Version" xmlns="http://www.w3.org/2000/svg" xmlns:xlink="http://www.w3.org/1999/xlink" x="0px"
	 y="0px" viewBox="0 0 24 24" style="enable-background:new 0 0 24 24;" xml:space="preserve">
<style type="text/css">
	.st0{fill:#0ca9e1;}
</style>
<g>
	<circle class="st0" cx="7.5" cy="20" r="1"/>
	<path class="st0" d="M17.5,15.4l0,1.6c1.7,0.1,2,0.7,2,2v1.6c0,0.7-0.7,1.4-1.5,1.4c-0.3,0-0.5-0.2-0.5-0.5c0-0.3,0.2-0.5,0.5-0.5
		c0.2,0,0.5-0.3,0.5-0.4V19c0-0.9,0-1-1.5-1s-1.5,0.1-1.5,1v1.6c0,0.1,0.3,0.4,0.5,0.4c0.3,0,0.5,0.2,0.5,0.5c0,0.3-0.2,0.5-0.5,0.5
		c-0.8,0-1.5-0.7-1.5-1.4V19c0-1.3,0.3-1.9,2-2l0-1.7c0,0,0,0,0-0.1c-0.3,0-0.5-0.1-0.8-0.1c0.9-0.8,1.6-1.9,1.7-3.3
		c0.7-0.2,1.1-1,1.1-1.9c0-0.3,0-0.5-0.1-0.8L19,5.5c0-0.1,0.2-2-1.2-3.5c-1.2-1.3-3.1-2-5.8-2S7.5,0.7,6.3,2C4.8,3.6,5,5.5,5,5.6
		l0.5,3.7C5.4,9.5,5.4,9.7,5.4,10c0,1,0.5,1.7,1.1,1.9c0.1,1.3,0.8,2.4,1.7,3.2c-0.1,0-0.2,0-0.3,0c0,0,0,0,0,0v2.8
		c0.9,0.2,1.5,1,1.5,1.9c0,1.1-0.9,2-2,2s-2-0.9-2-2c0-0.9,0.6-1.7,1.5-1.9v-2.7c-3.5,0.5-7,1.1-7,4.9V24h11.5v-6
		c0-0.3,0.2-0.5,0.5-0.5s0.5,0.2,0.5,0.5v6H24v-3.8C24,16.6,20.9,15.9,17.5,15.4z M12,16c-1.3,0-4.5-1.9-4.5-4.5
		C7.5,11.2,7.3,11,7,11c-0.5,0-0.6-0.7-0.6-1S6.5,9,7,9c0.2,0,0.4-0.2,0.5-0.4l0.4-2.1c2.6-0.1,3.6-0.8,4.1-1.6
		c0.5,0.8,1.5,1.5,4.1,1.6l0.4,2.1C16.6,8.8,16.8,9,17,9c0.5,0,0.6,0.7,0.6,1s-0.1,1-0.6,1c-0.3,0-0.5,0.2-0.5,0.5
		C16.5,14.1,13.3,16,12,16z"/>
	<path class="st0" d="M10.1,8.5l-0.1,0l-0.1,0c-0.4,0-0.8,0-1.1,0.3C8.6,9,8.5,9.2,8.5,9.5C8.5,9.8,8.7,10,9,10
		c0.3,0,0.5-0.2,0.5-0.5c0.1,0,0.2,0,0.4,0l0.1,0l0.1,0c0.1,0,0.3,0,0.4,0c0,0.3,0.2,0.5,0.5,0.5c0.3,0,0.5-0.2,0.5-0.5
		c0-0.3-0.1-0.5-0.3-0.7C10.9,8.5,10.5,8.5,10.1,8.5z"/>
	<path class="st0" d="M15.5,9.5c0-0.3-0.1-0.5-0.3-0.7c-0.3-0.3-0.7-0.3-1.1-0.3l-0.1,0l-0.1,0c-0.4,0-0.8,0-1.1,0.3
		c-0.2,0.2-0.3,0.4-0.3,0.7c0,0.3,0.2,0.5,0.5,0.5c0.3,0,0.5-0.2,0.5-0.5c0.1,0,0.2,0,0.4,0l0.1,0l0.1,0c0.1,0,0.3,0,0.4,0
		c0,0.3,0.2,0.5,0.5,0.5C15.3,10,15.5,9.8,15.5,9.5z"/>
</g>
</svg>
