<?xml version="1.0" encoding="utf-8"?>
<!-- Generator: Adobe Illustrator 19.2.1, SVG Export Plug-In . SVG Version: 6.00 Build 0)  -->
<svg version="1.1" id="Layer_1" xmlns="http://www.w3.org/2000/svg" xmlns:xlink="http://www.w3.org/1999/xlink" x="0px" y="0px"
	 viewBox="0 0 314.4 314.9" style="enable-background:new 0 0 314.4 314.9;" xml:space="preserve">
<style type="text/css">
	.st0{fill:#BCCFCF;}
	.st1{fill:none;stroke:#BCCFCF;stroke-width:6.2684;stroke-miterlimit:10;}
	.st2{fill:#FFFFFF;}
	.st3{fill:none;stroke:#BCCFCF;stroke-width:3.1342;stroke-miterlimit:10;}
	.st4{fill:#3E3A3C;}
	.st5{fill:#558192;}
	.st6{fill:#7C9FAF;}
	.st7{fill:#184D6C;}
	.st8{fill:#F2EFEE;}
	.st9{fill:#453E3E;}
	.st10{fill:#78ACCD;}
	.st11{fill:none;stroke:#D2C1A4;stroke-width:0.518;stroke-linecap:round;stroke-miterlimit:10;}
	.st12{fill:#DAD6D5;}
	.st13{fill:none;stroke:#CCB7A0;stroke-width:1.0319;stroke-miterlimit:10;}
	.st14{fill:#EAEAE7;}
	.st15{fill:#759DAC;}
	.st16{fill:#EBEAE8;}
	.st17{fill:none;stroke:#CCB7A0;stroke-width:1.0101;stroke-miterlimit:10;}
	.st18{fill:none;stroke:#D2C1A4;stroke-width:0.5063;stroke-linecap:round;stroke-miterlimit:10;}
	.st19{fill:#E57D61;}
	.st20{fill:#5F224E;}
	.st21{fill:none;stroke:#D19E9D;stroke-width:1.0127;stroke-miterlimit:10;}
	.st22{clip-path:url(#SVGID_2_);fill:#9BA936;}
	.st23{clip-path:url(#SVGID_4_);fill:#ECEAE9;}
	.st24{clip-path:url(#SVGID_6_);fill:#FFFFFF;}
	.st25{clip-path:url(#SVGID_8_);fill:#FFFFFF;}
	.st26{clip-path:url(#SVGID_10_);fill:#ECEAE9;}
	.st27{clip-path:url(#SVGID_12_);fill:#ECEAE9;}
	.st28{clip-path:url(#SVGID_14_);fill:#ECEAE9;}
	.st29{clip-path:url(#SVGID_16_);fill:#F6BB71;}
	.st30{clip-path:url(#SVGID_18_);fill:#78ACCD;}
	.st31{clip-path:url(#SVGID_20_);fill:#78ACCD;}
	.st32{clip-path:url(#SVGID_22_);fill:none;stroke:#D19E9D;stroke-width:2.991;stroke-miterlimit:10;}
	.st33{clip-path:url(#SVGID_24_);fill:#ECEAE9;}
	.st34{clip-path:url(#SVGID_26_);fill:none;stroke:#D2C1A4;stroke-width:1.4955;stroke-linecap:round;stroke-miterlimit:10;}
	.st35{fill:#697686;}
	.st36{fill:#C11718;}
	.st37{fill:#BFC0C7;}
	.st38{fill:none;stroke:#697686;stroke-width:0.7985;stroke-miterlimit:10;}
	.st39{fill:#2EA359;}
	.st40{fill:#CD1719;}
	.st41{fill:#C42229;}
	.st42{fill:#5B2052;}
	.st43{fill:#86497E;}
</style>
<g>
	<g>
		<g>
			<path class="st0" d="M311.3,172.1c0-76-61.6-137.6-137.6-137.6S36.2,96.1,36.2,172.1s61.6,137.6,137.6,137.6
				S311.3,248,311.3,172.1"/>
			<circle class="st1" cx="173.8" cy="172.1" r="137.6"/>
			<path class="st2" d="M89.2,221.6c0,24.2-19.6,43.8-43.8,43.8S1.6,245.8,1.6,221.6s19.6-43.8,43.8-43.8S89.2,197.4,89.2,221.6"/>
			<circle class="st3" cx="45.4" cy="221.6" r="43.8"/>
			<path class="st4" d="M67.4,207.3c-1.1,7.1-10.5,10.8-20.9,10.8c-10.2,0-19.8-5.7-20.7-10.8c-1.1-6.7-0.3-10.4,3-14.9
				c4.2-5.7,10.6-9.4,17.7-9.4s13.6,3.8,17.9,9.6C67.8,197.1,68.5,199.4,67.4,207.3"/>
			<path class="st5" d="M53.9,227.6h-7.3h-7.3c-4,0-17,8.2-17,15.8v13.3c0,0,9.5,6.8,23.8,6.8s24.8-8.5,24.8-8.5v-11.6
				C70.9,235.8,57.9,227.6,53.9,227.6"/>
			<path class="st6" d="M52.3,243.6h11.2v6.2c0,0-4.3,4.8-5.6,4.8s-5.6-4.8-5.6-4.8S52.3,243.6,52.3,243.6z"/>
			<path class="st7" d="M53.5,227.6l-6.9,2.6l-7.7-2.1l-3.1,1.3c1,1.5,6.4,4.9,9.2,4.9h-0.6v4l1,0.5l-3.6,15.1l4.8,6.7l4.8-6.7
				l-3.6-15.1l1-0.5v-4h-0.7c2.8,0,8.3-3.4,9.3-4.9L53.5,227.6z"/>
			<path class="st8" d="M64.9,215.1h1c0.9,0,1.6-0.7,1.6-1.6v-6.3c0-0.9-0.7-1.6-1.6-1.6s-1.6,0.7-1.6,1.6v7.2
				C64.3,214.8,64.6,215.1,64.9,215.1"/>
			<path class="st8" d="M28.3,215.1h-1c-0.9,0-1.6-0.7-1.6-1.6v-6.3c0-0.9,0.7-1.6,1.6-1.6s1.6,0.7,1.6,1.6v7.2
				C28.9,214.8,28.6,215.1,28.3,215.1"/>
			<path class="st8" d="M65.5,209.3c0,12.2-8.5,22.1-18.9,22.1c-10.5,0-18.9-9.9-18.9-22.1c0-12.2,8.5-22.1,18.9-22.1
				C57.1,187.1,65.5,197.1,65.5,209.3"/>
			<path class="st9" d="M64.3,208.1c1.6,0.4,1.1-0.7,1.1-2.4c0-12.2-8.5-22.1-18.9-22.1c-10.5,0-18.9,9.9-18.9,22.1
				c0,1.6,0.1,3.2,0.4,4.7c0,0,5.3-4.8,6.5-6.7c1.7-2.6,3.3-8,3.3-8C38.4,195.7,45.8,203.2,64.3,208.1"/>
			<path class="st10" d="M38.1,206.7c-1.4-0.1-1.8,2-1.4,3.3c0.1,0.3,0.2,0.6,0.4,0.8c0.2,0,0.4-0.1,0.8-0.1c0.4,0,1,0,1.5,0.2
				c0.1-0.1,0.2-1.5,0.1-2.2C39.5,207.8,39,206.8,38.1,206.7"/>
			<path class="st10" d="M54.9,206.7c1.4-0.1,1.8,2,1.4,3.3c-0.1,0.3-0.2,0.6-0.4,0.8c-0.2,0-0.4-0.1-0.8-0.1c-0.4,0-1,0-1.5,0.2
				c-0.1-0.1-0.2-1.5-0.1-2.2C53.5,207.8,53.9,206.8,54.9,206.7"/>
			<path class="st8" d="M48,211.8c0.8-0.1,1.6-0.1,2,0.4c0.9,1.1,0.6,2.4-0.9,3.4c-0.8,0.5-1.9,0.7-2.5,0.4"/>
			<path class="st11" d="M48,211.8c0.8-0.1,1.6-0.1,2,0.4c0.9,1.1,0.6,2.4-0.9,3.4c-0.8,0.5-1.9,0.7-2.5,0.4"/>
			<path class="st12" d="M53.9,219.5c0,0-1.9-1.9-7.4-1.9s-7.8,2.1-7.8,2.1H30c3.2,7,9.4,11.7,16.6,11.7c7.3,0,13.7-4.8,16.8-11.9
				L53.9,219.5L53.9,219.5z"/>
			<path class="st13" d="M41,221.1c0,0,2,2.4,5.5,2.4s5.6-2.4,5.6-2.4"/>
			<path class="st2" d="M161.3,45.4c0,24.2-19.6,43.8-43.8,43.8S73.7,69.6,73.7,45.4S93.3,1.6,117.5,1.6S161.3,21.2,161.3,45.4"/>
			<circle class="st3" cx="117.5" cy="45.4" r="43.8"/>
			<path class="st4" d="M140,35.4c0,11.9,0.1,26.2-22.5,26.2s0.6-26.2,0.6-26.2H140z"/>
			<path class="st4" d="M95,35.4c0,11.9-0.1,26.2,22.5,26.2s-0.6-26.2-0.6-26.2H95z"/>
			<path class="st4" d="M95,35.4c0,14,10.1,25.3,22.5,25.3S140,49.4,140,35.4s-10.1-25.3-22.5-25.3C105.1,10.1,95,21.5,95,35.4"/>
			<path class="st0" d="M110.4,53h7.1h7.1c3.8,0,16.3,7.9,16.3,15.2v12.4c0,0-9.9,7-23.7,7s-23.1-7-23.1-7V68.3
				C94.1,60.9,106.6,53,110.4,53"/>
			<path class="st2" d="M128.3,64.2c3.2-5.6,1.5-9.1,0.4-10l-1.4-0.6c2,2.2,2.4,6,0,10L128.3,64.2z"/>
			<path class="st2" d="M130.3,64.3c1.1,0.8,1.9,1.8,2.4,3.1c0.3,0.6,0.4,1.2,0.2,1.9c-0.7,2.8-1.4,5.5-2.1,8.3
				c-0.4,1.5-1.4,2.4-2.9,2.8c-0.2,0.1-0.4,0.1-0.5,0.3c-0.5,0.6-1.3,0.7-2,0.4c-0.7-0.4-1-1.1-0.8-1.9c0.2-0.7,0.9-1.2,1.7-1.2
				c0.6,0,1,0.3,1.4,0.8c0.9-0.3,1.4-0.9,1.7-1.8c0.7-2.6,1.3-5.2,2-7.8c0.1-0.5,0.1-0.9-0.1-1.4c-0.4-0.8-0.9-1.4-1.5-1.9
				c-2.1-1.9-5.3-2-7.5-0.2c-0.3,0.3-0.5,0.6-0.6,1c-0.2,0.9-0.4,1.8-0.7,2.7c-0.4,1.7-0.9,3.5-1.3,5.2c-0.2,0.9,0,1.6,0.6,2.2
				c0.5-0.3,1-0.3,1.5-0.2c0.8,0.3,1.2,1.1,1,1.8c-0.2,0.8-0.8,1.4-1.6,1.3c-0.8,0-1.4-0.6-1.6-1.4c0-0.1-0.1-0.2-0.2-0.3
				c-1.2-1.1-1.7-2.5-1.3-4.1c0.6-2.6,1.3-5.1,1.9-7.7c0.2-0.9,0.7-1.6,1.4-2.1c1.4-1,3.1-1.7,4.8-1.5
				C127.7,63,128.6,63.3,130.3,64.3"/>
			<polygon class="st2" points="106.3,66.4 107.2,66.4 107.2,53.9 106.3,54.4 			"/>
			<path class="st2" d="M102.3,68.6c0,2.4,2,4.4,4.4,4.4s4.4-2,4.4-4.4s-2-4.4-4.4-4.4S102.3,66.2,102.3,68.6"/>
			<path class="st14" d="M103.4,68.6c0,1.8,1.5,3.3,3.3,3.3s3.3-1.5,3.3-3.3s-1.5-3.3-3.3-3.3C104.9,65.3,103.4,66.8,103.4,68.6"/>
			<path class="st15" d="M114,53.7c0.4,0,3.5,1.3,3.5,1.3s3.6-1,3.9-1.1s2.3,1,2.3,1C123.2,55.6,118,65,118,65h-1
				c0,0-5.2-9.2-5.7-10C111.3,55,113.5,53.7,114,53.7"/>
			<path class="st16" d="M108.7,21c0,0-8.4,7.2-9.7,10c0,0-0.1,0.2-0.2,0.1C98.5,31,98.3,31,98.1,31c-0.9,0-1.6,0.7-1.6,1.6v6.3
				c0,0.9,0.7,1.6,1.6,1.6c0.3,0,0.7-0.1,0.9-0.3c2.1,9.6,9.5,16.7,18.4,16.7s16.3-7.1,18.4-16.7c0.3,0.2,0.6,0.3,0.9,0.3
				c0.9,0,1.6-0.7,1.6-1.6v-6.3c0-0.9-0.7-1.6-1.6-1.6c-0.2,0-0.4,0-0.6,0.1C130.1,22.5,117.5,31.6,108.7,21"/>
			<path class="st16" d="M114.9,54.9c0.3,0,2.5,1,2.5,1s2.6-0.7,2.8-0.8c0.2,0,1.7,0.7,1.7,0.7c-0.4,0.5-4.1,7.3-4.1,7.3h-0.7
				c0,0-3.8-6.7-4.1-7.2C113,55.8,114.6,54.9,114.9,54.9"/>
			<path class="st4" d="M103.7,35.5c0,3.4,2.8,6.2,6.2,6.2c3.2,0,5.8-2.4,6.1-5.5h2.9c0.4,3.1,3,5.5,6.1,5.5c3.4,0,6.2-2.8,6.2-6.2
				s-2.8-6.2-6.2-6.2c-3.2,0-5.8,2.4-6.1,5.5H116c-0.4-3.1-3-5.5-6.1-5.5C106.5,29.3,103.7,32.1,103.7,35.5 M120.4,35.5
				c0-2.6,2.1-4.7,4.7-4.7s4.7,2.1,4.7,4.7c0,2.6-2.1,4.7-4.7,4.7C122.5,40.2,120.4,38.1,120.4,35.5 M105.2,35.5
				c0-2.6,2.1-4.7,4.7-4.7s4.7,2.1,4.7,4.7c0,2.6-2.1,4.7-4.7,4.7C107.3,40.2,105.2,38.1,105.2,35.5"/>
			<path class="st17" d="M112.1,46.2c0,0,2,2.3,5.4,2.3s5.5-2.3,5.5-2.3"/>
			<path class="st8" d="M118.5,38.5c0.8-0.1,1.6-0.1,1.9,0.4c0.9,1.1,0.6,2.4-0.9,3.3c-0.7,0.5-1.8,0.7-2.5,0.4"/>
			<path class="st18" d="M118.5,38.5c0.8-0.1,1.6-0.1,1.9,0.4c0.9,1.1,0.6,2.4-0.9,3.3c-0.7,0.5-1.8,0.7-2.5,0.4"/>
			<path class="st2" d="M89.2,121c0,24.2-19.6,43.8-43.8,43.8S1.6,145.1,1.6,121c0-24.2,19.6-43.8,43.8-43.8S89.2,96.8,89.2,121"/>
			<circle class="st3" cx="45.4" cy="121" r="43.8"/>
			<path class="st19" d="M68.4,111.2L68.4,111.2c0-14-10.1-25.4-22.6-25.4s-22.6,11.4-22.6,25.4l0,0c0,12-6.2,18.8-6.2,18.8
				s6.1,7.5,28.7,7.5l0,0l0,0c22.6,0,28.7-7.5,28.7-7.5S68.4,123.2,68.4,111.2"/>
			<path class="st20" d="M47.5,126.8c12.2,0,21.8,9.1,21.8,19.9v9.3c0,0.4-10,7.3-23.3,7.3c-12.3,0-19.2-3.9-23.5-6.6
				c-0.6-2.7-1.1-6.8-1.1-10C21.4,135.8,35.3,126.8,47.5,126.8"/>
			<path class="st8" d="M65.7,108.3c-0.1-0.7-0.7-1.2-1.5-1.2c-0.2,0-0.4,0-0.5,0.1c0,0,0,0-0.1,0c-5.5-7.5-16.3-0.6-24.5-7.7
				c-1.1-1.1-1.6-1.9-1.7-1.9c0,0-8,6.9-9.3,9.5c0,0-0.1,0.2-0.2,0.1c-0.2-0.1-0.3-0.1-0.5-0.1c-0.7,0-1.3,0.5-1.5,1.2
				c0,0.1-0.1,0.2-0.1,0.4v6c0,0.8,0.7,1.5,1.5,1.5c0.3,0,0.6-0.1,0.9-0.3c1.2,5.6,4.3,10.2,8.4,13c-1.1,0.4-2.9,1.3-2.9,1.3
				c0.9,1.4,4.2,8.6,12,8.6c7.9,0,12-7.4,12.8-9.2c0,0-1.2-0.8-2.9-1.3c3.7-2.9,6.5-7.3,7.6-12.4c0.2,0.2,0.5,0.3,0.9,0.3
				c0.8,0,1.5-0.7,1.5-1.5v-6C65.8,108.5,65.8,108.4,65.7,108.3"/>
			<path class="st20" d="M57.2,147.8h-1.3c-0.2,0-0.3-0.1-0.3-0.3l0,0c0-0.2,0.1-0.3,0.3-0.3h1.3c0.2,0,0.3,0.1,0.3,0.3l0,0
				C57.5,147.6,57.4,147.8,57.2,147.8"/>
			<path class="st10" d="M38.9,113.2c-1.3,0.1-1.7-1.9-1.3-3.2c0.1-0.2,0.5-1.4,1.3-1.4s1.1,0.6,1.2,0.7
				C40.7,110.6,40.4,113,38.9,113.2"/>
			<path class="st10" d="M53.8,113.2c1.3,0.1,1.7-1.9,1.3-3.2c-0.1-0.2-0.5-1.4-1.3-1.4s-1.1,0.6-1.2,0.7
				C52.1,110.6,52.4,113,53.8,113.2"/>
			<path class="st21" d="M41,122.3c0,0,2,2.3,5.4,2.3s5.5-2.3,5.5-2.3"/>
			<path class="st8" d="M46.7,114.7c0.8-0.1,1.6-0.1,1.9,0.4c0.9,1.1,0.6,2.4-0.9,3.3c-0.7,0.5-1.8,0.7-2.5,0.4"/>
			<path class="st18" d="M46.7,114.7c0.8-0.1,1.6-0.1,1.9,0.4c0.9,1.1,0.6,2.4-0.9,3.3c-0.7,0.5-1.8,0.7-2.5,0.4"/>
			<polygon class="st8" points="44.3,143.4 48.2,143.4 55.3,134.5 36.8,134.5 			"/>
		</g>
		<g>
			<g>
				<defs>
					<path id="SVGID_1_" d="M36.2,172.1c0,76,61.6,137.6,137.6,137.6s137.6-61.6,137.6-137.6S249.7,34.5,173.8,34.5
						C97.8,34.5,36.2,96.1,36.2,172.1"/>
				</defs>
				<clipPath id="SVGID_2_">
					<use xlink:href="#SVGID_1_"  style="overflow:visible;"/>
				</clipPath>
				<path class="st22" d="M193.7,214.8l-20.3-0.4H153c-11,0-47.6,23.3-47.6,44.6v55.9h136.7V259
					C242.1,237.7,204.7,214.8,193.7,214.8"/>
			</g>
			<g>
				<defs>
					<path id="SVGID_3_" d="M36.2,172.1c0,76,61.6,137.6,137.6,137.6s137.6-61.6,137.6-137.6S249.7,34.5,173.8,34.5
						C97.8,34.5,36.2,96.1,36.2,172.1"/>
				</defs>
				<clipPath id="SVGID_4_">
					<use xlink:href="#SVGID_3_"  style="overflow:visible;"/>
				</clipPath>
				<path class="st23" d="M192.7,212.4c-2.4,0-19.2,7.2-19.2,7.2s-20.2-5.6-21.7-5.9c-1.5-0.3-12.3,5.5-12.3,5.5
					c2.8,4.1,10.6,23,34,23c23.3,0,31.2-18.9,34-23C207.4,219.2,195,212.4,192.7,212.4"/>
			</g>
			<g>
				<defs>
					<path id="SVGID_5_" d="M36.2,172.1c0,76,61.6,137.6,137.6,137.6s137.6-61.6,137.6-137.6S249.7,34.5,173.8,34.5
						C97.8,34.5,36.2,96.1,36.2,172.1"/>
				</defs>
				<clipPath id="SVGID_6_">
					<use xlink:href="#SVGID_5_"  style="overflow:visible;"/>
				</clipPath>
				<polyline class="st24" points="207,218.9 149.9,314.9 214.2,314.9 214.2,222.5 				"/>
			</g>
			<g>
				<defs>
					<path id="SVGID_7_" d="M36.2,172.1c0,76,61.6,137.6,137.6,137.6s137.6-61.6,137.6-137.6S249.7,34.5,173.8,34.5
						C97.8,34.5,36.2,96.1,36.2,172.1"/>
				</defs>
				<clipPath id="SVGID_8_">
					<use xlink:href="#SVGID_7_"  style="overflow:visible;"/>
				</clipPath>
				<polyline class="st25" points="139.5,219.2 168.1,311.8 158.4,312.1 				"/>
			</g>
			<g>
				<defs>
					<path id="SVGID_9_" d="M36.2,172.1c0,76,61.6,137.6,137.6,137.6s137.6-61.6,137.6-137.6S249.7,34.5,173.8,34.5
						C97.8,34.5,36.2,96.1,36.2,172.1"/>
				</defs>
				<clipPath id="SVGID_10_">
					<use xlink:href="#SVGID_9_"  style="overflow:visible;"/>
				</clipPath>
				<path class="st26" d="M229.7,177.6h-4.5c-1.1,0-2.1-0.9-2.1-2.1v-22c0-1.1,0.9-2.1,2.1-2.1h4.5c1.1,0,2.1,0.9,2.1,2.1v22
					C231.8,176.6,230.9,177.6,229.7,177.6"/>
			</g>
			<g>
				<defs>
					<path id="SVGID_11_" d="M36.2,172.1c0,76,61.6,137.6,137.6,137.6s137.6-61.6,137.6-137.6S249.7,34.5,173.8,34.5
						C97.8,34.5,36.2,96.1,36.2,172.1"/>
				</defs>
				<clipPath id="SVGID_12_">
					<use xlink:href="#SVGID_11_"  style="overflow:visible;"/>
				</clipPath>
				<path class="st27" d="M122.3,177.6h-4.5c-1.1,0-2.1-0.9-2.1-2.1v-22c0-1.1,0.9-2.1,2.1-2.1h4.5c1.1,0,2.1,0.9,2.1,2.1v22
					C124.4,176.6,123.5,177.6,122.3,177.6"/>
			</g>
			<g>
				<defs>
					<path id="SVGID_13_" d="M36.2,172.1c0,76,61.6,137.6,137.6,137.6s137.6-61.6,137.6-137.6S249.7,34.5,173.8,34.5
						C97.8,34.5,36.2,96.1,36.2,172.1"/>
				</defs>
				<clipPath id="SVGID_14_">
					<use xlink:href="#SVGID_13_"  style="overflow:visible;"/>
				</clipPath>
				<path class="st28" d="M226.5,161.4c0,34.1-23.6,61.7-52.8,61.7s-52.8-27.6-52.8-61.7s23.6-61.7,52.8-61.7
					C202.9,99.6,226.5,127.3,226.5,161.4"/>
			</g>
			<g>
				<defs>
					<path id="SVGID_15_" d="M36.2,172.1c0,76,61.6,137.6,137.6,137.6s137.6-61.6,137.6-137.6S249.7,34.5,173.8,34.5
						C97.8,34.5,36.2,96.1,36.2,172.1"/>
				</defs>
				<clipPath id="SVGID_16_">
					<use xlink:href="#SVGID_15_"  style="overflow:visible;"/>
				</clipPath>
				<path class="st29" d="M124,159.4c0.1-0.2,0.2-0.4,0.2-0.7v-4.9c-0.4-13.5,4.4-19.8,8.3-24.6c0,0-2.4,10.4-0.7,8.2
					c9.4-12.2,52.9-3.8,62-19.6c1.1,8.7-10.3,11.3-10.3,11.3c9.1,1.7,17-1.9,19.1-6.2c0.7,3.5-1.5,5.8-4.6,8.2
					c11.2-2.1,11.3-9.6,11.3-9.6c1.6,10,13,6.2,13,22.6v14.6c0,0.7,0.6,1.3,1.3,1.3h1.3c0.7,0,1.3-0.6,1.3-1.3V148
					c0.7-37.9-21-63.2-50.9-63.2c-28.5,0-55.5,25.3-55.4,58.7v0.1v15.2c0,0.7,0.6,1.3,1.3,1.3h1.4c0.4,0,0.8-0.2,1-0.5"/>
			</g>
			<g>
				<defs>
					<path id="SVGID_17_" d="M36.2,172.1c0,76,61.6,137.6,137.6,137.6s137.6-61.6,137.6-137.6S249.7,34.5,173.8,34.5
						C97.8,34.5,36.2,96.1,36.2,172.1"/>
				</defs>
				<clipPath id="SVGID_18_">
					<use xlink:href="#SVGID_17_"  style="overflow:visible;"/>
				</clipPath>
				<path class="st30" d="M151.8,166.8c-3.9,0.3-5-5.6-3.9-9.5c0.2-0.7,1.5-4.1,3.8-4.1s3.3,1.8,3.5,2.1
					C156.9,159.2,156.1,166.5,151.8,166.8"/>
			</g>
			<g>
				<defs>
					<path id="SVGID_19_" d="M36.2,172.1c0,76,61.6,137.6,137.6,137.6s137.6-61.6,137.6-137.6S249.7,34.5,173.8,34.5
						C97.8,34.5,36.2,96.1,36.2,172.1"/>
				</defs>
				<clipPath id="SVGID_20_">
					<use xlink:href="#SVGID_19_"  style="overflow:visible;"/>
				</clipPath>
				<path class="st31" d="M195.7,166.8c3.9,0.3,5-5.6,3.9-9.5c-0.2-0.7-1.5-4.1-3.8-4.1s-3.3,1.8-3.5,2.1
					C190.6,159.2,191.4,166.5,195.7,166.8"/>
			</g>
			<g>
				<defs>
					<path id="SVGID_21_" d="M36.2,172.1c0,76,61.6,137.6,137.6,137.6s137.6-61.6,137.6-137.6S249.7,34.5,173.8,34.5
						C97.8,34.5,36.2,96.1,36.2,172.1"/>
				</defs>
				<clipPath id="SVGID_22_">
					<use xlink:href="#SVGID_21_"  style="overflow:visible;"/>
				</clipPath>
				<path class="st32" d="M157.9,193.8c0,0,5.8,6.9,15.9,6.9c10.1,0,16.2-6.9,16.2-6.9"/>
			</g>
			<g>
				<defs>
					<path id="SVGID_23_" d="M36.2,172.1c0,76,61.6,137.6,137.6,137.6s137.6-61.6,137.6-137.6S249.7,34.5,173.8,34.5
						C97.8,34.5,36.2,96.1,36.2,172.1"/>
				</defs>
				<clipPath id="SVGID_24_">
					<use xlink:href="#SVGID_23_"  style="overflow:visible;"/>
				</clipPath>
				<path class="st33" d="M174.8,171.3c2.4-0.4,4.7-0.3,5.7,1.1c2.6,3.3,1.9,7.1-2.6,9.9c-2.2,1.4-5.3,2-7.3,1.1"/>
			</g>
			<g>
				<defs>
					<path id="SVGID_25_" d="M36.2,172.1c0,76,61.6,137.6,137.6,137.6s137.6-61.6,137.6-137.6S249.7,34.5,173.8,34.5
						C97.8,34.5,36.2,96.1,36.2,172.1"/>
				</defs>
				<clipPath id="SVGID_26_">
					<use xlink:href="#SVGID_25_"  style="overflow:visible;"/>
				</clipPath>
				<path class="st34" d="M174.8,171.3c2.4-0.4,4.7-0.3,5.7,1.1c2.6,3.3,1.9,7.1-2.6,9.9c-2.2,1.4-5.3,2-7.3,1.1"/>
			</g>
		</g>
		<g>
			<path class="st35" d="M290.9,179.4h-34.6c-3.3,0-5.9-2.7-5.9-5.9v-71.6c0-3.3,2.7-5.9,5.9-5.9h34.6c3.3,0,5.9,2.7,5.9,5.9v71.6
				C296.9,176.7,294.2,179.4,290.9,179.4"/>
			<path class="st2" d="M278.8,172.9c0,2-1.6,3.6-3.6,3.6s-3.6-1.6-3.6-3.6s1.6-3.6,3.6-3.6C277.2,169.3,278.8,170.9,278.8,172.9"/>
			<rect x="258.8" y="108.8" class="st2" width="29.6" height="5.4"/>
			<polygon class="st36" points="254.1,115.9 254.1,115.9 254.1,108.8 			"/>
			<path class="st37" d="M291.7,106.4c-0.3-0.1-0.6-0.2-1-0.2h-34.1c-1.4,0-2.5,1.1-2.5,2.6v7l39.2-0.1v-7
				C293.3,107.7,292.7,106.8,291.7,106.4 M262.3,112.8c-0.7,0-1.3-0.6-1.3-1.3c0-0.7,0.6-1.3,1.3-1.3c0.7,0,1.3,0.6,1.3,1.3
				C263.6,112.2,263,112.8,262.3,112.8 M285.1,112.8c-0.7,0-1.3-0.6-1.3-1.3c0-0.7,0.6-1.3,1.3-1.3c0.7,0,1.3,0.6,1.3,1.3
				C286.4,112.2,285.8,112.8,285.1,112.8"/>
			<path class="st2" d="M254.1,115.9v8.1v39.9c0,1.4,1.1,2.5,2.6,2.5h34.1c1.4,0,2.5-1.1,2.5-2.6v-35.1v-12.9L254.1,115.9z"/>
			<line class="st38" x1="267.2" y1="115.9" x2="267.3" y2="167.3"/>
			<line class="st38" x1="280" y1="115.8" x2="280.1" y2="167.3"/>
			<line class="st38" x1="254.1" y1="124.5" x2="293.4" y2="124.4"/>
			<line class="st38" x1="254.1" y1="133" x2="293.4" y2="132.9"/>
			<line class="st38" x1="254.1" y1="141.3" x2="293.4" y2="141.2"/>
			<line class="st38" x1="254.1" y1="149.8" x2="293.4" y2="149.8"/>
			<line class="st38" x1="254.1" y1="158.4" x2="293.4" y2="158.3"/>
			<path class="st39" d="M259.8,148c-0.3,0-0.5-0.1-0.7-0.3l-2.2-2.6c-0.3-0.4-0.3-1,0.1-1.3s1-0.3,1.3,0.1l1.5,1.7l4.2-5.8
				c0.3-0.4,0.9-0.5,1.3-0.2s0.5,0.9,0.2,1.3l-4.9,6.7C260.4,147.8,260.2,148,259.8,148C259.9,148,259.8,148,259.8,148"/>
		</g>
	</g>
	<g>
		<path class="st40" d="M64.6,154.5h-13c-0.7,0-1.4-0.6-1.4-1.4v-6.7c0-0.7,0.6-1.4,1.4-1.4h12.9c0.7,0,1.4,0.6,1.4,1.4v6.7
			C65.9,153.9,65.3,154.5,64.6,154.5z"/>
		<g>
			<g>
				<path class="st2" d="M61.6,150c0,1.9-1.5,3.4-3.4,3.4s-3.4-1.5-3.4-3.4s1.5-3.4,3.4-3.4S61.6,148.1,61.6,150"/>
			</g>
			<polygon class="st2" points="53.8,151.5 53.1,151.5 53.8,149.8 54.5,149.8 			"/>
			<polygon class="st2" points="62.2,151.5 61.8,151.5 62.5,149.8 62.9,149.8 			"/>
			<polygon class="st2" points="63.4,151.5 63.2,151.5 63.9,149.8 64.1,149.8 			"/>
			<path class="st41" d="M55.6,151.5h0.5l0,0v-1.6l0,0h-0.5c0,0-0.1,0-0.1,0.1l-0.2,0.5v0.1h0.2l0,0L55.6,151.5L55.6,151.5"/>
			<path class="st41" d="M56.8,151.5h0.5h0.1v-1.6c0,0,0,0-0.1,0h-0.8c0,0-0.1,0-0.1,0.1l-0.2,0.5l-0.1,0.1h0.4
				c0.1,0,0.2,0.1,0.2,0.2L56.8,151.5C56.7,151.5,56.7,151.5,56.8,151.5"/>
			<path class="st41" d="M59.1,149.8h-0.5l0,0v1.6l0,0h0.5c0,0,0.1,0,0.1-0.1l0.2-0.5v-0.1h-0.1l0,0L59.1,149.8
				C59.2,149.8,59.1,149.8,59.1,149.8"/>
			<path class="st41" d="M56.9,151.5h0.3c0,0,0.1,0,0.1-0.1l0.2-0.5v-0.1h-0.1L56.9,151.5z"/>
			<path class="st41" d="M60.5,149.8h0.6c0,0,0.1,0,0,0.1l-0.7,1.7l0,0h-0.6L60.5,149.8L60.5,149.8"/>
			<path class="st41" d="M59.7,149.8h-0.9c-0.1,0,0.3,0.1,0.3,0.1l0.6,1.6c0,0,0,0.1,0.1,0.1h0.5L59.7,149.8
				C59.8,149.8,59.8,149.8,59.7,149.8"/>
			<path class="st41" d="M58,149.8c0.3,0,0.5,0.2,0.5,0.6c0,0.4,0,0.4,0,0.4s0-0.3-0.3-0.3s-0.3,0.1-0.3,0.3c0,0.1,0.1,0.2,0.2,0.2
				h0.5l-0.3,0.6c0,0,0,0-0.1,0H58c-0.2,0-0.8-0.3-0.8-0.8C57.3,150.1,57.7,149.8,58,149.8"/>
		</g>
		<path class="st42" d="M58.9,146.1h-1.4c-0.1,0-0.2-0.1-0.2-0.2v-0.2c0-0.1,0.1-0.2,0.2-0.2h1.4c0.1,0,0.2,0.1,0.2,0.2v0.2
			C59.2,146,59.1,146.1,58.9,146.1z"/>
		<rect x="57.8" y="143.3" class="st43" width="0.8" height="2.5"/>
	</g>
</g>
</svg>
