<?xml version="1.0" encoding="utf-8"?>
<!-- Generator: Adobe Illustrator 19.2.0, SVG Export Plug-In . SVG Version: 6.00 Build 0)  -->
<!DOCTYPE svg PUBLIC "-//W3C//DTD SVG 1.1//EN" "http://www.w3.org/Graphics/SVG/1.1/DTD/svg11.dtd">
<svg version="1.1" id="Filled_Version" xmlns="http://www.w3.org/2000/svg" xmlns:xlink="http://www.w3.org/1999/xlink" x="0px"
	 y="0px" viewBox="0 0 24 24" style="enable-background:new 0 0 24 24;" xml:space="preserve">
<style type="text/css">
	.st0{fill:#0067C5;}
</style>
<path class="st0" d="M19.5,8C18.1,8,17,9.1,17,10.5c0,1.2,0.9,2.2,2,2.4v6.6c0,0.8-0.7,1.5-1.5,1.5c-0.8,0-1.5-0.7-1.5-1.5v-3
	c0-1.7-1.3-3-3-3s-3,1.3-3,3v5c0,0.8-0.7,1.5-1.5,1.5C7.7,23,7,22.3,7,21.5v-7c2.8-0.3,5-2.6,5-5.5V4c0-1.2-0.9-2.2-2-2.5v-1
	C10,0.2,9.8,0,9.5,0c-0.8,0-2,0.5-2,2c0,1.5,1.2,2,2,2C9.8,4,10,3.8,10,3.5V2.6c0.6,0.2,1,0.8,1,1.4v5c0,2.5-2,4.5-4.5,4.5
	S2,11.5,2,9V4c0-0.7,0.4-1.2,1-1.4v0.9C3,3.8,3.2,4,3.5,4c0.8,0,2-0.5,2-2c0-1.5-1.2-2-2-2C3.2,0,3,0.2,3,0.5v1C1.9,1.8,1,2.8,1,4v5
	c0,2.9,2.2,5.2,5,5.5v7C6,22.9,7.1,24,8.5,24c1.4,0,2.5-1.1,2.5-2.5v-5c0-1.1,0.9-2,2-2c1.1,0,2,0.9,2,2v3c0,1.4,1.1,2.5,2.5,2.5
	c1.4,0,2.5-1.1,2.5-2.5v-6.6c1.1-0.2,2-1.2,2-2.4C22,9.1,20.9,8,19.5,8z"/>
</svg>
