<?xml version="1.0" encoding="utf-8"?>
<!-- Generator: Adobe Illustrator 19.2.0, SVG Export Plug-In . SVG Version: 6.00 Build 0)  -->
<!DOCTYPE svg PUBLIC "-//W3C//DTD SVG 1.1//EN" "http://www.w3.org/Graphics/SVG/1.1/DTD/svg11.dtd">
<svg version="1.1" id="Layer_1" xmlns="http://www.w3.org/2000/svg" xmlns:xlink="http://www.w3.org/1999/xlink" x="0px" y="0px"
	 viewBox="0 0 24 24" style="enable-background:new 0 0 24 24;" xml:space="preserve">
<style type="text/css">
	.st0{fill:none;stroke:#3E3832;stroke-linecap:round;stroke-linejoin:round;stroke-miterlimit:10;}
</style>
<g>
	<circle class="st0" cx="19.5" cy="10.5" r="2"/>
	<path class="st0" d="M3.5,2c-1.1,0-2,0.9-2,2v5c0,2.8,2.2,5,5,5s5-2.2,5-5V4c0-1.1-0.9-2-2-2 M6.5,14v7.5c0,1.1,0.9,2,2,2
		c1.1,0,2-0.9,2-2v-5c0-1.4,1.1-2.5,2.5-2.5c1.4,0,2.5,1.1,2.5,2.5v3c0,1.1,0.9,2,2,2c1.1,0,2-0.9,2-2v-7"/>
	<path class="st0" d="M5,2c0,1.5-1.5,1.5-1.5,1.5v-3C3.5,0.5,5,0.5,5,2z M8,2c0-1.5,1.5-1.5,1.5-1.5v3C9.5,3.5,8,3.5,8,2z"/>
</g>
</svg>
