<?xml version="1.0" encoding="UTF-8" standalone="no"?>
<svg width="32px" height="32px" viewBox="0 0 32 32" version="1.1" xmlns="http://www.w3.org/2000/svg" xmlns:xlink="http://www.w3.org/1999/xlink">
    <!-- Generator: Sketch 44.1 (41455) - http://www.bohemiancoding.com/sketch -->
    <title>Arbeidsplassikon</title>
    <desc>Created with Sketch.</desc>
    <defs>
        <polygon id="path-1" points="31.3333333 1.33333333 0.666666667 1.33333333 0.666666667 0.666666667 31.3333333 0.666666667"></polygon>
        <polygon id="path-3" points="0 32 32 32 32 0 0 0"></polygon>
    </defs>
    <g id="NAV-Veileder" stroke="none" stroke-width="1" fill="none" fill-rule="evenodd">
        <g id="Velge-arbeidsgiver-nå-flere--internt" transform="translate(-412.000000, -431.000000)">
            <g id="Arbeidsplassikon" transform="translate(412.000000, 431.000000)">
                <g id="Group-8">
                    <g id="Group-3" transform="translate(0.000000, 30.666667)">
                        <mask id="mask-2" fill="white">
                            <use xlink:href="#path-1"></use>
                        </mask>
                        <g id="Clip-2"></g>
                        <path d="M0.666666667,0.666666667 L31.3333333,0.666666667" id="Stroke-1" stroke="#000000" stroke-linecap="round" stroke-linejoin="round" mask="url(#mask-2)"></path>
                    </g>
                    <mask id="mask-4" fill="white">
                        <use xlink:href="#path-3"></use>
                    </mask>
                    <g id="Clip-5"></g>
                    <polygon id="Stroke-4" stroke="#000000" stroke-linecap="round" stroke-linejoin="round" mask="url(#mask-4)" points="6 31.3333333 26 31.3333333 26 6 6 6"></polygon>
                    <polygon id="Stroke-6" stroke="#000000" stroke-linecap="round" stroke-linejoin="round" mask="url(#mask-4)" points="27.3333333 4.66666667 16 0.666666667 4.66666667 4.66666667 4.66666667 6 27.3333333 6"></polygon>
                    <polygon id="Stroke-7" stroke="#000000" stroke-linecap="round" stroke-linejoin="round" mask="url(#mask-4)" points="14 31.3333333 18 31.3333333 18 24.6666667 14 24.6666667"></polygon>
                </g>
                <polygon id="Stroke-9" stroke="#000000" stroke-linecap="round" stroke-linejoin="round" points="8.66666667 11.3333333 11.3333333 11.3333333 11.3333333 8.66666667 8.66666667 8.66666667"></polygon>
                <polygon id="Stroke-10" stroke="#000000" stroke-linecap="round" stroke-linejoin="round" points="14 11.3333333 18 11.3333333 18 8.66666667 14 8.66666667"></polygon>
                <polygon id="Stroke-11" stroke="#000000" stroke-linecap="round" stroke-linejoin="round" points="20.6666667 11.3333333 23.3333333 11.3333333 23.3333333 8.66666667 20.6666667 8.66666667"></polygon>
                <polygon id="Stroke-12" stroke="#000000" stroke-linecap="round" stroke-linejoin="round" points="8.66666667 16.6666667 11.3333333 16.6666667 11.3333333 14 8.66666667 14"></polygon>
                <polygon id="Stroke-13" stroke="#000000" stroke-linecap="round" stroke-linejoin="round" points="14 16.6666667 18 16.6666667 18 14 14 14"></polygon>
                <polygon id="Stroke-14" stroke="#000000" stroke-linecap="round" stroke-linejoin="round" points="20.6666667 16.6666667 23.3333333 16.6666667 23.3333333 14 20.6666667 14"></polygon>
                <polygon id="Stroke-15" stroke="#000000" stroke-linecap="round" stroke-linejoin="round" points="8.66666667 22 11.3333333 22 11.3333333 19.3333333 8.66666667 19.3333333"></polygon>
                <polygon id="Stroke-16" stroke="#000000" stroke-linecap="round" stroke-linejoin="round" points="14 22 18 22 18 19.3333333 14 19.3333333"></polygon>
                <polygon id="Stroke-17" stroke="#000000" stroke-linecap="round" stroke-linejoin="round" points="20.6666667 22 23.3333333 22 23.3333333 19.3333333 20.6666667 19.3333333"></polygon>
                <polygon id="Stroke-18" stroke="#000000" stroke-linecap="round" stroke-linejoin="round" points="8.66666667 27.3333333 11.3333333 27.3333333 11.3333333 24.6666667 8.66666667 24.6666667"></polygon>
                <polygon id="Stroke-19" stroke="#000000" stroke-linecap="round" stroke-linejoin="round" points="20.6666667 27.3333333 23.3333333 27.3333333 23.3333333 24.6666667 20.6666667 24.6666667"></polygon>
            </g>
        </g>
    </g>
</svg>