<?xml version="1.0" encoding="UTF-8"?>
<svg width="72px" height="72px" viewBox="0 0 72 72" version="1.1" xmlns="http://www.w3.org/2000/svg" xmlns:xlink="http://www.w3.org/1999/xlink">
    <!-- Generator: Sketch 46.2 (44496) - http://www.bohemiancoding.com/sketch -->
    <title>NAV</title>
    <desc>Created with Sketch.</desc>
    <defs>
        <circle id="path-1" cx="36" cy="36" r="36"></circle>
    </defs>
    <g id="Page-9" stroke="none" stroke-width="1" fill="none" fill-rule="evenodd">
        <g id="NAV">
            <g id="Group-11">
                <g id="Navansatt-dame">
                    <mask id="mask-2" fill="white">
                        <use xlink:href="#path-1"></use>
                    </mask>
                    <use id="Mask" fill="#AFE3F7" xlink:href="#path-1"></use>
                    <g mask="url(#mask-2)">
                        <g transform="translate(14.400000, 13.500000)">
                            <path d="M39.296807,19.326556 L39.262933,19.326556 C39.262933,8.7940125 31.6304374,0.255555978 22.2147678,0.255555978 C12.7997374,0.255555978 5.16724174,8.7940125 5.16724174,19.326556 L5.16724174,19.336094 C5.16404609,28.3311049 0.504785217,33.4733821 0.504785217,33.4733821 C0.504785217,33.4733821 5.10588522,39.0925614 22.215407,39.0925614 C22.2211591,39.0925614 22.2269113,39.0919255 22.2320243,39.0919255 C22.2384157,39.0919255 22.2428896,39.0925614 22.2486417,39.0925614 C39.3588026,39.0925614 43.9599026,33.4733821 43.9599026,33.4733821 C43.9599026,33.4733821 39.296807,28.3272897 39.296807,19.326556" id="Fill-94" fill="#E57F68"></path>
                            <path d="M27.4401065,33.032025 L22.2324717,33.032025 L17.024837,33.032025 C14.217137,33.032025 4.98361957,38.818438 4.98361957,44.2061609 L4.98361957,58.3809652 L39.4806848,58.3809652 L39.4806848,44.2061609 C39.4806848,38.818438 30.2478065,33.032025 27.4401065,33.032025" id="Fill-95" fill="#624B7F"></path>
                            <path d="M37.2554883,17.1041283 C37.1640926,16.5769924 36.7064752,16.1757587 36.1510709,16.1757587 C36.0079057,16.1757587 35.8717709,16.2050087 35.7465013,16.2533348 C35.7298839,16.2552424 35.7151839,16.2565141 35.6985665,16.2577859 C31.5333535,10.6150793 23.4106448,15.8209435 17.2117187,10.4325848 C16.4172796,9.58942174 16.003123,9.00251413 15.8944709,9.00251413 C15.8944709,9.00251413 9.88153174,14.1886663 8.88065348,16.1757587 C8.88065348,16.1757587 8.80971,16.3175576 8.71895348,16.2533348 C8.59304478,16.2050087 8.45754913,16.1757587 8.31438391,16.1757587 C7.75834043,16.1757587 7.29944478,16.5776283 7.20868826,17.1041283 C7.18567957,17.19315 7.1697013,17.2853511 7.1697013,17.3813674 L7.1697013,21.9024 C7.1697013,22.5204652 7.67333609,23.0221663 8.29521,23.0221663 C8.54447087,23.0221663 8.77264043,22.9388674 8.95926652,22.8021554 C9.94224913,27.2761337 12.5575709,30.9813457 16.0171839,33.0364761 C15.0546535,33.4358022 13.5712317,34.2172859 13.5712317,34.2172859 C14.2774709,35.2486663 16.2830622,40.0482098 22.2288926,40.0482098 C28.174723,40.0482098 30.1860665,35.2493022 30.8929448,34.2172859 C30.8929448,34.2172859 29.5987057,33.5108348 28.5070709,33.0015033 C31.9372839,30.9387424 34.5276796,27.250063 35.5055491,22.8021554 C35.6921752,22.9388674 35.9203448,23.0221663 36.1689665,23.0221663 C36.7908404,23.0221663 37.2944752,22.5204652 37.2944752,21.9024 L37.2944752,17.3813674 C37.2944752,17.2853511 37.278497,17.19315 37.2554883,17.1041283" id="Fill-96" fill="#E7E5E2"></path>
                            <path d="M35.549713,53.4546929 L24.8660087,53.4546929 C24.3892174,53.4546929 24.0031826,53.0706277 24.0031826,52.596269 L24.0031826,46.8817092 C24.0031826,46.4073505 24.3892174,46.0226495 24.8660087,46.0226495 L35.549713,46.0226495 C36.0265043,46.0226495 36.4131783,46.4073505 36.4131783,46.8817092 L36.4131783,52.596269 C36.4131783,53.0706277 36.0265043,53.4546929 35.549713,53.4546929" id="Fill-97" fill="#D2242A"></path>
                            <path d="M33.0218883,49.8659723 C33.0218883,51.3615375 31.8037057,52.5754125 30.3004709,52.5754125 C28.7946796,52.5754125 27.5758578,51.3615375 27.5758578,49.8659723 C27.5758578,48.3704071 28.7946796,47.1565321 30.3004709,47.1565321 C31.8037057,47.1565321 33.0218883,48.3704071 33.0218883,49.8659723" id="Fill-98" fill="#FFFFFF"></path>
                            <polygon id="Fill-99" fill="#FFFFFF" points="26.7725987 51.0602625 26.2414813 51.0602625 26.8090291 49.6759745 27.3414248 49.6759745"></polygon>
                            <polygon id="Fill-100" fill="#FFFFFF" points="33.4662757 51.0602625 33.1371235 51.0602625 33.7046713 49.6759745 34.0338235 49.6759745"></polygon>
                            <polygon id="Fill-101" fill="#FFFFFF" points="34.3747357 51.0602625 34.2354052 51.0602625 34.8016748 49.6759745 34.9410052 49.6759745"></polygon>
                            <path d="M28.2318613,51.0535859 L28.6498526,51.0535859 C28.671583,51.0535859 28.6882004,51.0370533 28.6882004,51.0160696 L28.6882004,49.7208033 C28.6882004,49.6998196 28.671583,49.683287 28.6498526,49.683287 L28.2273874,49.683287 C28.1992657,49.683287 28.1788135,49.7049065 28.1788135,49.7322489 L28.0126396,50.1398413 C28.0024135,50.160825 28.0190309,50.1862598 28.0414004,50.1862598 L28.1609178,50.1862598 C28.1788135,50.1862598 28.1941526,50.199613 28.1941526,50.219325 L28.1941526,51.0160696 C28.1941526,51.0370533 28.21077,51.0535859 28.2318613,51.0535859" id="Fill-102" fill="#C52D35"></path>
                            <path d="M29.1400017,51.0535859 L29.5592713,51.0535859 C29.5810017,51.0535859 29.5995365,51.0370533 29.5995365,51.0160696 L29.5995365,49.7208033 C29.5995365,49.6998196 29.5810017,49.683287 29.5592713,49.683287 L28.9073583,49.683287 C28.8798757,49.683287 28.8581452,49.7049065 28.8581452,49.7322489 L28.6913322,50.1398413 L28.6338104,50.1862598 L28.9674365,50.1862598 C29.0415757,50.1862598 29.102293,50.2447598 29.102293,50.3197924 L29.102293,51.0160696 C29.102293,51.0370533 29.1189104,51.0535859 29.1400017,51.0535859" id="Fill-103" fill="#C52D35"></path>
                            <path d="M31.0148909,49.6834141 L30.5956213,49.6834141 C30.57453,49.6834141 30.5572735,49.6999467 30.5572735,49.7209304 L30.5572735,51.0161967 C30.5572735,51.0371804 30.57453,51.053713 30.5956213,51.053713 L31.0193648,51.053713 C31.0474865,51.053713 31.0679387,51.0320935 31.0679387,51.0047511 L31.2341126,50.5971587 C31.2443387,50.5749033 31.2283604,50.5507402 31.2027952,50.5507402 L31.0871126,50.5507402 C31.0679387,50.5507402 31.054517,50.5354793 31.054517,50.5183109 L31.054517,49.7209304 C31.054517,49.6999467 31.035343,49.6834141 31.0148909,49.6834141" id="Fill-104" fill="#C52D35"></path>
                            <path d="M29.2903891,51.0535859 L29.5658543,51.0535859 C29.5926978,51.0535859 29.6144283,51.0313304 29.6144283,51.0052598 L29.7806022,50.5963957 C29.7901891,50.5747761 29.7742109,50.5499772 29.7499239,50.5499772 L29.6336022,50.5499772 L29.2903891,51.0535859 Z" id="Fill-105" fill="#C52D35"></path>
                            <path d="M32.1368204,49.6834141 L32.6353422,49.6834141 C32.6596291,49.6834141 32.6768857,49.7063054 32.6666596,49.7285609 L32.1387378,51.0327293 C32.134903,51.0460826 32.1227596,51.053713 32.1080596,51.053713 L31.6568335,51.053713 L32.1042248,49.7056696 C32.1093378,49.6923163 32.1227596,49.6834141 32.1368204,49.6834141" id="Fill-106" fill="#C52D35"></path>
                            <path d="M31.5117509,49.6834141 L30.80679,49.6834141 C30.7569378,49.6834141 31.0093943,49.7317402 31.02729,49.776887 L31.5258117,51.0104739 C31.5360378,51.0378163 31.561603,51.053713 31.5897248,51.053713 L32.017303,51.053713 L31.5775813,49.7298326 C31.5679943,49.7005826 31.5411509,49.6834141 31.5117509,49.6834141" id="Fill-107" fill="#C52D35"></path>
                            <path d="M30.1585839,49.6834141 C30.3918665,49.6834141 30.5912752,49.8430174 30.5912752,50.1228 C30.5912752,50.3987674 30.556123,50.4153 30.556123,50.4153 C30.556123,50.4153 30.516497,50.1507783 30.3113361,50.1507783 C30.11001,50.1507783 30.0639926,50.2677783 30.0639926,50.3548924 C30.0639926,50.4559957 30.1668926,50.5507402 30.2244143,50.5507402 L30.5912752,50.5507402 L30.37461,51.0282783 C30.3669404,51.044175 30.3516013,51.053713 30.3343448,51.053713 L30.1675317,51.053713 C29.9930491,51.053713 29.5373491,50.8260717 29.5373491,50.3854141 C29.5373491,49.9441207 29.8760883,49.6834141 30.1585839,49.6834141" id="Fill-108" fill="#C52D35"></path>
                            <path d="M30.910393,46.7971386 L29.7542061,46.7971386 C29.6685626,46.7971386 29.5995365,46.7284647 29.5995365,46.6432582 L29.5995365,46.4493179 C29.5995365,46.3647473 29.6685626,46.2954375 29.7542061,46.2954375 L30.910393,46.2954375 C30.9960365,46.2954375 31.0650626,46.3647473 31.0650626,46.4493179 L31.0650626,46.6432582 C31.0650626,46.7284647 30.9960365,46.7971386 30.910393,46.7971386" id="Fill-109" fill="#5A1F57"></path>
                            <polygon id="Fill-110" fill="#835184" points="29.997587 46.5946141 30.6673957 46.5946141 30.6673957 44.6005272 29.997587 44.6005272"></polygon>
                        </g>
                    </g>
                </g>
            </g>
            <g id="Smil-dame" transform="translate(30.000000, 28.800000)">
                <path d="M1.171728,3.942432 C0.129888,4.020912 -0.161712,2.485152 0.152208,1.482192 C0.211248,1.292112 0.556128,0.426672 1.166688,0.426672 C1.776528,0.426672 2.045808,0.899712 2.083248,0.981072 C2.531808,1.958832 2.311488,3.856032 1.171728,3.942432" id="Fill-41" fill="#635E59"></path>
                <path d="M12.799296,3.942432 C13.841136,4.020912 14.132736,2.485152 13.818816,1.482192 C13.759776,1.292112 13.414896,0.426672 12.804336,0.426672 C12.194496,0.426672 11.925216,0.899712 11.887776,0.981072 C11.439216,1.958832 11.659536,3.856032 12.799296,3.942432" id="Fill-43" fill="#635E59"></path>
                <path d="M7.261128,5.352264 C7.883208,5.256504 8.490888,5.279544 8.776008,5.629464 C9.470808,6.483384 9.271368,7.469064 8.101368,8.196984 C7.516728,8.560584 6.688728,8.709624 6.181128,8.484984" id="Stroke-45" stroke="#D1BFA3" stroke-width="0.506" stroke-linecap="round"></path>
                <path d="M11.749536,11.10132 C11.749536,11.10132 10.433376,14.11596 6.771456,14.00364 C3.109536,13.89132 1.736496,11.10132 1.736496,11.10132" id="Stroke-47" stroke="#D19E9C" stroke-width="0.8" stroke-linecap="round"></path>
            </g>
        </g>
    </g>
</svg>