<?xml version="1.0" encoding="UTF-8" standalone="no"?>
<svg width="246px" height="39px" viewBox="0 0 246 39" version="1.1" xmlns="http://www.w3.org/2000/svg" xmlns:xlink="http://www.w3.org/1999/xlink">
    <!-- Generator: Sketch 40.1 (33804) - http://www.bohemiancoding.com/sketch -->
    <title>sladd</title>
    <desc>Created with Sketch.</desc>
    <defs>
        <polygon id="path-1" points="8.8536 38.479 0.437 38.479 0.437 0.563 8.8536 0.563 8.8536 38.479"></polygon>
        <polygon id="path-3" points="13.1869 38.479 0.437 38.479 0.437 0.563 13.1869 0.563 13.1869 38.479"></polygon>
        <polygon id="path-5" points="17.5202 38.479 0.437 38.479 0.437 0.563 17.5202 0.563 17.5202 38.479"></polygon>
        <polygon id="path-7" points="21.8536 38.479 0.437 38.479 0.437 0.563 21.8536 0.563 21.8536 38.479"></polygon>
        <polygon id="path-9" points="26.1869 38.479 0.437 38.479 0.437 0.563 26.1869 0.563 26.1869 38.479"></polygon>
        <polygon id="path-11" points="30.5202 38.479 0.437 38.479 0.437 0.563 30.5202 0.563 30.5202 38.479"></polygon>
        <polygon id="path-13" points="34.8536 38.479 0.437 38.479 0.437 0.563 34.8536 0.563 34.8536 38.479"></polygon>
        <polygon id="path-15" points="39.1869 38.479 0.437 38.479 0.437 0.563 39.1869 0.563 39.1869 38.479"></polygon>
        <polygon id="path-17" points="43.5202 38.479 0.437 38.479 0.437 0.563 43.5202 0.563 43.5202 38.479"></polygon>
        <polygon id="path-19" points="47.8536 38.479 0.437 38.479 0.437 0.563 47.8536 0.563 47.8536 38.479"></polygon>
        <polygon id="path-21" points="0.6869 38.479 52.1869 38.479 52.1869 0.563 0.6869 0.563"></polygon>
        <polygon id="path-23" points="0.0202 38.479 51.5202 38.479 51.5202 0.563 0.0202 0.563 0.0202 38.479"></polygon>
        <polygon id="path-25" points="0.3536 38.479 51.8536 38.479 51.8536 0.563 0.3536 0.563"></polygon>
        <polygon id="path-27" points="0.6869 38.479 52.1869 38.479 52.1869 0.563 0.6869 0.563 0.6869 38.479"></polygon>
        <polygon id="path-29" points="0.0202 38.479 51.5202 38.479 51.5202 0.563 0.0202 0.563 0.0202 38.479"></polygon>
        <polygon id="path-31" points="0.3536 38.479 51.8536 38.479 51.8536 0.563 0.3536 0.563"></polygon>
        <polygon id="path-33" points="0.6869 38.479 52.1869 38.479 52.1869 0.563 0.6869 0.563 0.6869 38.479"></polygon>
        <polygon id="path-35" points="0.0202 38.479 51.5202 38.479 51.5202 0.563 0.0202 0.563 0.0202 38.479"></polygon>
        <polygon id="path-37" points="0.3535 38.479 51.8535 38.479 51.8535 0.563 0.3535 0.563"></polygon>
        <polygon id="path-39" points="0.6869 38.479 52.1869 38.479 52.1869 0.563 0.6869 0.563 0.6869 38.479"></polygon>
        <polygon id="path-41" points="0.0202 38.479 51.5202 38.479 51.5202 0.563 0.0202 0.563"></polygon>
        <polygon id="path-43" points="0.3535 38.479 51.8535 38.479 51.8535 0.563 0.3535 0.563"></polygon>
        <polygon id="path-45" points="0.6869 38.479 52.1869 38.479 52.1869 0.563 0.6869 0.563 0.6869 38.479"></polygon>
        <polygon id="path-47" points="0.0202 38.479 51.5202 38.479 51.5202 0.563 0.0202 0.563"></polygon>
        <polygon id="path-49" points="0.3535 38.479 51.8535 38.479 51.8535 0.563 0.3535 0.563 0.3535 38.479"></polygon>
        <polygon id="path-51" points="0.6869 38.479 52.1869 38.479 52.1869 0.563 0.6869 0.563 0.6869 38.479"></polygon>
        <polygon id="path-53" points="0.0202 38.479 51.5202 38.479 51.5202 0.563 0.0202 0.563"></polygon>
        <polygon id="path-55" points="0.3535 38.479 51.8535 38.479 51.8535 0.563 0.3535 0.563 0.3535 38.479"></polygon>
        <polygon id="path-57" points="0.6869 38.479 52.1869 38.479 52.1869 0.563 0.6869 0.563"></polygon>
        <polygon id="path-59" points="0.0202 38.479 51.5202 38.479 51.5202 0.563 0.0202 0.563"></polygon>
        <polygon id="path-61" points="0.3535 38.479 51.8535 38.479 51.8535 0.563 0.3535 0.563 0.3535 38.479"></polygon>
        <polygon id="path-63" points="0.6869 38.479 52.1869 38.479 52.1869 0.563 0.6869 0.563 0.6869 38.479"></polygon>
        <polygon id="path-65" points="0.0202 38.479 51.5202 38.479 51.5202 0.563 0.0202 0.563"></polygon>
        <polygon id="path-67" points="0.3535 38.479 51.8535 38.479 51.8535 0.563 0.3535 0.563 0.3535 38.479"></polygon>
        <polygon id="path-69" points="0.6869 38.479 52.1869 38.479 52.1869 0.563 0.6869 0.563 0.6869 38.479"></polygon>
        <polygon id="path-71" points="0.0202 38.479 51.5202 38.479 51.5202 0.563 0.0202 0.563 0.0202 38.479"></polygon>
        <polygon id="path-73" points="0.3535 38.479 51.8535 38.479 51.8535 0.563 0.3535 0.563"></polygon>
        <polygon id="path-75" points="0.6869 38.479 52.1869 38.479 52.1869 0.563 0.6869 0.563"></polygon>
        <polygon id="path-77" points="0.0202 38.479 51.5202 38.479 51.5202 0.563 0.0202 0.563 0.0202 38.479"></polygon>
        <polygon id="path-79" points="0.3535 38.479 51.8535 38.479 51.8535 0.563 0.3535 0.563 0.3535 38.479"></polygon>
        <polygon id="path-81" points="0.6869 38.479 52.1869 38.479 52.1869 0.563 0.6869 0.563"></polygon>
        <polygon id="path-83" points="0.0202 38.479 51.5202 38.479 51.5202 0.563 0.0202 0.563 0.0202 38.479"></polygon>
        <polygon id="path-85" points="0.3535 38.479 51.8535 38.479 51.8535 0.563 0.3535 0.563"></polygon>
        <polygon id="path-87" points="0.6869 38.479 52.1869 38.479 52.1869 0.563 0.6869 0.563 0.6869 38.479"></polygon>
        <polygon id="path-89" points="0.0202 38.479 51.5202 38.479 51.5202 0.563 0.0202 0.563 0.0202 38.479"></polygon>
        <polygon id="path-91" points="0.3535 38.479 51.8535 38.479 51.8535 0.563 0.3535 0.563 0.3535 38.479"></polygon>
        <polygon id="path-93" points="0.6869 38.479 52.1869 38.479 52.1869 0.563 0.6869 0.563 0.6869 38.479"></polygon>
        <polygon id="path-95" points="0.0202 38.479 51.5202 38.479 51.5202 0.563 0.0202 0.563 0.0202 38.479"></polygon>
        <polygon id="path-97" points="0.3535 38.479 51.8535 38.479 51.8535 0.563 0.3535 0.563 0.3535 38.479"></polygon>
        <polygon id="path-99" points="0.6869 38.479 52.1869 38.479 52.1869 0.563 0.6869 0.563"></polygon>
        <polygon id="path-101" points="0.0202 38.479 51.5202 38.479 51.5202 0.563 0.0202 0.563 0.0202 38.479"></polygon>
        <polygon id="path-103" points="0.3535 38.479 51.8535 38.479 51.8535 0.563 0.3535 0.563 0.3535 38.479"></polygon>
        <polygon id="path-105" points="0.6869 38.479 52.1869 38.479 52.1869 0.563 0.6869 0.563 0.6869 38.479"></polygon>
        <polygon id="path-107" points="0.0202 38.479 51.5202 38.479 51.5202 0.563 0.0202 0.563"></polygon>
        <polygon id="path-109" points="0.3535 38.479 51.8535 38.479 51.8535 0.563 0.3535 0.563"></polygon>
        <polygon id="path-111" points="0.6869 38.479 50.52 38.479 50.52 0.563 0.6869 0.563"></polygon>
        <polygon id="path-113" points="0.0202 38.479 45.52 38.479 45.52 0.563 0.0202 0.563 0.0202 38.479"></polygon>
        <polygon id="path-115" points="0.3535 38.479 41.52 38.479 41.52 0.563 0.3535 0.563 0.3535 38.479"></polygon>
        <polygon id="path-117" points="0.6869 38.479 37.52 38.479 37.52 0.563 0.6869 0.563"></polygon>
        <polygon id="path-119" points="0.0202 38.479 32.52 38.479 32.52 0.563 0.0202 0.563"></polygon>
        <polygon id="path-121" points="0.3535 38.479 28.52 38.479 28.52 0.563 0.3535 0.563"></polygon>
        <polygon id="path-123" points="0.6869 38.479 24.52 38.479 24.52 0.563 0.6869 0.563"></polygon>
        <polygon id="path-125" points="0.0202 38.479 19.52 38.479 19.52 0.563 0.0202 0.563"></polygon>
        <polygon id="path-127" points="0.3535 38.479 15.52 38.479 15.52 0.563 0.3535 0.563"></polygon>
        <polygon id="path-129" points="0.6869 38.479 11.52 38.479 11.52 0.563 0.6869 0.563"></polygon>
        <polygon id="path-131" points="0.0202 38.479 6.52 38.479 6.52 0.563 0.0202 0.563"></polygon>
        <polygon id="path-133" points="0.3535 38.479 2.52 38.479 2.52 0.563 0.3535 0.563 0.3535 38.479"></polygon>
    </defs>
    <g id="Send-til-arbeidsgiver" stroke="none" stroke-width="1" fill="none" fill-rule="evenodd">
        <g id="Altinn-med-nærmeste-leder" transform="translate(-60.000000, -304.000000)">
            <g id="sladd" transform="translate(60.000000, 304.000000)">
                <rect id="Bakgrunn---sykemelding-Copy-3" fill="#FFFFFF" x="0" y="0" width="246" height="38.974359"></rect>
                <g id="Page-1">
                    <g id="Group-3" transform="translate(0.000000, 0.207100)">
                        <mask id="mask-2" fill="white">
                            <use xlink:href="#path-1"></use>
                        </mask>
                        <g id="Clip-2"></g>
                        <path d="M8.8536,-7.8536 L-42.6464,43.6464" id="Stroke-1" stroke="#3E3832" mask="url(#mask-2)"></path>
                    </g>
                    <g id="Group-6" transform="translate(0.000000, 0.207100)">
                        <mask id="mask-4" fill="white">
                            <use xlink:href="#path-3"></use>
                        </mask>
                        <g id="Clip-5"></g>
                        <path d="M13.1869,-7.8536 L-38.3131,43.6464" id="Stroke-4" stroke="#3E3832" mask="url(#mask-4)"></path>
                    </g>
                    <g id="Group-9" transform="translate(0.000000, 0.207100)">
                        <mask id="mask-6" fill="white">
                            <use xlink:href="#path-5"></use>
                        </mask>
                        <g id="Clip-8"></g>
                        <path d="M17.5202,-7.8536 L-33.9798,43.6464" id="Stroke-7" stroke="#3E3832" mask="url(#mask-6)"></path>
                    </g>
                    <g id="Group-12" transform="translate(0.000000, 0.207100)">
                        <mask id="mask-8" fill="white">
                            <use xlink:href="#path-7"></use>
                        </mask>
                        <g id="Clip-11"></g>
                        <path d="M21.8536,-7.8536 L-29.6464,43.6464" id="Stroke-10" stroke="#3E3832" mask="url(#mask-8)"></path>
                    </g>
                    <g id="Group-15" transform="translate(0.000000, 0.207100)">
                        <mask id="mask-10" fill="white">
                            <use xlink:href="#path-9"></use>
                        </mask>
                        <g id="Clip-14"></g>
                        <path d="M26.1869,-7.8536 L-25.3131,43.6464" id="Stroke-13" stroke="#3E3832" mask="url(#mask-10)"></path>
                    </g>
                    <g id="Group-18" transform="translate(0.000000, 0.207100)">
                        <mask id="mask-12" fill="white">
                            <use xlink:href="#path-11"></use>
                        </mask>
                        <g id="Clip-17"></g>
                        <path d="M30.5202,-7.8536 L-20.9798,43.6464" id="Stroke-16" stroke="#3E3832" mask="url(#mask-12)"></path>
                    </g>
                    <g id="Group-21" transform="translate(0.000000, 0.207100)">
                        <mask id="mask-14" fill="white">
                            <use xlink:href="#path-13"></use>
                        </mask>
                        <g id="Clip-20"></g>
                        <path d="M34.8536,-7.8536 L-16.6464,43.6464" id="Stroke-19" stroke="#3E3832" mask="url(#mask-14)"></path>
                    </g>
                    <g id="Group-24" transform="translate(0.000000, 0.207100)">
                        <mask id="mask-16" fill="white">
                            <use xlink:href="#path-15"></use>
                        </mask>
                        <g id="Clip-23"></g>
                        <path d="M39.1869,-7.8536 L-12.3131,43.6464" id="Stroke-22" stroke="#3E3832" mask="url(#mask-16)"></path>
                    </g>
                    <g id="Group-27" transform="translate(0.000000, 0.207100)">
                        <mask id="mask-18" fill="white">
                            <use xlink:href="#path-17"></use>
                        </mask>
                        <g id="Clip-26"></g>
                        <path d="M43.5202,-7.8536 L-7.9798,43.6464" id="Stroke-25" stroke="#3E3832" mask="url(#mask-18)"></path>
                    </g>
                    <g id="Group-30" transform="translate(0.000000, 0.207100)">
                        <mask id="mask-20" fill="white">
                            <use xlink:href="#path-19"></use>
                        </mask>
                        <g id="Clip-29"></g>
                        <path d="M47.8536,-7.8536 L-3.6464,43.6464" id="Stroke-28" stroke="#3E3832" mask="url(#mask-20)"></path>
                    </g>
                    <g id="Group-33" transform="translate(0.000000, 0.207100)">
                        <mask id="mask-22" fill="white">
                            <use xlink:href="#path-21"></use>
                        </mask>
                        <g id="Clip-32"></g>
                        <path d="M52.1869,-7.8536 L0.6869,43.6464" id="Stroke-31" stroke="#3E3832" mask="url(#mask-22)"></path>
                    </g>
                    <g id="Group-36" transform="translate(5.000000, 0.207100)">
                        <mask id="mask-24" fill="white">
                            <use xlink:href="#path-23"></use>
                        </mask>
                        <g id="Clip-35"></g>
                        <path d="M51.5202,-7.8536 L0.0202,43.6464" id="Stroke-34" stroke="#3E3832" mask="url(#mask-24)"></path>
                    </g>
                    <g id="Group-39" transform="translate(9.000000, 0.207100)">
                        <mask id="mask-26" fill="white">
                            <use xlink:href="#path-25"></use>
                        </mask>
                        <g id="Clip-38"></g>
                        <path d="M51.8536,-7.8536 L0.3536,43.6464" id="Stroke-37" stroke="#3E3832" mask="url(#mask-26)"></path>
                    </g>
                    <g id="Group-42" transform="translate(13.000000, 0.207100)">
                        <mask id="mask-28" fill="white">
                            <use xlink:href="#path-27"></use>
                        </mask>
                        <g id="Clip-41"></g>
                        <path d="M52.1869,-7.8536 L0.6869,43.6464" id="Stroke-40" stroke="#3E3832" mask="url(#mask-28)"></path>
                    </g>
                    <g id="Group-45" transform="translate(18.000000, 0.207100)">
                        <mask id="mask-30" fill="white">
                            <use xlink:href="#path-29"></use>
                        </mask>
                        <g id="Clip-44"></g>
                        <path d="M51.5202,-7.8536 L0.0202,43.6464" id="Stroke-43" stroke="#3E3832" mask="url(#mask-30)"></path>
                    </g>
                    <g id="Group-48" transform="translate(22.000000, 0.207100)">
                        <mask id="mask-32" fill="white">
                            <use xlink:href="#path-31"></use>
                        </mask>
                        <g id="Clip-47"></g>
                        <path d="M51.8536,-7.8536 L0.3536,43.6464" id="Stroke-46" stroke="#3E3832" mask="url(#mask-32)"></path>
                    </g>
                    <g id="Group-51" transform="translate(26.000000, 0.207100)">
                        <mask id="mask-34" fill="white">
                            <use xlink:href="#path-33"></use>
                        </mask>
                        <g id="Clip-50"></g>
                        <path d="M52.1869,-7.8536 L0.6869,43.6464" id="Stroke-49" stroke="#3E3832" mask="url(#mask-34)"></path>
                    </g>
                    <g id="Group-54" transform="translate(31.000000, 0.207100)">
                        <mask id="mask-36" fill="white">
                            <use xlink:href="#path-35"></use>
                        </mask>
                        <g id="Clip-53"></g>
                        <path d="M51.5202,-7.8536 L0.0202,43.6464" id="Stroke-52" stroke="#3E3832" mask="url(#mask-36)"></path>
                    </g>
                    <g id="Group-57" transform="translate(35.000000, 0.207100)">
                        <mask id="mask-38" fill="white">
                            <use xlink:href="#path-37"></use>
                        </mask>
                        <g id="Clip-56"></g>
                        <path d="M51.8535,-7.8536 L0.3535,43.6464" id="Stroke-55" stroke="#3E3832" mask="url(#mask-38)"></path>
                    </g>
                    <g id="Group-60" transform="translate(39.000000, 0.207100)">
                        <mask id="mask-40" fill="white">
                            <use xlink:href="#path-39"></use>
                        </mask>
                        <g id="Clip-59"></g>
                        <path d="M52.1869,-7.8536 L0.6869,43.6464" id="Stroke-58" stroke="#3E3832" mask="url(#mask-40)"></path>
                    </g>
                    <g id="Group-63" transform="translate(44.000000, 0.207100)">
                        <mask id="mask-42" fill="white">
                            <use xlink:href="#path-41"></use>
                        </mask>
                        <g id="Clip-62"></g>
                        <path d="M51.5202,-7.8536 L0.0202,43.6464" id="Stroke-61" stroke="#3E3832" mask="url(#mask-42)"></path>
                    </g>
                    <g id="Group-66" transform="translate(48.000000, 0.207100)">
                        <mask id="mask-44" fill="white">
                            <use xlink:href="#path-43"></use>
                        </mask>
                        <g id="Clip-65"></g>
                        <path d="M51.8535,-7.8536 L0.3535,43.6464" id="Stroke-64" stroke="#3E3832" mask="url(#mask-44)"></path>
                    </g>
                    <g id="Group-69" transform="translate(52.000000, 0.207100)">
                        <mask id="mask-46" fill="white">
                            <use xlink:href="#path-45"></use>
                        </mask>
                        <g id="Clip-68"></g>
                        <path d="M52.1869,-7.8536 L0.6869,43.6464" id="Stroke-67" stroke="#3E3832" mask="url(#mask-46)"></path>
                    </g>
                    <g id="Group-72" transform="translate(57.000000, 0.207100)">
                        <mask id="mask-48" fill="white">
                            <use xlink:href="#path-47"></use>
                        </mask>
                        <g id="Clip-71"></g>
                        <path d="M51.5202,-7.8536 L0.0202,43.6464" id="Stroke-70" stroke="#3E3832" mask="url(#mask-48)"></path>
                    </g>
                    <g id="Group-75" transform="translate(61.000000, 0.207100)">
                        <mask id="mask-50" fill="white">
                            <use xlink:href="#path-49"></use>
                        </mask>
                        <g id="Clip-74"></g>
                        <path d="M51.8535,-7.8536 L0.3535,43.6464" id="Stroke-73" stroke="#3E3832" mask="url(#mask-50)"></path>
                    </g>
                    <g id="Group-78" transform="translate(65.000000, 0.207100)">
                        <mask id="mask-52" fill="white">
                            <use xlink:href="#path-51"></use>
                        </mask>
                        <g id="Clip-77"></g>
                        <path d="M52.1869,-7.8536 L0.6869,43.6464" id="Stroke-76" stroke="#3E3832" mask="url(#mask-52)"></path>
                    </g>
                    <g id="Group-81" transform="translate(70.000000, 0.207100)">
                        <mask id="mask-54" fill="white">
                            <use xlink:href="#path-53"></use>
                        </mask>
                        <g id="Clip-80"></g>
                        <path d="M51.5202,-7.8536 L0.0202,43.6464" id="Stroke-79" stroke="#3E3832" mask="url(#mask-54)"></path>
                    </g>
                    <g id="Group-84" transform="translate(74.000000, 0.207100)">
                        <mask id="mask-56" fill="white">
                            <use xlink:href="#path-55"></use>
                        </mask>
                        <g id="Clip-83"></g>
                        <path d="M51.8535,-7.8536 L0.3535,43.6464" id="Stroke-82" stroke="#3E3832" mask="url(#mask-56)"></path>
                    </g>
                    <g id="Group-87" transform="translate(78.000000, 0.207100)">
                        <mask id="mask-58" fill="white">
                            <use xlink:href="#path-57"></use>
                        </mask>
                        <g id="Clip-86"></g>
                        <path d="M52.1869,-7.8536 L0.6869,43.6464" id="Stroke-85" stroke="#3E3832" mask="url(#mask-58)"></path>
                    </g>
                    <g id="Group-90" transform="translate(83.000000, 0.207100)">
                        <mask id="mask-60" fill="white">
                            <use xlink:href="#path-59"></use>
                        </mask>
                        <g id="Clip-89"></g>
                        <path d="M51.5202,-7.8536 L0.0202,43.6464" id="Stroke-88" stroke="#3E3832" mask="url(#mask-60)"></path>
                    </g>
                    <g id="Group-93" transform="translate(87.000000, 0.207100)">
                        <mask id="mask-62" fill="white">
                            <use xlink:href="#path-61"></use>
                        </mask>
                        <g id="Clip-92"></g>
                        <path d="M51.8535,-7.8536 L0.3535,43.6464" id="Stroke-91" stroke="#3E3832" mask="url(#mask-62)"></path>
                    </g>
                    <g id="Group-96" transform="translate(91.000000, 0.207100)">
                        <mask id="mask-64" fill="white">
                            <use xlink:href="#path-63"></use>
                        </mask>
                        <g id="Clip-95"></g>
                        <path d="M52.1869,-7.8536 L0.6869,43.6464" id="Stroke-94" stroke="#3E3832" mask="url(#mask-64)"></path>
                    </g>
                    <g id="Group-99" transform="translate(96.000000, 0.207100)">
                        <mask id="mask-66" fill="white">
                            <use xlink:href="#path-65"></use>
                        </mask>
                        <g id="Clip-98"></g>
                        <path d="M51.5202,-7.8536 L0.0202,43.6464" id="Stroke-97" stroke="#3E3832" mask="url(#mask-66)"></path>
                    </g>
                    <g id="Group-102" transform="translate(100.000000, 0.207100)">
                        <mask id="mask-68" fill="white">
                            <use xlink:href="#path-67"></use>
                        </mask>
                        <g id="Clip-101"></g>
                        <path d="M51.8535,-7.8536 L0.3535,43.6464" id="Stroke-100" stroke="#3E3832" mask="url(#mask-68)"></path>
                    </g>
                    <g id="Group-105" transform="translate(104.000000, 0.207100)">
                        <mask id="mask-70" fill="white">
                            <use xlink:href="#path-69"></use>
                        </mask>
                        <g id="Clip-104"></g>
                        <path d="M52.1869,-7.8536 L0.6869,43.6464" id="Stroke-103" stroke="#3E3832" mask="url(#mask-70)"></path>
                    </g>
                    <g id="Group-108" transform="translate(109.000000, 0.207100)">
                        <mask id="mask-72" fill="white">
                            <use xlink:href="#path-71"></use>
                        </mask>
                        <g id="Clip-107"></g>
                        <path d="M51.5202,-7.8536 L0.0202,43.6464" id="Stroke-106" stroke="#3E3832" mask="url(#mask-72)"></path>
                    </g>
                    <g id="Group-111" transform="translate(113.000000, 0.207100)">
                        <mask id="mask-74" fill="white">
                            <use xlink:href="#path-73"></use>
                        </mask>
                        <g id="Clip-110"></g>
                        <path d="M51.8535,-7.8536 L0.3535,43.6464" id="Stroke-109" stroke="#3E3832" mask="url(#mask-74)"></path>
                    </g>
                    <g id="Group-114" transform="translate(117.000000, 0.207100)">
                        <mask id="mask-76" fill="white">
                            <use xlink:href="#path-75"></use>
                        </mask>
                        <g id="Clip-113"></g>
                        <path d="M52.1869,-7.8536 L0.6869,43.6464" id="Stroke-112" stroke="#3E3832" mask="url(#mask-76)"></path>
                    </g>
                    <g id="Group-117" transform="translate(122.000000, 0.207100)">
                        <mask id="mask-78" fill="white">
                            <use xlink:href="#path-77"></use>
                        </mask>
                        <g id="Clip-116"></g>
                        <path d="M51.5202,-7.8536 L0.0202,43.6464" id="Stroke-115" stroke="#3E3832" mask="url(#mask-78)"></path>
                    </g>
                    <g id="Group-120" transform="translate(126.000000, 0.207100)">
                        <mask id="mask-80" fill="white">
                            <use xlink:href="#path-79"></use>
                        </mask>
                        <g id="Clip-119"></g>
                        <path d="M51.8535,-7.8536 L0.3535,43.6464" id="Stroke-118" stroke="#3E3832" mask="url(#mask-80)"></path>
                    </g>
                    <g id="Group-123" transform="translate(130.000000, 0.207100)">
                        <mask id="mask-82" fill="white">
                            <use xlink:href="#path-81"></use>
                        </mask>
                        <g id="Clip-122"></g>
                        <path d="M52.1869,-7.8536 L0.6869,43.6464" id="Stroke-121" stroke="#3E3832" mask="url(#mask-82)"></path>
                    </g>
                    <g id="Group-126" transform="translate(135.000000, 0.207100)">
                        <mask id="mask-84" fill="white">
                            <use xlink:href="#path-83"></use>
                        </mask>
                        <g id="Clip-125"></g>
                        <path d="M51.5202,-7.8536 L0.0202,43.6464" id="Stroke-124" stroke="#3E3832" mask="url(#mask-84)"></path>
                    </g>
                    <g id="Group-129" transform="translate(139.000000, 0.207100)">
                        <mask id="mask-86" fill="white">
                            <use xlink:href="#path-85"></use>
                        </mask>
                        <g id="Clip-128"></g>
                        <path d="M51.8535,-7.8536 L0.3535,43.6464" id="Stroke-127" stroke="#3E3832" mask="url(#mask-86)"></path>
                    </g>
                    <g id="Group-132" transform="translate(143.000000, 0.207100)">
                        <mask id="mask-88" fill="white">
                            <use xlink:href="#path-87"></use>
                        </mask>
                        <g id="Clip-131"></g>
                        <path d="M52.1869,-7.8536 L0.6869,43.6464" id="Stroke-130" stroke="#3E3832" mask="url(#mask-88)"></path>
                    </g>
                    <g id="Group-135" transform="translate(148.000000, 0.207100)">
                        <mask id="mask-90" fill="white">
                            <use xlink:href="#path-89"></use>
                        </mask>
                        <g id="Clip-134"></g>
                        <path d="M51.5202,-7.8536 L0.0202,43.6464" id="Stroke-133" stroke="#3E3832" mask="url(#mask-90)"></path>
                    </g>
                    <g id="Group-138" transform="translate(152.000000, 0.207100)">
                        <mask id="mask-92" fill="white">
                            <use xlink:href="#path-91"></use>
                        </mask>
                        <g id="Clip-137"></g>
                        <path d="M51.8535,-7.8536 L0.3535,43.6464" id="Stroke-136" stroke="#3E3832" mask="url(#mask-92)"></path>
                    </g>
                    <g id="Group-141" transform="translate(156.000000, 0.207100)">
                        <mask id="mask-94" fill="white">
                            <use xlink:href="#path-93"></use>
                        </mask>
                        <g id="Clip-140"></g>
                        <path d="M52.1869,-7.8536 L0.6869,43.6464" id="Stroke-139" stroke="#3E3832" mask="url(#mask-94)"></path>
                    </g>
                    <g id="Group-144" transform="translate(161.000000, 0.207100)">
                        <mask id="mask-96" fill="white">
                            <use xlink:href="#path-95"></use>
                        </mask>
                        <g id="Clip-143"></g>
                        <path d="M51.5202,-7.8536 L0.0202,43.6464" id="Stroke-142" stroke="#3E3832" mask="url(#mask-96)"></path>
                    </g>
                    <g id="Group-147" transform="translate(165.000000, 0.207100)">
                        <mask id="mask-98" fill="white">
                            <use xlink:href="#path-97"></use>
                        </mask>
                        <g id="Clip-146"></g>
                        <path d="M51.8535,-7.8536 L0.3535,43.6464" id="Stroke-145" stroke="#3E3832" mask="url(#mask-98)"></path>
                    </g>
                    <g id="Group-150" transform="translate(169.000000, 0.207100)">
                        <mask id="mask-100" fill="white">
                            <use xlink:href="#path-99"></use>
                        </mask>
                        <g id="Clip-149"></g>
                        <path d="M52.1869,-7.8536 L0.6869,43.6464" id="Stroke-148" stroke="#3E3832" mask="url(#mask-100)"></path>
                    </g>
                    <g id="Group-153" transform="translate(174.000000, 0.207100)">
                        <mask id="mask-102" fill="white">
                            <use xlink:href="#path-101"></use>
                        </mask>
                        <g id="Clip-152"></g>
                        <path d="M51.5202,-7.8536 L0.0202,43.6464" id="Stroke-151" stroke="#3E3832" mask="url(#mask-102)"></path>
                    </g>
                    <g id="Group-156" transform="translate(178.000000, 0.207100)">
                        <mask id="mask-104" fill="white">
                            <use xlink:href="#path-103"></use>
                        </mask>
                        <g id="Clip-155"></g>
                        <path d="M51.8535,-7.8536 L0.3535,43.6464" id="Stroke-154" stroke="#3E3832" mask="url(#mask-104)"></path>
                    </g>
                    <g id="Group-159" transform="translate(182.000000, 0.207100)">
                        <mask id="mask-106" fill="white">
                            <use xlink:href="#path-105"></use>
                        </mask>
                        <g id="Clip-158"></g>
                        <path d="M52.1869,-7.8536 L0.6869,43.6464" id="Stroke-157" stroke="#3E3832" mask="url(#mask-106)"></path>
                    </g>
                    <g id="Group-162" transform="translate(187.000000, 0.207100)">
                        <mask id="mask-108" fill="white">
                            <use xlink:href="#path-107"></use>
                        </mask>
                        <g id="Clip-161"></g>
                        <path d="M51.5202,-7.8536 L0.0202,43.6464" id="Stroke-160" stroke="#3E3832" mask="url(#mask-108)"></path>
                    </g>
                    <g id="Group-165" transform="translate(191.000000, 0.207100)">
                        <mask id="mask-110" fill="white">
                            <use xlink:href="#path-109"></use>
                        </mask>
                        <g id="Clip-164"></g>
                        <path d="M51.8535,-7.8536 L0.3535,43.6464" id="Stroke-163" stroke="#3E3832" mask="url(#mask-110)"></path>
                    </g>
                    <g id="Group-168" transform="translate(195.000000, 0.207100)">
                        <mask id="mask-112" fill="white">
                            <use xlink:href="#path-111"></use>
                        </mask>
                        <g id="Clip-167"></g>
                        <path d="M52.1869,-7.8536 L0.6869,43.6464" id="Stroke-166" stroke="#3E3832" mask="url(#mask-112)"></path>
                    </g>
                    <g id="Group-171" transform="translate(200.000000, 0.207100)">
                        <mask id="mask-114" fill="white">
                            <use xlink:href="#path-113"></use>
                        </mask>
                        <g id="Clip-170"></g>
                        <path d="M51.5202,-7.8536 L0.0202,43.6464" id="Stroke-169" stroke="#3E3832" mask="url(#mask-114)"></path>
                    </g>
                    <g id="Group-174" transform="translate(204.000000, 0.207100)">
                        <mask id="mask-116" fill="white">
                            <use xlink:href="#path-115"></use>
                        </mask>
                        <g id="Clip-173"></g>
                        <path d="M51.8535,-7.8536 L0.3535,43.6464" id="Stroke-172" stroke="#3E3832" mask="url(#mask-116)"></path>
                    </g>
                    <g id="Group-177" transform="translate(208.000000, 0.207100)">
                        <mask id="mask-118" fill="white">
                            <use xlink:href="#path-117"></use>
                        </mask>
                        <g id="Clip-176"></g>
                        <path d="M52.1869,-7.8536 L0.6869,43.6464" id="Stroke-175" stroke="#3E3832" mask="url(#mask-118)"></path>
                    </g>
                    <g id="Group-180" transform="translate(213.000000, 0.207100)">
                        <mask id="mask-120" fill="white">
                            <use xlink:href="#path-119"></use>
                        </mask>
                        <g id="Clip-179"></g>
                        <path d="M51.5202,-7.8536 L0.0202,43.6464" id="Stroke-178" stroke="#3E3832" mask="url(#mask-120)"></path>
                    </g>
                    <g id="Group-183" transform="translate(217.000000, 0.207100)">
                        <mask id="mask-122" fill="white">
                            <use xlink:href="#path-121"></use>
                        </mask>
                        <g id="Clip-182"></g>
                        <path d="M51.8535,-7.8536 L0.3535,43.6464" id="Stroke-181" stroke="#3E3832" mask="url(#mask-122)"></path>
                    </g>
                    <g id="Group-186" transform="translate(221.000000, 0.207100)">
                        <mask id="mask-124" fill="white">
                            <use xlink:href="#path-123"></use>
                        </mask>
                        <g id="Clip-185"></g>
                        <path d="M52.1869,-7.8536 L0.6869,43.6464" id="Stroke-184" stroke="#3E3832" mask="url(#mask-124)"></path>
                    </g>
                    <g id="Group-189" transform="translate(226.000000, 0.207100)">
                        <mask id="mask-126" fill="white">
                            <use xlink:href="#path-125"></use>
                        </mask>
                        <g id="Clip-188"></g>
                        <path d="M51.5202,-7.8536 L0.0202,43.6464" id="Stroke-187" stroke="#3E3832" mask="url(#mask-126)"></path>
                    </g>
                    <g id="Group-192" transform="translate(230.000000, 0.207100)">
                        <mask id="mask-128" fill="white">
                            <use xlink:href="#path-127"></use>
                        </mask>
                        <g id="Clip-191"></g>
                        <path d="M51.8535,-7.8536 L0.3535,43.6464" id="Stroke-190" stroke="#3E3832" mask="url(#mask-128)"></path>
                    </g>
                    <g id="Group-195" transform="translate(234.000000, 0.207100)">
                        <mask id="mask-130" fill="white">
                            <use xlink:href="#path-129"></use>
                        </mask>
                        <g id="Clip-194"></g>
                        <path d="M52.1869,-7.8536 L0.6869,43.6464" id="Stroke-193" stroke="#3E3832" mask="url(#mask-130)"></path>
                    </g>
                    <g id="Group-198" transform="translate(239.000000, 0.207100)">
                        <mask id="mask-132" fill="white">
                            <use xlink:href="#path-131"></use>
                        </mask>
                        <g id="Clip-197"></g>
                        <path d="M51.5202,-7.8536 L0.0202,43.6464" id="Stroke-196" stroke="#3E3832" mask="url(#mask-132)"></path>
                    </g>
                    <g id="Group-201" transform="translate(243.000000, 0.207100)">
                        <mask id="mask-134" fill="white">
                            <use xlink:href="#path-133"></use>
                        </mask>
                        <g id="Clip-200"></g>
                        <path d="M51.8535,-7.8536 L0.3535,43.6464" id="Stroke-199" stroke="#3E3832" mask="url(#mask-134)"></path>
                    </g>
                </g>
            </g>
        </g>
    </g>
</svg>